<ttFont>
    <TTGlyph name=".notdef" xMin="123" yMin="0" xMax="1028" yMax="1581">
      <contour>
        <pt x="123" y="0" on="1"/>
        <pt x="123" y="1581" on="1"/>
        <pt x="1028" y="1581" on="1"/>
        <pt x="1028" y="0" on="1"/>
      </contour>
      <contour>
        <pt x="197" y="61" on="1"/>
        <pt x="954" y="61" on="1"/>
        <pt x="954" y="1520" on="1"/>
        <pt x="197" y="1520" on="1"/>
      </contour>
    </TTGlyph>
    <TTGlyph name=".ttfautohint" xMin="0" yMin="0" xMax="0" yMax="0">
      <contour>
        <pt x="0" y="0" on="1"/>
      </contour>
    </TTGlyph>
    <TTGlyph name="A" xMin="-43" yMin="0" xMax="1432" yMax="1450">
      <contour>
        <pt x="1337" y="106" on="0"/>
        <pt x="1401" y="43" on="0"/>
        <pt x="1432" y="41" on="1"/>
        <pt x="1432" y="0" on="1"/>
        <pt x="1284" y="6" on="0"/>
        <pt x="1059" y="6" on="1"/>
        <pt x="825" y="6" on="0"/>
        <pt x="715" y="0" on="1"/>
        <pt x="715" y="41" on="1"/>
        <pt x="792" y="44" on="0"/>
        <pt x="859" y="76" on="0"/>
        <pt x="859" y="116" on="1"/>
        <pt x="859" y="147" on="0"/>
        <pt x="834" y="213" on="1"/>
        <pt x="712" y="549" on="1"/>
        <pt x="299" y="549" on="1"/>
        <pt x="264" y="457" on="1"/>
        <pt x="198" y="285" on="0"/>
        <pt x="198" y="190" on="1"/>
        <pt x="198" y="106" on="0"/>
        <pt x="291" y="44" on="0"/>
        <pt x="383" y="41" on="1"/>
        <pt x="383" y="0" on="1"/>
        <pt x="230" y="6" on="0"/>
        <pt x="115" y="6" on="1"/>
        <pt x="18" y="6" on="0"/>
        <pt x="-43" y="0" on="1"/>
        <pt x="-43" y="41" on="1"/>
        <pt x="7" y="49" on="0"/>
        <pt x="98" y="159" on="0"/>
        <pt x="145" y="281" on="1"/>
        <pt x="600" y="1450" on="1"/>
        <pt x="644" y="1446" on="0"/>
        <pt x="708" y="1446" on="1"/>
        <pt x="772" y="1446" on="0"/>
        <pt x="815" y="1450" on="1"/>
        <pt x="1311" y="172" on="1"/>
      </contour>
      <contour>
        <pt x="512" y="1102" on="1"/>
        <pt x="315" y="590" on="1"/>
        <pt x="698" y="590" on="1"/>
      </contour>
    </TTGlyph>
    <TTGlyph name="AE" xMin="-35" yMin="0" xMax="1780" yMax="1581">
      <contour>
        <pt x="1765" y="119" on="0"/>
        <pt x="1780" y="0" on="1"/>
        <pt x="1640" y="6" on="0"/>
        <pt x="1311" y="6" on="1"/>
        <pt x="874" y="6" on="0"/>
        <pt x="655" y="0" on="1"/>
        <pt x="655" y="41" on="1"/>
        <pt x="721" y="44" on="0"/>
        <pt x="780" y="70" on="0"/>
        <pt x="801" y="140" on="0"/>
        <pt x="801" y="217" on="1"/>
        <pt x="801" y="709" on="1"/>
        <pt x="469" y="709" on="1"/>
        <pt x="184" y="213" on="1"/>
        <pt x="148" y="148" on="0"/>
        <pt x="148" y="113" on="1"/>
        <pt x="148" y="77" on="0"/>
        <pt x="216" y="44" on="0"/>
        <pt x="289" y="41" on="1"/>
        <pt x="289" y="0" on="1"/>
        <pt x="227" y="6" on="0"/>
        <pt x="102" y="6" on="1"/>
        <pt x="14" y="6" on="0"/>
        <pt x="-35" y="0" on="1"/>
        <pt x="-35" y="41" on="1"/>
        <pt x="-1" y="43" on="0"/>
        <pt x="65" y="101" on="0"/>
        <pt x="106" y="172" on="1"/>
        <pt x="788" y="1352" on="1"/>
        <pt x="775" y="1383" on="0"/>
        <pt x="717" y="1406" on="0"/>
        <pt x="655" y="1409" on="1"/>
        <pt x="655" y="1450" on="1"/>
        <pt x="714" y="1448" on="0"/>
        <pt x="842" y="1446" on="1"/>
        <pt x="920" y="1581" on="1"/>
        <pt x="969" y="1581" on="1"/>
        <pt x="891" y="1446" on="1"/>
        <pt x="1056" y="1444" on="0"/>
        <pt x="1311" y="1444" on="1"/>
        <pt x="1612" y="1444" on="0"/>
        <pt x="1739" y="1450" on="1"/>
        <pt x="1724" y="1269" on="0"/>
        <pt x="1724" y="1147" on="1"/>
        <pt x="1724" y="1048" on="0"/>
        <pt x="1731" y="999" on="1"/>
        <pt x="1683" y="999" on="1"/>
        <pt x="1653" y="1214" on="0"/>
        <pt x="1495" y="1403" on="0"/>
        <pt x="1389" y="1403" on="1"/>
        <pt x="1362" y="1403" on="1"/>
        <pt x="1298" y="1403" on="0"/>
        <pt x="1239" y="1379" on="0"/>
        <pt x="1217" y="1310" on="0"/>
        <pt x="1217" y="1233" on="1"/>
        <pt x="1217" y="750" on="1"/>
        <pt x="1298" y="750" on="1"/>
        <pt x="1363" y="750" on="0"/>
        <pt x="1442" y="830" on="0"/>
        <pt x="1477" y="926" on="0"/>
        <pt x="1495" y="999" on="1"/>
        <pt x="1542" y="999" on="1"/>
        <pt x="1535" y="905" on="0"/>
        <pt x="1535" y="820" on="1"/>
        <pt x="1536" y="729" on="1"/>
        <pt x="1536" y="633" on="0"/>
        <pt x="1548" y="459" on="1"/>
        <pt x="1501" y="459" on="1"/>
        <pt x="1488" y="532" on="0"/>
        <pt x="1446" y="639" on="0"/>
        <pt x="1364" y="709" on="0"/>
        <pt x="1298" y="709" on="1"/>
        <pt x="1217" y="709" on="1"/>
        <pt x="1217" y="217" on="1"/>
        <pt x="1217" y="140" on="0"/>
        <pt x="1239" y="71" on="0"/>
        <pt x="1298" y="47" on="0"/>
        <pt x="1362" y="47" on="1"/>
        <pt x="1430" y="47" on="1"/>
        <pt x="1487" y="47" on="0"/>
        <pt x="1610" y="135" on="0"/>
        <pt x="1707" y="334" on="0"/>
        <pt x="1724" y="492" on="1"/>
        <pt x="1772" y="492" on="1"/>
        <pt x="1765" y="422" on="0"/>
        <pt x="1765" y="303" on="1"/>
      </contour>
      <contour>
        <pt x="801" y="1233" on="1"/>
        <pt x="801" y="1270" on="0"/>
        <pt x="800" y="1286" on="1"/>
        <pt x="492" y="750" on="1"/>
        <pt x="801" y="750" on="1"/>
      </contour>
    </TTGlyph>
    <TTGlyph name="Aacute" xMin="-43" yMin="0" xMax="1432" yMax="1937">
      <component glyphName=".ttfautohint" x="0" y="0" flags="0x0"/>
      <component glyphName="A" x="0" y="0" flags="0x0"/>
      <component glyphName="acute.case" x="545" y="0" flags="0x0"/>
    </TTGlyph>
    <TTGlyph name="Abreve" xMin="-43" yMin="0" xMax="1432" yMax="1884">
      <component glyphName=".ttfautohint" x="0" y="0" flags="0x0"/>
      <component glyphName="A" x="0" y="0" flags="0x0"/>
      <component glyphName="breve.case" x="252" y="0" flags="0x0"/>
    </TTGlyph>
    <TTGlyph name="Acircumflex" xMin="-43" yMin="0" xMax="1432" yMax="1958">
      <component glyphName=".ttfautohint" x="0" y="0" flags="0x0"/>
      <component glyphName="A" x="0" y="0" flags="0x0"/>
      <component glyphName="circumflex.case" x="279" y="0" flags="0x0"/>
    </TTGlyph>
    <TTGlyph name="Adieresis" xMin="-43" yMin="0" xMax="1432" yMax="1917">
      <component glyphName=".ttfautohint" x="0" y="0" flags="0x0"/>
      <component glyphName="A" x="0" y="0" flags="0x0"/>
      <component glyphName="dieresis.case" x="324" y="0" flags="0x0"/>
    </TTGlyph>
    <TTGlyph name="Agrave" xMin="-43" yMin="0" xMax="1432" yMax="1937">
      <component glyphName=".ttfautohint" x="0" y="0" flags="0x0"/>
      <component glyphName="A" x="0" y="0" flags="0x0"/>
      <component glyphName="grave.case" x="326" y="0" flags="0x0"/>
    </TTGlyph>
    <TTGlyph name="Amacron" xMin="-43" yMin="0" xMax="1432" yMax="1729">
      <component glyphName=".ttfautohint" x="0" y="0" flags="0x0"/>
      <component glyphName="A" x="0" y="0" flags="0x0"/>
      <component glyphName="macron.case" x="299" y="0" flags="0x0"/>
    </TTGlyph>
    <TTGlyph name="Aogonek" xMin="-43" yMin="-385" xMax="1432" yMax="1450">
      <contour>
        <pt x="1282" y="-38" on="0"/>
        <pt x="1176" y="-138" on="0"/>
        <pt x="1176" y="-184" on="1"/>
        <pt x="1176" y="-225" on="0"/>
        <pt x="1216" y="-262" on="0"/>
        <pt x="1258" y="-262" on="1"/>
        <pt x="1292" y="-262" on="0"/>
        <pt x="1370" y="-235" on="0"/>
        <pt x="1393" y="-215" on="1"/>
        <pt x="1420" y="-246" on="1"/>
        <pt x="1360" y="-320" on="0"/>
        <pt x="1213" y="-385" on="0"/>
        <pt x="1106" y="-385" on="1"/>
        <pt x="1007" y="-385" on="0"/>
        <pt x="904" y="-310" on="0"/>
        <pt x="904" y="-240" on="1"/>
        <pt x="904" y="-154" on="0"/>
        <pt x="1118" y="-30" on="0"/>
        <pt x="1315" y="3" on="1"/>
        <pt x="1196" y="6" on="0"/>
        <pt x="1059" y="6" on="1"/>
        <pt x="824" y="6" on="0"/>
        <pt x="715" y="0" on="1"/>
        <pt x="715" y="41" on="1"/>
        <pt x="792" y="44" on="0"/>
        <pt x="859" y="76" on="0"/>
        <pt x="859" y="116" on="1"/>
        <pt x="859" y="147" on="0"/>
        <pt x="834" y="213" on="1"/>
        <pt x="712" y="549" on="1"/>
        <pt x="299" y="549" on="1"/>
        <pt x="264" y="457" on="1"/>
        <pt x="198" y="285" on="0"/>
        <pt x="198" y="190" on="1"/>
        <pt x="198" y="106" on="0"/>
        <pt x="291" y="44" on="0"/>
        <pt x="383" y="41" on="1"/>
        <pt x="383" y="0" on="1"/>
        <pt x="230" y="6" on="0"/>
        <pt x="115" y="6" on="1"/>
        <pt x="18" y="6" on="0"/>
        <pt x="-43" y="0" on="1"/>
        <pt x="-43" y="41" on="1"/>
        <pt x="7" y="49" on="0"/>
        <pt x="98" y="159" on="0"/>
        <pt x="145" y="281" on="1"/>
        <pt x="600" y="1450" on="1"/>
        <pt x="655" y="1445" on="0"/>
        <pt x="708" y="1445" on="1"/>
        <pt x="760" y="1445" on="0"/>
        <pt x="815" y="1450" on="1"/>
        <pt x="1311" y="172" on="1"/>
        <pt x="1337" y="106" on="0"/>
        <pt x="1401" y="43" on="0"/>
        <pt x="1432" y="41" on="1"/>
        <pt x="1432" y="0" on="1"/>
        <pt x="1394" y="1" on="1"/>
      </contour>
      <contour>
        <pt x="512" y="1102" on="1"/>
        <pt x="315" y="590" on="1"/>
        <pt x="698" y="590" on="1"/>
      </contour>
    </TTGlyph>
    <TTGlyph name="Aring" xMin="-43" yMin="0" xMax="1432" yMax="1935">
      <component glyphName=".ttfautohint" x="0" y="0" flags="0x0"/>
      <component glyphName="A" x="0" y="0" flags="0x0"/>
      <component glyphName="ring.case" x="443" y="0" flags="0x0"/>
    </TTGlyph>
    <TTGlyph name="Atilde" xMin="-43" yMin="0" xMax="1432" yMax="1921">
      <component glyphName=".ttfautohint" x="0" y="0" flags="0x0"/>
      <component glyphName="A" x="0" y="0" flags="0x0"/>
      <component glyphName="tilde.case" x="226" y="0" flags="0x0"/>
    </TTGlyph>
    <TTGlyph name="B" xMin="57" yMin="0" xMax="1401" yMax="1450">
      <contour>
        <pt x="1021" y="750" on="0"/>
        <pt x="1282" y="643" on="0"/>
        <pt x="1401" y="486" on="0"/>
        <pt x="1401" y="397" on="1"/>
        <pt x="1401" y="197" on="0"/>
        <pt x="1080" y="0" on="0"/>
        <pt x="786" y="0" on="1"/>
        <pt x="686" y="2" on="1"/>
        <pt x="548" y="6" on="0"/>
        <pt x="414" y="6" on="1"/>
        <pt x="174" y="6" on="0"/>
        <pt x="57" y="0" on="1"/>
        <pt x="57" y="41" on="1"/>
        <pt x="123" y="44" on="0"/>
        <pt x="182" y="70" on="0"/>
        <pt x="203" y="140" on="0"/>
        <pt x="203" y="217" on="1"/>
        <pt x="203" y="1233" on="1"/>
        <pt x="203" y="1310" on="0"/>
        <pt x="181" y="1380" on="0"/>
        <pt x="122" y="1406" on="0"/>
        <pt x="57" y="1409" on="1"/>
        <pt x="57" y="1450" on="1"/>
        <pt x="174" y="1444" on="0"/>
        <pt x="410" y="1444" on="1"/>
        <pt x="450" y="1444" on="0"/>
        <pt x="645" y="1447" on="1"/>
        <pt x="739" y="1448" on="1"/>
        <pt x="921" y="1448" on="0"/>
        <pt x="1170" y="1367" on="0"/>
        <pt x="1294" y="1222" on="0"/>
        <pt x="1294" y="1126" on="1"/>
        <pt x="1294" y="1050" on="0"/>
        <pt x="1189" y="898" on="0"/>
        <pt x="975" y="783" on="0"/>
        <pt x="821" y="764" on="1"/>
        <pt x="821" y="760" on="1"/>
      </contour>
      <contour>
        <pt x="682" y="1409" on="0"/>
        <pt x="635" y="1380" on="0"/>
        <pt x="618" y="1306" on="0"/>
        <pt x="618" y="1233" on="1"/>
        <pt x="618" y="770" on="1"/>
        <pt x="674" y="770" on="1"/>
        <pt x="785" y="770" on="0"/>
        <pt x="872" y="951" on="0"/>
        <pt x="872" y="1104" on="1"/>
        <pt x="872" y="1259" on="0"/>
        <pt x="806" y="1409" on="0"/>
        <pt x="729" y="1409" on="1"/>
      </contour>
      <contour>
        <pt x="971" y="47" on="0"/>
        <pt x="971" y="406" on="1"/>
        <pt x="971" y="567" on="0"/>
        <pt x="816" y="735" on="0"/>
        <pt x="647" y="735" on="1"/>
        <pt x="618" y="735" on="1"/>
        <pt x="618" y="217" on="1"/>
        <pt x="618" y="143" on="0"/>
        <pt x="639" y="73" on="0"/>
        <pt x="694" y="47" on="0"/>
        <pt x="752" y="47" on="1"/>
      </contour>
    </TTGlyph>
    <TTGlyph name="C" xMin="74" yMin="-29" xMax="1364" yMax="1479">
      <contour>
        <pt x="970" y="1479" on="0"/>
        <pt x="1143" y="1409" on="0"/>
        <pt x="1225" y="1346" on="1"/>
        <pt x="1248" y="1328" on="0"/>
        <pt x="1265" y="1328" on="1"/>
        <pt x="1307" y="1328" on="0"/>
        <pt x="1317" y="1450" on="1"/>
        <pt x="1364" y="1450" on="1"/>
        <pt x="1356" y="1305" on="0"/>
        <pt x="1356" y="938" on="1"/>
        <pt x="1309" y="938" on="1"/>
        <pt x="1299" y="1047" on="0"/>
        <pt x="1262" y="1194" on="0"/>
        <pt x="1186" y="1311" on="0"/>
        <pt x="1120" y="1354" on="1"/>
        <pt x="1026" y="1415" on="0"/>
        <pt x="930" y="1415" on="1"/>
        <pt x="783" y="1415" on="0"/>
        <pt x="612" y="1208" on="0"/>
        <pt x="545" y="898" on="0"/>
        <pt x="545" y="721" on="1"/>
        <pt x="545" y="544" on="0"/>
        <pt x="612" y="234" on="0"/>
        <pt x="783" y="27" on="0"/>
        <pt x="930" y="27" on="1"/>
        <pt x="1026" y="27" on="0"/>
        <pt x="1120" y="88" on="1"/>
        <pt x="1186" y="129" on="0"/>
        <pt x="1262" y="249" on="0"/>
        <pt x="1299" y="410" on="0"/>
        <pt x="1309" y="532" on="1"/>
        <pt x="1356" y="532" on="1"/>
        <pt x="1356" y="151" on="0"/>
        <pt x="1364" y="0" on="1"/>
        <pt x="1317" y="0" on="1"/>
        <pt x="1312" y="64" on="0"/>
        <pt x="1289" y="121" on="0"/>
        <pt x="1267" y="121" on="1"/>
        <pt x="1251" y="121" on="0"/>
        <pt x="1225" y="104" on="1"/>
        <pt x="1164" y="61" on="0"/>
        <pt x="1061" y="6" on="0"/>
        <pt x="929" y="-29" on="0"/>
        <pt x="846" y="-29" on="1"/>
        <pt x="614" y="-29" on="0"/>
        <pt x="266" y="147" on="0"/>
        <pt x="74" y="482" on="0"/>
        <pt x="74" y="713" on="1"/>
        <pt x="74" y="939" on="0"/>
        <pt x="271" y="1287" on="0"/>
        <pt x="622" y="1479" on="0"/>
        <pt x="848" y="1479" on="1"/>
      </contour>
    </TTGlyph>
    <TTGlyph name="Cacute" xMin="74" yMin="-29" xMax="1364" yMax="1937">
      <component glyphName=".ttfautohint" x="74" y="0" flags="0x0"/>
      <component glyphName="C" x="0" y="0" flags="0x0"/>
      <component glyphName="acute.case" x="631" y="0" flags="0x0"/>
    </TTGlyph>
    <TTGlyph name="Cacute.loclPLK" xMin="74" yMin="-29" xMax="1364" yMax="1994">
      <component glyphName=".ttfautohint" x="74" y="0" flags="0x0"/>
      <component glyphName="C" x="0" y="0" flags="0x0"/>
      <component glyphName="acute.loclPLK.case" x="688" y="0" flags="0x0"/>
    </TTGlyph>
    <TTGlyph name="Ccaron" xMin="74" yMin="-29" xMax="1364" yMax="1937">
      <component glyphName=".ttfautohint" x="74" y="0" flags="0x0"/>
      <component glyphName="C" x="0" y="0" flags="0x0"/>
      <component glyphName="caron.case" x="359" y="0" flags="0x0"/>
    </TTGlyph>
    <TTGlyph name="Ccedilla" xMin="74" yMin="-385" xMax="1364" yMax="1479">
      <contour>
        <pt x="1356" y="151" on="0"/>
        <pt x="1364" y="0" on="1"/>
        <pt x="1317" y="0" on="1"/>
        <pt x="1312" y="64" on="0"/>
        <pt x="1289" y="121" on="0"/>
        <pt x="1267" y="121" on="1"/>
        <pt x="1251" y="121" on="0"/>
        <pt x="1225" y="104" on="1"/>
        <pt x="1167" y="63" on="0"/>
        <pt x="1070" y="10" on="0"/>
        <pt x="947" y="-26" on="0"/>
        <pt x="872" y="-29" on="1"/>
        <pt x="844" y="-123" on="1"/>
        <pt x="925" y="-92" on="0"/>
        <pt x="1026" y="-92" on="1"/>
        <pt x="1110" y="-92" on="0"/>
        <pt x="1198" y="-158" on="0"/>
        <pt x="1198" y="-211" on="1"/>
        <pt x="1198" y="-297" on="0"/>
        <pt x="988" y="-385" on="0"/>
        <pt x="813" y="-385" on="1"/>
        <pt x="687" y="-385" on="0"/>
        <pt x="608" y="-358" on="1"/>
        <pt x="621" y="-322" on="1"/>
        <pt x="676" y="-332" on="0"/>
        <pt x="740" y="-332" on="1"/>
        <pt x="816" y="-332" on="0"/>
        <pt x="928" y="-292" on="0"/>
        <pt x="928" y="-254" on="1"/>
        <pt x="928" y="-203" on="0"/>
        <pt x="830" y="-203" on="1"/>
        <pt x="787" y="-203" on="0"/>
        <pt x="762" y="-217" on="1"/>
        <pt x="817" y="-29" on="1"/>
        <pt x="593" y="-23" on="0"/>
        <pt x="258" y="157" on="0"/>
        <pt x="74" y="487" on="0"/>
        <pt x="74" y="713" on="1"/>
        <pt x="74" y="939" on="0"/>
        <pt x="271" y="1287" on="0"/>
        <pt x="622" y="1479" on="0"/>
        <pt x="848" y="1479" on="1"/>
        <pt x="970" y="1479" on="0"/>
        <pt x="1143" y="1409" on="0"/>
        <pt x="1225" y="1346" on="1"/>
        <pt x="1248" y="1328" on="0"/>
        <pt x="1265" y="1328" on="1"/>
        <pt x="1307" y="1328" on="0"/>
        <pt x="1317" y="1450" on="1"/>
        <pt x="1364" y="1450" on="1"/>
        <pt x="1356" y="1305" on="0"/>
        <pt x="1356" y="938" on="1"/>
        <pt x="1309" y="938" on="1"/>
        <pt x="1299" y="1047" on="0"/>
        <pt x="1262" y="1194" on="0"/>
        <pt x="1186" y="1311" on="0"/>
        <pt x="1120" y="1354" on="1"/>
        <pt x="1026" y="1415" on="0"/>
        <pt x="930" y="1415" on="1"/>
        <pt x="783" y="1415" on="0"/>
        <pt x="612" y="1208" on="0"/>
        <pt x="545" y="898" on="0"/>
        <pt x="545" y="721" on="1"/>
        <pt x="545" y="544" on="0"/>
        <pt x="612" y="234" on="0"/>
        <pt x="783" y="27" on="0"/>
        <pt x="930" y="27" on="1"/>
        <pt x="1026" y="27" on="0"/>
        <pt x="1120" y="88" on="1"/>
        <pt x="1186" y="129" on="0"/>
        <pt x="1262" y="249" on="0"/>
        <pt x="1299" y="410" on="0"/>
        <pt x="1309" y="532" on="1"/>
        <pt x="1356" y="532" on="1"/>
      </contour>
    </TTGlyph>
    <TTGlyph name="Ccircumflex" xMin="74" yMin="-29" xMax="1364" yMax="1958">
      <component glyphName=".ttfautohint" x="74" y="0" flags="0x0"/>
      <component glyphName="C" x="0" y="0" flags="0x0"/>
      <component glyphName="circumflex.case" x="365" y="0" flags="0x0"/>
    </TTGlyph>
    <TTGlyph name="Cdotaccent" xMin="74" yMin="-29" xMax="1364" yMax="1909">
      <component glyphName=".ttfautohint" x="74" y="0" flags="0x0"/>
      <component glyphName="C" x="0" y="0" flags="0x0"/>
      <component glyphName="dotaccent.case" x="600" y="0" flags="0x0"/>
    </TTGlyph>
    <TTGlyph name="D" xMin="57" yMin="0" xMax="1585" yMax="1450">
      <contour>
        <pt x="1164" y="1450" on="0"/>
        <pt x="1585" y="1088" on="0"/>
        <pt x="1585" y="741" on="1"/>
        <pt x="1585" y="518" on="0"/>
        <pt x="1379" y="183" on="0"/>
        <pt x="990" y="0" on="0"/>
        <pt x="721" y="0" on="1"/>
        <pt x="670" y="0" on="0"/>
        <pt x="593" y="3" on="1"/>
        <pt x="410" y="6" on="0"/>
        <pt x="414" y="6" on="1"/>
        <pt x="174" y="6" on="0"/>
        <pt x="57" y="0" on="1"/>
        <pt x="57" y="41" on="1"/>
        <pt x="123" y="44" on="0"/>
        <pt x="182" y="70" on="0"/>
        <pt x="203" y="140" on="0"/>
        <pt x="203" y="217" on="1"/>
        <pt x="203" y="1233" on="1"/>
        <pt x="203" y="1310" on="0"/>
        <pt x="181" y="1380" on="0"/>
        <pt x="122" y="1406" on="0"/>
        <pt x="57" y="1409" on="1"/>
        <pt x="57" y="1450" on="1"/>
        <pt x="206" y="1443" on="0"/>
        <pt x="337" y="1443" on="1"/>
        <pt x="410" y="1444" on="1"/>
        <pt x="500" y="1446" on="1"/>
        <pt x="668" y="1450" on="0"/>
        <pt x="739" y="1450" on="1"/>
      </contour>
      <contour>
        <pt x="706" y="1413" on="0"/>
        <pt x="642" y="1384" on="0"/>
        <pt x="618" y="1310" on="0"/>
        <pt x="618" y="1237" on="1"/>
        <pt x="618" y="213" on="1"/>
        <pt x="618" y="139" on="0"/>
        <pt x="642" y="66" on="0"/>
        <pt x="707" y="37" on="0"/>
        <pt x="772" y="37" on="1"/>
        <pt x="975" y="37" on="0"/>
        <pt x="1155" y="387" on="0"/>
        <pt x="1155" y="733" on="1"/>
        <pt x="1155" y="1080" on="0"/>
        <pt x="969" y="1413" on="0"/>
        <pt x="770" y="1413" on="1"/>
      </contour>
    </TTGlyph>
    <TTGlyph name="Dcaron" xMin="57" yMin="0" xMax="1585" yMax="1937">
      <component glyphName=".ttfautohint" x="57" y="0" flags="0x0"/>
      <component glyphName="D" x="0" y="0" flags="0x0"/>
      <component glyphName="caron.case" x="301" y="0" flags="0x0"/>
    </TTGlyph>
    <TTGlyph name="Dcroat" xMin="57" yMin="0" xMax="1585" yMax="1450">
      <contour>
        <pt x="1164" y="1450" on="0"/>
        <pt x="1585" y="1088" on="0"/>
        <pt x="1585" y="741" on="1"/>
        <pt x="1585" y="518" on="0"/>
        <pt x="1379" y="183" on="0"/>
        <pt x="990" y="0" on="0"/>
        <pt x="721" y="0" on="1"/>
        <pt x="670" y="0" on="0"/>
        <pt x="593" y="3" on="1"/>
        <pt x="410" y="6" on="0"/>
        <pt x="414" y="6" on="1"/>
        <pt x="174" y="6" on="0"/>
        <pt x="57" y="0" on="1"/>
        <pt x="57" y="41" on="1"/>
        <pt x="123" y="44" on="0"/>
        <pt x="182" y="70" on="0"/>
        <pt x="203" y="140" on="0"/>
        <pt x="203" y="217" on="1"/>
        <pt x="203" y="709" on="1"/>
        <pt x="57" y="709" on="1"/>
        <pt x="57" y="750" on="1"/>
        <pt x="203" y="750" on="1"/>
        <pt x="203" y="1233" on="1"/>
        <pt x="203" y="1310" on="0"/>
        <pt x="181" y="1380" on="0"/>
        <pt x="122" y="1406" on="0"/>
        <pt x="57" y="1409" on="1"/>
        <pt x="57" y="1450" on="1"/>
        <pt x="206" y="1443" on="0"/>
        <pt x="337" y="1443" on="1"/>
        <pt x="410" y="1444" on="1"/>
        <pt x="500" y="1446" on="1"/>
        <pt x="668" y="1450" on="0"/>
        <pt x="739" y="1450" on="1"/>
      </contour>
      <contour>
        <pt x="975" y="37" on="0"/>
        <pt x="1155" y="387" on="0"/>
        <pt x="1155" y="733" on="1"/>
        <pt x="1155" y="1080" on="0"/>
        <pt x="969" y="1413" on="0"/>
        <pt x="770" y="1413" on="1"/>
        <pt x="706" y="1413" on="0"/>
        <pt x="642" y="1384" on="0"/>
        <pt x="618" y="1310" on="0"/>
        <pt x="618" y="1237" on="1"/>
        <pt x="618" y="750" on="1"/>
        <pt x="852" y="750" on="1"/>
        <pt x="852" y="709" on="1"/>
        <pt x="618" y="709" on="1"/>
        <pt x="618" y="213" on="1"/>
        <pt x="618" y="139" on="0"/>
        <pt x="642" y="66" on="0"/>
        <pt x="707" y="37" on="0"/>
        <pt x="772" y="37" on="1"/>
      </contour>
    </TTGlyph>
    <TTGlyph name="Delta" xMin="53" yMin="0" xMax="958" yMax="1479">
      <contour>
        <pt x="735" y="6" on="0"/>
        <pt x="508" y="6" on="1"/>
        <pt x="281" y="6" on="0"/>
        <pt x="53" y="0" on="1"/>
        <pt x="530" y="1479" on="1"/>
        <pt x="563" y="1479" on="1"/>
        <pt x="958" y="0" on="1"/>
      </contour>
      <contour>
        <pt x="590" y="61" on="1"/>
        <pt x="371" y="864" on="1"/>
        <pt x="115" y="61" on="1"/>
      </contour>
    </TTGlyph>
    <TTGlyph name="E" xMin="57" yMin="0" xMax="1243" yMax="1450">
      <contour>
        <pt x="1229" y="135" on="0"/>
        <pt x="1243" y="0" on="1"/>
        <pt x="1104" y="6" on="0"/>
        <pt x="774" y="6" on="1"/>
        <pt x="295" y="6" on="0"/>
        <pt x="57" y="0" on="1"/>
        <pt x="57" y="41" on="1"/>
        <pt x="123" y="44" on="0"/>
        <pt x="182" y="70" on="0"/>
        <pt x="203" y="140" on="0"/>
        <pt x="203" y="217" on="1"/>
        <pt x="203" y="1233" on="1"/>
        <pt x="203" y="1310" on="0"/>
        <pt x="181" y="1380" on="0"/>
        <pt x="122" y="1406" on="0"/>
        <pt x="57" y="1409" on="1"/>
        <pt x="57" y="1450" on="1"/>
        <pt x="295" y="1444" on="0"/>
        <pt x="774" y="1444" on="1"/>
        <pt x="1075" y="1444" on="0"/>
        <pt x="1202" y="1450" on="1"/>
        <pt x="1188" y="1258" on="0"/>
        <pt x="1188" y="1106" on="1"/>
        <pt x="1188" y="1011" on="0"/>
        <pt x="1194" y="958" on="1"/>
        <pt x="1147" y="958" on="1"/>
        <pt x="1111" y="1196" on="0"/>
        <pt x="910" y="1403" on="0"/>
        <pt x="770" y="1403" on="1"/>
        <pt x="743" y="1403" on="1"/>
        <pt x="687" y="1403" on="0"/>
        <pt x="637" y="1385" on="0"/>
        <pt x="618" y="1332" on="0"/>
        <pt x="618" y="1274" on="1"/>
        <pt x="618" y="750" on="1"/>
        <pt x="639" y="750" on="1"/>
        <pt x="712" y="750" on="0"/>
        <pt x="829" y="832" on="0"/>
        <pt x="905" y="956" on="0"/>
        <pt x="918" y="1020" on="1"/>
        <pt x="965" y="1020" on="1"/>
        <pt x="957" y="900" on="0"/>
        <pt x="957" y="821" on="1"/>
        <pt x="958" y="729" on="1"/>
        <pt x="958" y="641" on="0"/>
        <pt x="971" y="438" on="1"/>
        <pt x="924" y="438" on="1"/>
        <pt x="911" y="515" on="0"/>
        <pt x="834" y="638" on="0"/>
        <pt x="714" y="709" on="0"/>
        <pt x="639" y="709" on="1"/>
        <pt x="618" y="709" on="1"/>
        <pt x="618" y="176" on="1"/>
        <pt x="618" y="117" on="0"/>
        <pt x="637" y="65" on="0"/>
        <pt x="687" y="47" on="0"/>
        <pt x="743" y="47" on="1"/>
        <pt x="811" y="47" on="1"/>
        <pt x="885" y="47" on="0"/>
        <pt x="1034" y="141" on="0"/>
        <pt x="1157" y="358" on="0"/>
        <pt x="1188" y="532" on="1"/>
        <pt x="1235" y="532" on="1"/>
        <pt x="1229" y="459" on="0"/>
        <pt x="1229" y="344" on="1"/>
      </contour>
    </TTGlyph>
    <TTGlyph name="Eacute" xMin="57" yMin="0" xMax="1243" yMax="1937">
      <component glyphName=".ttfautohint" x="57" y="0" flags="0x0"/>
      <component glyphName="E" x="0" y="0" flags="0x0"/>
      <component glyphName="acute.case" x="489" y="0" flags="0x0"/>
    </TTGlyph>
    <TTGlyph name="Ebreve" xMin="57" yMin="0" xMax="1243" yMax="1884">
      <component glyphName=".ttfautohint" x="57" y="0" flags="0x0"/>
      <component glyphName="E" x="0" y="0" flags="0x0"/>
      <component glyphName="breve.case" x="196" y="0" flags="0x0"/>
    </TTGlyph>
    <TTGlyph name="Ecaron" xMin="57" yMin="0" xMax="1243" yMax="1937">
      <component glyphName=".ttfautohint" x="57" y="0" flags="0x0"/>
      <component glyphName="E" x="0" y="0" flags="0x0"/>
      <component glyphName="caron.case" x="217" y="0" flags="0x0"/>
    </TTGlyph>
    <TTGlyph name="Ecircumflex" xMin="57" yMin="0" xMax="1243" yMax="1958">
      <component glyphName=".ttfautohint" x="57" y="0" flags="0x0"/>
      <component glyphName="E" x="0" y="0" flags="0x0"/>
      <component glyphName="circumflex.case" x="223" y="0" flags="0x0"/>
    </TTGlyph>
    <TTGlyph name="Edieresis" xMin="57" yMin="0" xMax="1243" yMax="1917">
      <component glyphName=".ttfautohint" x="57" y="0" flags="0x0"/>
      <component glyphName="E" x="0" y="0" flags="0x0"/>
      <component glyphName="dieresis.case" x="268" y="0" flags="0x0"/>
    </TTGlyph>
    <TTGlyph name="Edotaccent" xMin="57" yMin="0" xMax="1243" yMax="1909">
      <component glyphName=".ttfautohint" x="57" y="0" flags="0x0"/>
      <component glyphName="E" x="0" y="0" flags="0x0"/>
      <component glyphName="dotaccent.case" x="458" y="0" flags="0x0"/>
    </TTGlyph>
    <TTGlyph name="Egrave" xMin="57" yMin="0" xMax="1243" yMax="1937">
      <component glyphName=".ttfautohint" x="57" y="0" flags="0x0"/>
      <component glyphName="E" x="0" y="0" flags="0x0"/>
      <component glyphName="grave.case" x="270" y="0" flags="0x0"/>
    </TTGlyph>
    <TTGlyph name="Emacron" xMin="57" yMin="0" xMax="1243" yMax="1729">
      <component glyphName=".ttfautohint" x="57" y="0" flags="0x0"/>
      <component glyphName="E" x="0" y="0" flags="0x0"/>
      <component glyphName="macron.case" x="243" y="0" flags="0x0"/>
    </TTGlyph>
    <TTGlyph name="Eng" xMin="57" yMin="-385" xMax="1446" yMax="1450">
      <contour>
        <pt x="1384" y="1444" on="0"/>
        <pt x="1446" y="1450" on="1"/>
        <pt x="1446" y="1409" on="1"/>
        <pt x="1381" y="1406" on="0"/>
        <pt x="1322" y="1380" on="0"/>
        <pt x="1300" y="1310" on="0"/>
        <pt x="1300" y="1233" on="1"/>
        <pt x="1300" y="94" on="1"/>
        <pt x="1300" y="-97" on="0"/>
        <pt x="1233" y="-305" on="0"/>
        <pt x="1103" y="-385" on="0"/>
        <pt x="999" y="-385" on="1"/>
        <pt x="876" y="-385" on="0"/>
        <pt x="727" y="-291" on="0"/>
        <pt x="727" y="-197" on="1"/>
        <pt x="727" y="-121" on="0"/>
        <pt x="836" y="-35" on="0"/>
        <pt x="928" y="-35" on="1"/>
        <pt x="1013" y="-35" on="0"/>
        <pt x="1112" y="-112" on="0"/>
        <pt x="1112" y="-182" on="1"/>
        <pt x="1112" y="-235" on="0"/>
        <pt x="1053" y="-320" on="0"/>
        <pt x="993" y="-342" on="1"/>
        <pt x="1006" y="-344" on="0"/>
        <pt x="1030" y="-344" on="1"/>
        <pt x="1139" y="-344" on="0"/>
        <pt x="1245" y="-178" on="0"/>
        <pt x="1252" y="3" on="1"/>
        <pt x="1209" y="4" on="0"/>
        <pt x="1157" y="0" on="1"/>
        <pt x="250" y="991" on="1"/>
        <pt x="250" y="217" on="1"/>
        <pt x="250" y="140" on="0"/>
        <pt x="275" y="70" on="0"/>
        <pt x="342" y="44" on="0"/>
        <pt x="416" y="41" on="1"/>
        <pt x="416" y="0" on="1"/>
        <pt x="342" y="6" on="0"/>
        <pt x="227" y="6" on="1"/>
        <pt x="119" y="6" on="0"/>
        <pt x="57" y="0" on="1"/>
        <pt x="57" y="41" on="1"/>
        <pt x="122" y="44" on="0"/>
        <pt x="181" y="70" on="0"/>
        <pt x="203" y="140" on="0"/>
        <pt x="203" y="217" on="1"/>
        <pt x="203" y="1233" on="1"/>
        <pt x="203" y="1310" on="0"/>
        <pt x="181" y="1380" on="0"/>
        <pt x="122" y="1406" on="0"/>
        <pt x="57" y="1409" on="1"/>
        <pt x="57" y="1450" on="1"/>
        <pt x="118" y="1444" on="0"/>
        <pt x="227" y="1444" on="1"/>
        <pt x="339" y="1444" on="0"/>
        <pt x="416" y="1450" on="1"/>
        <pt x="1253" y="565" on="1"/>
        <pt x="1253" y="1233" on="1"/>
        <pt x="1253" y="1310" on="0"/>
        <pt x="1228" y="1380" on="0"/>
        <pt x="1161" y="1406" on="0"/>
        <pt x="1087" y="1409" on="1"/>
        <pt x="1087" y="1450" on="1"/>
        <pt x="1162" y="1444" on="0"/>
        <pt x="1276" y="1444" on="1"/>
      </contour>
    </TTGlyph>
    <TTGlyph name="Eogonek" xMin="57" yMin="-385" xMax="1248" yMax="1450">
      <contour>
        <pt x="1188" y="-320" on="0"/>
        <pt x="1041" y="-385" on="0"/>
        <pt x="934" y="-385" on="1"/>
        <pt x="835" y="-385" on="0"/>
        <pt x="732" y="-310" on="0"/>
        <pt x="732" y="-240" on="1"/>
        <pt x="732" y="-154" on="0"/>
        <pt x="945" y="-31" on="0"/>
        <pt x="1141" y="3" on="1"/>
        <pt x="1019" y="6" on="0"/>
        <pt x="774" y="6" on="1"/>
        <pt x="295" y="6" on="0"/>
        <pt x="57" y="0" on="1"/>
        <pt x="57" y="41" on="1"/>
        <pt x="123" y="44" on="0"/>
        <pt x="182" y="70" on="0"/>
        <pt x="203" y="140" on="0"/>
        <pt x="203" y="217" on="1"/>
        <pt x="203" y="1233" on="1"/>
        <pt x="203" y="1310" on="0"/>
        <pt x="181" y="1380" on="0"/>
        <pt x="122" y="1406" on="0"/>
        <pt x="57" y="1409" on="1"/>
        <pt x="57" y="1450" on="1"/>
        <pt x="295" y="1444" on="0"/>
        <pt x="774" y="1444" on="1"/>
        <pt x="1075" y="1444" on="0"/>
        <pt x="1202" y="1450" on="1"/>
        <pt x="1188" y="1258" on="0"/>
        <pt x="1188" y="1106" on="1"/>
        <pt x="1188" y="1010" on="0"/>
        <pt x="1194" y="958" on="1"/>
        <pt x="1147" y="958" on="1"/>
        <pt x="1111" y="1196" on="0"/>
        <pt x="910" y="1403" on="0"/>
        <pt x="770" y="1403" on="1"/>
        <pt x="743" y="1403" on="1"/>
        <pt x="687" y="1403" on="0"/>
        <pt x="637" y="1385" on="0"/>
        <pt x="618" y="1332" on="0"/>
        <pt x="618" y="1274" on="1"/>
        <pt x="618" y="750" on="1"/>
        <pt x="639" y="750" on="1"/>
        <pt x="712" y="750" on="0"/>
        <pt x="829" y="832" on="0"/>
        <pt x="905" y="956" on="0"/>
        <pt x="918" y="1020" on="1"/>
        <pt x="965" y="1020" on="1"/>
        <pt x="957" y="900" on="0"/>
        <pt x="957" y="821" on="1"/>
        <pt x="958" y="729" on="1"/>
        <pt x="958" y="641" on="0"/>
        <pt x="971" y="438" on="1"/>
        <pt x="924" y="438" on="1"/>
        <pt x="911" y="515" on="0"/>
        <pt x="834" y="638" on="0"/>
        <pt x="714" y="709" on="0"/>
        <pt x="639" y="709" on="1"/>
        <pt x="618" y="709" on="1"/>
        <pt x="618" y="176" on="1"/>
        <pt x="618" y="117" on="0"/>
        <pt x="637" y="65" on="0"/>
        <pt x="687" y="47" on="0"/>
        <pt x="743" y="47" on="1"/>
        <pt x="811" y="47" on="1"/>
        <pt x="885" y="47" on="0"/>
        <pt x="1034" y="141" on="0"/>
        <pt x="1157" y="358" on="0"/>
        <pt x="1188" y="532" on="1"/>
        <pt x="1235" y="532" on="1"/>
        <pt x="1229" y="458" on="0"/>
        <pt x="1229" y="344" on="1"/>
        <pt x="1229" y="135" on="0"/>
        <pt x="1243" y="0" on="1"/>
        <pt x="1220" y="1" on="1"/>
        <pt x="1109" y="-38" on="0"/>
        <pt x="1004" y="-138" on="0"/>
        <pt x="1004" y="-184" on="1"/>
        <pt x="1004" y="-225" on="0"/>
        <pt x="1044" y="-262" on="0"/>
        <pt x="1086" y="-262" on="1"/>
        <pt x="1120" y="-262" on="0"/>
        <pt x="1198" y="-235" on="0"/>
        <pt x="1221" y="-215" on="1"/>
        <pt x="1248" y="-246" on="1"/>
      </contour>
    </TTGlyph>
    <TTGlyph name="Eth" xMin="57" yMin="0" xMax="1585" yMax="1450">
      <contour>
        <pt x="1164" y="1450" on="0"/>
        <pt x="1585" y="1088" on="0"/>
        <pt x="1585" y="741" on="1"/>
        <pt x="1585" y="518" on="0"/>
        <pt x="1379" y="183" on="0"/>
        <pt x="990" y="0" on="0"/>
        <pt x="721" y="0" on="1"/>
        <pt x="670" y="0" on="0"/>
        <pt x="593" y="3" on="1"/>
        <pt x="410" y="6" on="0"/>
        <pt x="414" y="6" on="1"/>
        <pt x="174" y="6" on="0"/>
        <pt x="57" y="0" on="1"/>
        <pt x="57" y="41" on="1"/>
        <pt x="123" y="44" on="0"/>
        <pt x="182" y="70" on="0"/>
        <pt x="203" y="140" on="0"/>
        <pt x="203" y="217" on="1"/>
        <pt x="203" y="709" on="1"/>
        <pt x="57" y="709" on="1"/>
        <pt x="57" y="750" on="1"/>
        <pt x="203" y="750" on="1"/>
        <pt x="203" y="1233" on="1"/>
        <pt x="203" y="1310" on="0"/>
        <pt x="181" y="1380" on="0"/>
        <pt x="122" y="1406" on="0"/>
        <pt x="57" y="1409" on="1"/>
        <pt x="57" y="1450" on="1"/>
        <pt x="206" y="1443" on="0"/>
        <pt x="337" y="1443" on="1"/>
        <pt x="410" y="1444" on="1"/>
        <pt x="500" y="1446" on="1"/>
        <pt x="668" y="1450" on="0"/>
        <pt x="739" y="1450" on="1"/>
      </contour>
      <contour>
        <pt x="975" y="37" on="0"/>
        <pt x="1155" y="387" on="0"/>
        <pt x="1155" y="733" on="1"/>
        <pt x="1155" y="1080" on="0"/>
        <pt x="969" y="1413" on="0"/>
        <pt x="770" y="1413" on="1"/>
        <pt x="706" y="1413" on="0"/>
        <pt x="642" y="1384" on="0"/>
        <pt x="618" y="1310" on="0"/>
        <pt x="618" y="1237" on="1"/>
        <pt x="618" y="750" on="1"/>
        <pt x="852" y="750" on="1"/>
        <pt x="852" y="709" on="1"/>
        <pt x="618" y="709" on="1"/>
        <pt x="618" y="213" on="1"/>
        <pt x="618" y="139" on="0"/>
        <pt x="642" y="66" on="0"/>
        <pt x="707" y="37" on="0"/>
        <pt x="772" y="37" on="1"/>
      </contour>
    </TTGlyph>
    <TTGlyph name="Euro" xMin="61" yMin="-29" xMax="1292" yMax="1479">
      <contour>
        <pt x="1183" y="342" on="0"/>
        <pt x="1292" y="256" on="0"/>
        <pt x="1292" y="184" on="1"/>
        <pt x="1292" y="135" on="0"/>
        <pt x="1237" y="54" on="0"/>
        <pt x="1188" y="33" on="1"/>
        <pt x="1053" y="-29" on="0"/>
        <pt x="868" y="-29" on="1"/>
        <pt x="681" y="-29" on="0"/>
        <pt x="399" y="121" on="0"/>
        <pt x="231" y="407" on="0"/>
        <pt x="213" y="608" on="1"/>
        <pt x="61" y="608" on="1"/>
        <pt x="61" y="649" on="1"/>
        <pt x="211" y="649" on="1"/>
        <pt x="209" y="691" on="0"/>
        <pt x="209" y="713" on="1"/>
        <pt x="209" y="760" on="0"/>
        <pt x="214" y="813" on="1"/>
        <pt x="61" y="813" on="1"/>
        <pt x="61" y="854" on="1"/>
        <pt x="219" y="854" on="1"/>
        <pt x="245" y="1041" on="0"/>
        <pt x="428" y="1324" on="0"/>
        <pt x="704" y="1479" on="0"/>
        <pt x="868" y="1479" on="1"/>
        <pt x="977" y="1479" on="0"/>
        <pt x="1128" y="1451" on="0"/>
        <pt x="1188" y="1417" on="1"/>
        <pt x="1292" y="1357" on="0"/>
        <pt x="1292" y="1266" on="1"/>
        <pt x="1292" y="1194" on="0"/>
        <pt x="1183" y="1108" on="0"/>
        <pt x="1092" y="1108" on="1"/>
        <pt x="1005" y="1108" on="0"/>
        <pt x="907" y="1186" on="0"/>
        <pt x="907" y="1260" on="1"/>
        <pt x="907" y="1307" on="0"/>
        <pt x="977" y="1401" on="0"/>
        <pt x="1036" y="1423" on="1"/>
        <pt x="982" y="1440" on="0"/>
        <pt x="903" y="1440" on="1"/>
        <pt x="772" y="1440" on="0"/>
        <pt x="616" y="1131" on="0"/>
        <pt x="601" y="854" on="1"/>
        <pt x="1020" y="854" on="1"/>
        <pt x="997" y="813" on="1"/>
        <pt x="600" y="813" on="1"/>
        <pt x="598" y="753" on="0"/>
        <pt x="598" y="721" on="1"/>
        <pt x="599" y="649" on="1"/>
        <pt x="905" y="649" on="1"/>
        <pt x="881" y="608" on="1"/>
        <pt x="600" y="608" on="1"/>
        <pt x="611" y="311" on="0"/>
        <pt x="756" y="10" on="0"/>
        <pt x="903" y="10" on="1"/>
        <pt x="982" y="10" on="0"/>
        <pt x="1036" y="27" on="1"/>
        <pt x="976" y="48" on="0"/>
        <pt x="907" y="143" on="0"/>
        <pt x="907" y="190" on="1"/>
        <pt x="907" y="264" on="0"/>
        <pt x="1005" y="342" on="0"/>
        <pt x="1092" y="342" on="1"/>
      </contour>
    </TTGlyph>
    <TTGlyph name="Euro.smcp" xMin="61" yMin="-29" xMax="1292" yMax="1274">
      <contour>
        <pt x="1183" y="342" on="0"/>
        <pt x="1292" y="256" on="0"/>
        <pt x="1292" y="184" on="1"/>
        <pt x="1292" y="135" on="0"/>
        <pt x="1237" y="54" on="0"/>
        <pt x="1188" y="33" on="1"/>
        <pt x="1053" y="-29" on="0"/>
        <pt x="868" y="-29" on="1"/>
        <pt x="683" y="-29" on="0"/>
        <pt x="403" y="96" on="0"/>
        <pt x="235" y="336" on="0"/>
        <pt x="215" y="506" on="1"/>
        <pt x="61" y="506" on="1"/>
        <pt x="61" y="547" on="1"/>
        <pt x="211" y="547" on="1"/>
        <pt x="209" y="589" on="0"/>
        <pt x="209" y="610" on="1"/>
        <pt x="209" y="661" on="0"/>
        <pt x="215" y="711" on="1"/>
        <pt x="61" y="711" on="1"/>
        <pt x="61" y="752" on="1"/>
        <pt x="222" y="752" on="1"/>
        <pt x="252" y="909" on="0"/>
        <pt x="435" y="1145" on="0"/>
        <pt x="708" y="1274" on="0"/>
        <pt x="868" y="1274" on="1"/>
        <pt x="978" y="1274" on="0"/>
        <pt x="1129" y="1247" on="0"/>
        <pt x="1188" y="1212" on="1"/>
        <pt x="1236" y="1185" on="0"/>
        <pt x="1292" y="1108" on="0"/>
        <pt x="1292" y="1061" on="1"/>
        <pt x="1292" y="989" on="0"/>
        <pt x="1182" y="903" on="0"/>
        <pt x="1092" y="903" on="1"/>
        <pt x="1005" y="903" on="0"/>
        <pt x="907" y="981" on="0"/>
        <pt x="907" y="1055" on="1"/>
        <pt x="907" y="1102" on="0"/>
        <pt x="977" y="1197" on="0"/>
        <pt x="1036" y="1219" on="1"/>
        <pt x="966" y="1235" on="0"/>
        <pt x="903" y="1235" on="1"/>
        <pt x="774" y="1235" on="0"/>
        <pt x="620" y="982" on="0"/>
        <pt x="603" y="752" on="1"/>
        <pt x="1020" y="752" on="1"/>
        <pt x="997" y="711" on="1"/>
        <pt x="600" y="711" on="1"/>
        <pt x="598" y="651" on="0"/>
        <pt x="598" y="618" on="1"/>
        <pt x="598" y="570" on="0"/>
        <pt x="599" y="547" on="1"/>
        <pt x="905" y="547" on="1"/>
        <pt x="881" y="506" on="1"/>
        <pt x="601" y="506" on="1"/>
        <pt x="612" y="258" on="0"/>
        <pt x="758" y="10" on="0"/>
        <pt x="903" y="10" on="1"/>
        <pt x="982" y="10" on="0"/>
        <pt x="1036" y="27" on="1"/>
        <pt x="976" y="48" on="0"/>
        <pt x="907" y="143" on="0"/>
        <pt x="907" y="190" on="1"/>
        <pt x="907" y="264" on="0"/>
        <pt x="1005" y="342" on="0"/>
        <pt x="1092" y="342" on="1"/>
      </contour>
    </TTGlyph>
    <TTGlyph name="F" xMin="57" yMin="0" xMax="1202" yMax="1450">
      <contour>
        <pt x="1188" y="1258" on="0"/>
        <pt x="1188" y="1106" on="1"/>
        <pt x="1188" y="1011" on="0"/>
        <pt x="1194" y="958" on="1"/>
        <pt x="1147" y="958" on="1"/>
        <pt x="1097" y="1195" on="0"/>
        <pt x="895" y="1403" on="0"/>
        <pt x="770" y="1403" on="1"/>
        <pt x="743" y="1403" on="1"/>
        <pt x="687" y="1403" on="0"/>
        <pt x="637" y="1385" on="0"/>
        <pt x="618" y="1332" on="0"/>
        <pt x="618" y="1274" on="1"/>
        <pt x="618" y="750" on="1"/>
        <pt x="639" y="750" on="1"/>
        <pt x="712" y="750" on="0"/>
        <pt x="829" y="832" on="0"/>
        <pt x="905" y="956" on="0"/>
        <pt x="918" y="1020" on="1"/>
        <pt x="965" y="1020" on="1"/>
        <pt x="957" y="900" on="0"/>
        <pt x="957" y="821" on="1"/>
        <pt x="958" y="729" on="1"/>
        <pt x="958" y="641" on="0"/>
        <pt x="971" y="438" on="1"/>
        <pt x="924" y="438" on="1"/>
        <pt x="911" y="515" on="0"/>
        <pt x="834" y="638" on="0"/>
        <pt x="714" y="709" on="0"/>
        <pt x="639" y="709" on="1"/>
        <pt x="618" y="709" on="1"/>
        <pt x="618" y="238" on="1"/>
        <pt x="618" y="152" on="0"/>
        <pt x="653" y="73" on="0"/>
        <pt x="746" y="47" on="0"/>
        <pt x="846" y="47" on="1"/>
        <pt x="846" y="0" on="1"/>
        <pt x="826" y="0" on="0"/>
        <pt x="815" y="1" on="1"/>
        <pt x="580" y="6" on="0"/>
        <pt x="424" y="6" on="1"/>
        <pt x="329" y="6" on="0"/>
        <pt x="157" y="2" on="1"/>
        <pt x="57" y="0" on="1"/>
        <pt x="57" y="41" on="1"/>
        <pt x="123" y="44" on="0"/>
        <pt x="182" y="70" on="0"/>
        <pt x="203" y="140" on="0"/>
        <pt x="203" y="217" on="1"/>
        <pt x="203" y="1233" on="1"/>
        <pt x="203" y="1310" on="0"/>
        <pt x="181" y="1380" on="0"/>
        <pt x="122" y="1406" on="0"/>
        <pt x="57" y="1409" on="1"/>
        <pt x="57" y="1450" on="1"/>
        <pt x="295" y="1444" on="0"/>
        <pt x="774" y="1444" on="1"/>
        <pt x="1075" y="1444" on="0"/>
        <pt x="1202" y="1450" on="1"/>
      </contour>
    </TTGlyph>
    <TTGlyph name="G" xMin="74" yMin="-29" xMax="1518" yMax="1479">
      <contour>
        <pt x="1000" y="1479" on="0"/>
        <pt x="1187" y="1409" on="0"/>
        <pt x="1266" y="1346" on="1"/>
        <pt x="1286" y="1327" on="0"/>
        <pt x="1307" y="1327" on="1"/>
        <pt x="1328" y="1327" on="0"/>
        <pt x="1352" y="1386" on="0"/>
        <pt x="1358" y="1450" on="1"/>
        <pt x="1405" y="1450" on="1"/>
        <pt x="1397" y="1305" on="0"/>
        <pt x="1397" y="938" on="1"/>
        <pt x="1350" y="938" on="1"/>
        <pt x="1340" y="1045" on="0"/>
        <pt x="1302" y="1193" on="0"/>
        <pt x="1226" y="1309" on="0"/>
        <pt x="1161" y="1354" on="1"/>
        <pt x="1119" y="1383" on="0"/>
        <pt x="1005" y="1415" on="0"/>
        <pt x="950" y="1415" on="1"/>
        <pt x="803" y="1415" on="0"/>
        <pt x="621" y="1208" on="0"/>
        <pt x="545" y="893" on="0"/>
        <pt x="545" y="721" on="1"/>
        <pt x="545" y="364" on="0"/>
        <pt x="720" y="12" on="0"/>
        <pt x="874" y="12" on="1"/>
        <pt x="938" y="12" on="0"/>
        <pt x="975" y="37" on="1"/>
        <pt x="1018" y="67" on="0"/>
        <pt x="1018" y="139" on="1"/>
        <pt x="1018" y="344" on="1"/>
        <pt x="1018" y="447" on="0"/>
        <pt x="986" y="542" on="0"/>
        <pt x="902" y="578" on="0"/>
        <pt x="811" y="582" on="1"/>
        <pt x="811" y="623" on="1"/>
        <pt x="940" y="616" on="0"/>
        <pt x="1202" y="616" on="1"/>
        <pt x="1420" y="616" on="0"/>
        <pt x="1518" y="623" on="1"/>
        <pt x="1518" y="582" on="1"/>
        <pt x="1480" y="578" on="0"/>
        <pt x="1447" y="553" on="0"/>
        <pt x="1434" y="483" on="0"/>
        <pt x="1434" y="406" on="1"/>
        <pt x="1434" y="0" on="1"/>
        <pt x="1393" y="0" on="1"/>
        <pt x="1391" y="43" on="0"/>
        <pt x="1358" y="117" on="0"/>
        <pt x="1329" y="117" on="1"/>
        <pt x="1286" y="117" on="0"/>
        <pt x="1190" y="70" on="1"/>
        <pt x="986" y="-29" on="0"/>
        <pt x="844" y="-29" on="1"/>
        <pt x="590" y="-29" on="0"/>
        <pt x="246" y="146" on="0"/>
        <pt x="74" y="478" on="0"/>
        <pt x="74" y="713" on="1"/>
        <pt x="74" y="939" on="0"/>
        <pt x="276" y="1287" on="0"/>
        <pt x="637" y="1479" on="0"/>
        <pt x="868" y="1479" on="1"/>
      </contour>
    </TTGlyph>
    <TTGlyph name="Gacute" xMin="74" yMin="-29" xMax="1518" yMax="1937">
      <component glyphName=".ttfautohint" x="74" y="0" flags="0x0"/>
      <component glyphName="G" x="0" y="0" flags="0x0"/>
      <component glyphName="acute.case" x="659" y="0" flags="0x0"/>
    </TTGlyph>
    <TTGlyph name="Gbreve" xMin="74" yMin="-29" xMax="1518" yMax="1884">
      <component glyphName=".ttfautohint" x="74" y="0" flags="0x0"/>
      <component glyphName="G" x="0" y="0" flags="0x0"/>
      <component glyphName="breve.case" x="366" y="0" flags="0x0"/>
    </TTGlyph>
    <TTGlyph name="Gcircumflex" xMin="74" yMin="-29" xMax="1518" yMax="1958">
      <component glyphName=".ttfautohint" x="74" y="0" flags="0x0"/>
      <component glyphName="G" x="0" y="0" flags="0x0"/>
      <component glyphName="circumflex.case" x="393" y="0" flags="0x0"/>
    </TTGlyph>
    <TTGlyph name="Gcommaaccent" xMin="74" yMin="-502" xMax="1518" yMax="1479">
      <component glyphName=".ttfautohint" x="74" y="0" flags="0x0"/>
      <component glyphName="G" x="0" y="0" flags="0x0"/>
      <component glyphName="commaaccentcomb.case" x="643" y="0" flags="0x0"/>
    </TTGlyph>
    <TTGlyph name="Gdotaccent" xMin="74" yMin="-29" xMax="1518" yMax="1909">
      <component glyphName=".ttfautohint" x="74" y="0" flags="0x0"/>
      <component glyphName="G" x="0" y="0" flags="0x0"/>
      <component glyphName="dotaccent.case" x="655" y="0" flags="0x0"/>
    </TTGlyph>
    <TTGlyph name="H" xMin="57" yMin="0" xMax="1640" yMax="1450">
      <contour>
        <pt x="1574" y="1406" on="0"/>
        <pt x="1516" y="1380" on="0"/>
        <pt x="1495" y="1310" on="0"/>
        <pt x="1495" y="1233" on="1"/>
        <pt x="1495" y="217" on="1"/>
        <pt x="1495" y="140" on="0"/>
        <pt x="1517" y="70" on="0"/>
        <pt x="1575" y="44" on="0"/>
        <pt x="1640" y="41" on="1"/>
        <pt x="1640" y="0" on="1"/>
        <pt x="1531" y="6" on="0"/>
        <pt x="1296" y="6" on="1"/>
        <pt x="1060" y="6" on="0"/>
        <pt x="934" y="0" on="1"/>
        <pt x="934" y="41" on="1"/>
        <pt x="1000" y="44" on="0"/>
        <pt x="1058" y="70" on="0"/>
        <pt x="1079" y="139" on="0"/>
        <pt x="1079" y="217" on="1"/>
        <pt x="1079" y="709" on="1"/>
        <pt x="618" y="709" on="1"/>
        <pt x="618" y="217" on="1"/>
        <pt x="618" y="140" on="0"/>
        <pt x="640" y="70" on="0"/>
        <pt x="699" y="44" on="0"/>
        <pt x="764" y="41" on="1"/>
        <pt x="764" y="0" on="1"/>
        <pt x="644" y="6" on="0"/>
        <pt x="422" y="6" on="1"/>
        <pt x="174" y="6" on="0"/>
        <pt x="57" y="0" on="1"/>
        <pt x="57" y="41" on="1"/>
        <pt x="123" y="44" on="0"/>
        <pt x="182" y="70" on="0"/>
        <pt x="203" y="140" on="0"/>
        <pt x="203" y="217" on="1"/>
        <pt x="203" y="1233" on="1"/>
        <pt x="203" y="1310" on="0"/>
        <pt x="181" y="1380" on="0"/>
        <pt x="122" y="1406" on="0"/>
        <pt x="57" y="1409" on="1"/>
        <pt x="57" y="1450" on="1"/>
        <pt x="174" y="1444" on="0"/>
        <pt x="422" y="1444" on="1"/>
        <pt x="644" y="1444" on="0"/>
        <pt x="764" y="1450" on="1"/>
        <pt x="764" y="1409" on="1"/>
        <pt x="698" y="1406" on="0"/>
        <pt x="639" y="1380" on="0"/>
        <pt x="618" y="1310" on="0"/>
        <pt x="618" y="1233" on="1"/>
        <pt x="618" y="750" on="1"/>
        <pt x="1079" y="750" on="1"/>
        <pt x="1079" y="1233" on="1"/>
        <pt x="1079" y="1310" on="0"/>
        <pt x="1058" y="1380" on="0"/>
        <pt x="999" y="1406" on="0"/>
        <pt x="934" y="1409" on="1"/>
        <pt x="934" y="1450" on="1"/>
        <pt x="1060" y="1444" on="0"/>
        <pt x="1296" y="1444" on="1"/>
        <pt x="1530" y="1444" on="0"/>
        <pt x="1640" y="1450" on="1"/>
        <pt x="1640" y="1409" on="1"/>
      </contour>
    </TTGlyph>
    <TTGlyph name="Hbar" xMin="57" yMin="0" xMax="1640" yMax="1450">
      <contour>
        <pt x="1574" y="1406" on="0"/>
        <pt x="1516" y="1380" on="0"/>
        <pt x="1495" y="1310" on="0"/>
        <pt x="1495" y="1233" on="1"/>
        <pt x="1495" y="1092" on="1"/>
        <pt x="1640" y="1092" on="1"/>
        <pt x="1640" y="1051" on="1"/>
        <pt x="1495" y="1051" on="1"/>
        <pt x="1495" y="217" on="1"/>
        <pt x="1495" y="140" on="0"/>
        <pt x="1517" y="70" on="0"/>
        <pt x="1575" y="44" on="0"/>
        <pt x="1640" y="41" on="1"/>
        <pt x="1640" y="0" on="1"/>
        <pt x="1531" y="6" on="0"/>
        <pt x="1296" y="6" on="1"/>
        <pt x="1060" y="6" on="0"/>
        <pt x="934" y="0" on="1"/>
        <pt x="934" y="41" on="1"/>
        <pt x="1000" y="44" on="0"/>
        <pt x="1058" y="70" on="0"/>
        <pt x="1079" y="139" on="0"/>
        <pt x="1079" y="217" on="1"/>
        <pt x="1079" y="709" on="1"/>
        <pt x="618" y="709" on="1"/>
        <pt x="618" y="217" on="1"/>
        <pt x="618" y="140" on="0"/>
        <pt x="640" y="70" on="0"/>
        <pt x="699" y="44" on="0"/>
        <pt x="764" y="41" on="1"/>
        <pt x="764" y="0" on="1"/>
        <pt x="644" y="6" on="0"/>
        <pt x="422" y="6" on="1"/>
        <pt x="174" y="6" on="0"/>
        <pt x="57" y="0" on="1"/>
        <pt x="57" y="41" on="1"/>
        <pt x="123" y="44" on="0"/>
        <pt x="182" y="70" on="0"/>
        <pt x="203" y="140" on="0"/>
        <pt x="203" y="217" on="1"/>
        <pt x="203" y="1051" on="1"/>
        <pt x="57" y="1051" on="1"/>
        <pt x="57" y="1092" on="1"/>
        <pt x="203" y="1092" on="1"/>
        <pt x="203" y="1233" on="1"/>
        <pt x="203" y="1310" on="0"/>
        <pt x="181" y="1380" on="0"/>
        <pt x="122" y="1406" on="0"/>
        <pt x="57" y="1409" on="1"/>
        <pt x="57" y="1450" on="1"/>
        <pt x="174" y="1444" on="0"/>
        <pt x="422" y="1444" on="1"/>
        <pt x="644" y="1444" on="0"/>
        <pt x="764" y="1450" on="1"/>
        <pt x="764" y="1409" on="1"/>
        <pt x="698" y="1406" on="0"/>
        <pt x="639" y="1380" on="0"/>
        <pt x="618" y="1310" on="0"/>
        <pt x="618" y="1233" on="1"/>
        <pt x="618" y="1092" on="1"/>
        <pt x="1079" y="1092" on="1"/>
        <pt x="1079" y="1233" on="1"/>
        <pt x="1079" y="1310" on="0"/>
        <pt x="1058" y="1380" on="0"/>
        <pt x="999" y="1406" on="0"/>
        <pt x="934" y="1409" on="1"/>
        <pt x="934" y="1450" on="1"/>
        <pt x="1060" y="1444" on="0"/>
        <pt x="1296" y="1444" on="1"/>
        <pt x="1530" y="1444" on="0"/>
        <pt x="1640" y="1450" on="1"/>
        <pt x="1640" y="1409" on="1"/>
      </contour>
      <contour>
        <pt x="618" y="1051" on="1"/>
        <pt x="618" y="750" on="1"/>
        <pt x="1079" y="750" on="1"/>
        <pt x="1079" y="1051" on="1"/>
      </contour>
    </TTGlyph>
    <TTGlyph name="Hcircumflex" xMin="57" yMin="0" xMax="1640" yMax="1958">
      <component glyphName=".ttfautohint" x="57" y="0" flags="0x0"/>
      <component glyphName="H" x="0" y="0" flags="0x0"/>
      <component glyphName="circumflex.case" x="422" y="0" flags="0x0"/>
    </TTGlyph>
    <TTGlyph name="I" xMin="57" yMin="0" xMax="764" yMax="1450">
      <contour>
        <pt x="698" y="1406" on="0"/>
        <pt x="639" y="1380" on="0"/>
        <pt x="618" y="1310" on="0"/>
        <pt x="618" y="1233" on="1"/>
        <pt x="618" y="217" on="1"/>
        <pt x="618" y="140" on="0"/>
        <pt x="640" y="70" on="0"/>
        <pt x="699" y="44" on="0"/>
        <pt x="764" y="41" on="1"/>
        <pt x="764" y="0" on="1"/>
        <pt x="644" y="6" on="0"/>
        <pt x="422" y="6" on="1"/>
        <pt x="174" y="6" on="0"/>
        <pt x="57" y="0" on="1"/>
        <pt x="57" y="41" on="1"/>
        <pt x="123" y="44" on="0"/>
        <pt x="182" y="70" on="0"/>
        <pt x="203" y="140" on="0"/>
        <pt x="203" y="217" on="1"/>
        <pt x="203" y="1233" on="1"/>
        <pt x="203" y="1310" on="0"/>
        <pt x="181" y="1380" on="0"/>
        <pt x="122" y="1406" on="0"/>
        <pt x="57" y="1409" on="1"/>
        <pt x="57" y="1450" on="1"/>
        <pt x="174" y="1444" on="0"/>
        <pt x="422" y="1444" on="1"/>
        <pt x="644" y="1444" on="0"/>
        <pt x="764" y="1450" on="1"/>
        <pt x="764" y="1409" on="1"/>
      </contour>
    </TTGlyph>
    <TTGlyph name="IJ" xMin="57" yMin="-385" xMax="1590" yMax="1450">
      <component glyphName=".ttfautohint" x="57" y="0" flags="0x0"/>
      <component glyphName="I" x="0" y="0" flags="0x0"/>
      <component glyphName="J" x="836" y="0" flags="0x0"/>
    </TTGlyph>
    <TTGlyph name="Iacute" xMin="57" yMin="0" xMax="784" yMax="1937">
      <component glyphName=".ttfautohint" x="57" y="0" flags="0x0"/>
      <component glyphName="I" x="0" y="0" flags="0x0"/>
      <component glyphName="acute.case" x="256" y="0" flags="0x0"/>
    </TTGlyph>
    <TTGlyph name="Ibreve" xMin="-88" yMin="0" xMax="891" yMax="1884">
      <component glyphName=".ttfautohint" x="0" y="0" flags="0x0"/>
      <component glyphName="I" x="0" y="0" flags="0x0"/>
      <component glyphName="breve.case" x="-37" y="0" flags="0x0"/>
    </TTGlyph>
    <TTGlyph name="Icircumflex" xMin="-41" yMin="0" xMax="885" yMax="1958">
      <component glyphName=".ttfautohint" x="0" y="0" flags="0x0"/>
      <component glyphName="I" x="0" y="0" flags="0x0"/>
      <component glyphName="circumflex.case" x="-10" y="0" flags="0x0"/>
    </TTGlyph>
    <TTGlyph name="Idieresis" xMin="-20" yMin="0" xMax="864" yMax="1917">
      <component glyphName=".ttfautohint" x="0" y="0" flags="0x0"/>
      <component glyphName="I" x="0" y="0" flags="0x0"/>
      <component glyphName="dieresis.case" x="35" y="0" flags="0x0"/>
    </TTGlyph>
    <TTGlyph name="Idotaccent" xMin="57" yMin="0" xMax="764" yMax="1999">
      <component glyphName=".ttfautohint" x="57" y="0" flags="0x0"/>
      <component glyphName="I" x="0" y="0" flags="0x0"/>
      <component glyphName="dotaccent" x="219" y="397" flags="0x0"/>
    </TTGlyph>
    <TTGlyph name="Igrave" xMin="31" yMin="0" xMax="764" yMax="1937">
      <component glyphName=".ttfautohint" x="31" y="0" flags="0x0"/>
      <component glyphName="I" x="0" y="0" flags="0x0"/>
      <component glyphName="grave.case" x="37" y="0" flags="0x0"/>
    </TTGlyph>
    <TTGlyph name="Imacron" xMin="-21" yMin="0" xMax="864" yMax="1729">
      <component glyphName=".ttfautohint" x="0" y="0" flags="0x0"/>
      <component glyphName="I" x="0" y="0" flags="0x0"/>
      <component glyphName="macron.case" x="10" y="0" flags="0x0"/>
    </TTGlyph>
    <TTGlyph name="Iogonek" xMin="57" yMin="-385" xMax="764" yMax="1450">
      <contour>
        <pt x="698" y="1406" on="0"/>
        <pt x="639" y="1380" on="0"/>
        <pt x="618" y="1310" on="0"/>
        <pt x="618" y="1233" on="1"/>
        <pt x="618" y="217" on="1"/>
        <pt x="618" y="140" on="0"/>
        <pt x="640" y="70" on="0"/>
        <pt x="699" y="44" on="0"/>
        <pt x="764" y="41" on="1"/>
        <pt x="764" y="0" on="1"/>
        <pt x="713" y="2" on="1"/>
        <pt x="601" y="-37" on="0"/>
        <pt x="494" y="-137" on="0"/>
        <pt x="494" y="-184" on="1"/>
        <pt x="494" y="-225" on="0"/>
        <pt x="534" y="-262" on="0"/>
        <pt x="576" y="-262" on="1"/>
        <pt x="610" y="-262" on="0"/>
        <pt x="688" y="-235" on="0"/>
        <pt x="711" y="-215" on="1"/>
        <pt x="738" y="-246" on="1"/>
        <pt x="678" y="-320" on="0"/>
        <pt x="531" y="-385" on="0"/>
        <pt x="424" y="-385" on="1"/>
        <pt x="325" y="-385" on="0"/>
        <pt x="222" y="-310" on="0"/>
        <pt x="222" y="-240" on="1"/>
        <pt x="222" y="-154" on="0"/>
        <pt x="438" y="-30" on="0"/>
        <pt x="636" y="4" on="1"/>
        <pt x="504" y="6" on="0"/>
        <pt x="422" y="6" on="1"/>
        <pt x="174" y="6" on="0"/>
        <pt x="57" y="0" on="1"/>
        <pt x="57" y="41" on="1"/>
        <pt x="123" y="44" on="0"/>
        <pt x="182" y="70" on="0"/>
        <pt x="203" y="140" on="0"/>
        <pt x="203" y="217" on="1"/>
        <pt x="203" y="1233" on="1"/>
        <pt x="203" y="1310" on="0"/>
        <pt x="181" y="1380" on="0"/>
        <pt x="122" y="1406" on="0"/>
        <pt x="57" y="1409" on="1"/>
        <pt x="57" y="1450" on="1"/>
        <pt x="174" y="1444" on="0"/>
        <pt x="422" y="1444" on="1"/>
        <pt x="644" y="1444" on="0"/>
        <pt x="764" y="1450" on="1"/>
        <pt x="764" y="1409" on="1"/>
      </contour>
    </TTGlyph>
    <TTGlyph name="Itilde" xMin="-73" yMin="0" xMax="912" yMax="1921">
      <component glyphName=".ttfautohint" x="0" y="0" flags="0x0"/>
      <component glyphName="I" x="0" y="0" flags="0x0"/>
      <component glyphName="tilde.case" x="-63" y="0" flags="0x0"/>
    </TTGlyph>
    <TTGlyph name="J" xMin="-334" yMin="-385" xMax="754" yMax="1450">
      <contour>
        <pt x="688" y="1406" on="0"/>
        <pt x="629" y="1380" on="0"/>
        <pt x="608" y="1310" on="0"/>
        <pt x="608" y="1233" on="1"/>
        <pt x="608" y="483" on="1"/>
        <pt x="609" y="315" on="1"/>
        <pt x="609" y="63" on="0"/>
        <pt x="573" y="-51" on="1"/>
        <pt x="542" y="-147" on="0"/>
        <pt x="385" y="-298" on="0"/>
        <pt x="146" y="-385" on="0"/>
        <pt x="-2" y="-385" on="1"/>
        <pt x="-152" y="-385" on="0"/>
        <pt x="-231" y="-346" on="1"/>
        <pt x="-334" y="-295" on="0"/>
        <pt x="-334" y="-193" on="1"/>
        <pt x="-334" y="-121" on="0"/>
        <pt x="-224" y="-35" on="0"/>
        <pt x="-133" y="-35" on="1"/>
        <pt x="-47" y="-35" on="0"/>
        <pt x="51" y="-112" on="0"/>
        <pt x="51" y="-186" on="1"/>
        <pt x="51" y="-234" on="0"/>
        <pt x="-8" y="-318" on="0"/>
        <pt x="-68" y="-340" on="1"/>
        <pt x="-55" y="-342" on="0"/>
        <pt x="-31" y="-342" on="1"/>
        <pt x="34" y="-342" on="0"/>
        <pt x="128" y="-269" on="0"/>
        <pt x="150" y="-213" on="1"/>
        <pt x="171" y="-155" on="0"/>
        <pt x="189" y="-31" on="0"/>
        <pt x="193" y="128" on="0"/>
        <pt x="193" y="297" on="1"/>
        <pt x="193" y="1233" on="1"/>
        <pt x="193" y="1310" on="0"/>
        <pt x="171" y="1380" on="0"/>
        <pt x="112" y="1406" on="0"/>
        <pt x="47" y="1409" on="1"/>
        <pt x="47" y="1450" on="1"/>
        <pt x="158" y="1444" on="0"/>
        <pt x="391" y="1444" on="1"/>
        <pt x="628" y="1444" on="0"/>
        <pt x="754" y="1450" on="1"/>
        <pt x="754" y="1409" on="1"/>
      </contour>
    </TTGlyph>
    <TTGlyph name="Jcircumflex" xMin="-334" yMin="-385" xMax="854" yMax="1958">
      <component glyphName=".ttfautohint" x="0" y="0" flags="0x0"/>
      <component glyphName="J" x="0" y="0" flags="0x0"/>
      <component glyphName="circumflex.case" x="-41" y="0" flags="0x0"/>
    </TTGlyph>
    <TTGlyph name="K" xMin="57" yMin="0" xMax="1577" yMax="1450">
      <contour>
        <pt x="1480" y="120" on="0"/>
        <pt x="1534" y="64" on="0"/>
        <pt x="1577" y="41" on="1"/>
        <pt x="1577" y="0" on="1"/>
        <pt x="1404" y="6" on="0"/>
        <pt x="1208" y="6" on="1"/>
        <pt x="1057" y="6" on="0"/>
        <pt x="915" y="0" on="1"/>
        <pt x="915" y="41" on="1"/>
        <pt x="980" y="44" on="0"/>
        <pt x="1033" y="61" on="0"/>
        <pt x="1033" y="80" on="1"/>
        <pt x="1033" y="96" on="0"/>
        <pt x="1012" y="133" on="1"/>
        <pt x="715" y="635" on="1"/>
        <pt x="685" y="685" on="0"/>
        <pt x="647" y="722" on="0"/>
        <pt x="618" y="726" on="1"/>
        <pt x="618" y="217" on="1"/>
        <pt x="618" y="140" on="0"/>
        <pt x="640" y="70" on="0"/>
        <pt x="699" y="44" on="0"/>
        <pt x="764" y="41" on="1"/>
        <pt x="764" y="0" on="1"/>
        <pt x="644" y="6" on="0"/>
        <pt x="422" y="6" on="1"/>
        <pt x="174" y="6" on="0"/>
        <pt x="57" y="0" on="1"/>
        <pt x="57" y="41" on="1"/>
        <pt x="123" y="44" on="0"/>
        <pt x="182" y="70" on="0"/>
        <pt x="203" y="140" on="0"/>
        <pt x="203" y="217" on="1"/>
        <pt x="203" y="1233" on="1"/>
        <pt x="203" y="1310" on="0"/>
        <pt x="181" y="1380" on="0"/>
        <pt x="122" y="1406" on="0"/>
        <pt x="57" y="1409" on="1"/>
        <pt x="57" y="1450" on="1"/>
        <pt x="174" y="1444" on="0"/>
        <pt x="422" y="1444" on="1"/>
        <pt x="644" y="1444" on="0"/>
        <pt x="764" y="1450" on="1"/>
        <pt x="764" y="1409" on="1"/>
        <pt x="698" y="1406" on="0"/>
        <pt x="639" y="1380" on="0"/>
        <pt x="618" y="1310" on="0"/>
        <pt x="618" y="1233" on="1"/>
        <pt x="618" y="771" on="1"/>
        <pt x="700" y="777" on="0"/>
        <pt x="855" y="887" on="0"/>
        <pt x="969" y="1014" on="1"/>
        <pt x="1038" y="1092" on="1"/>
        <pt x="1129" y="1194" on="0"/>
        <pt x="1129" y="1276" on="1"/>
        <pt x="1129" y="1336" on="0"/>
        <pt x="1035" y="1408" on="0"/>
        <pt x="961" y="1411" on="1"/>
        <pt x="961" y="1450" on="1"/>
        <pt x="1132" y="1444" on="0"/>
        <pt x="1307" y="1444" on="1"/>
        <pt x="1430" y="1444" on="0"/>
        <pt x="1513" y="1450" on="1"/>
        <pt x="1513" y="1411" on="1"/>
        <pt x="1335" y="1363" on="0"/>
        <pt x="1178" y="1186" on="1"/>
        <pt x="977" y="958" on="1"/>
        <pt x="1452" y="166" on="1"/>
      </contour>
    </TTGlyph>
    <TTGlyph name="Kcommaaccent" xMin="57" yMin="-502" xMax="1577" yMax="1450">
      <component glyphName=".ttfautohint" x="57" y="0" flags="0x0"/>
      <component glyphName="K" x="0" y="0" flags="0x0"/>
      <component glyphName="commaaccentcomb.case" x="670" y="0" flags="0x0"/>
    </TTGlyph>
    <TTGlyph name="L" xMin="57" yMin="0" xMax="1243" yMax="1450">
      <contour>
        <pt x="710" y="1406" on="0"/>
        <pt x="643" y="1380" on="0"/>
        <pt x="618" y="1310" on="0"/>
        <pt x="618" y="1233" on="1"/>
        <pt x="618" y="176" on="1"/>
        <pt x="618" y="118" on="0"/>
        <pt x="634" y="65" on="0"/>
        <pt x="676" y="47" on="0"/>
        <pt x="723" y="47" on="1"/>
        <pt x="791" y="47" on="1"/>
        <pt x="862" y="47" on="0"/>
        <pt x="1031" y="191" on="0"/>
        <pt x="1165" y="426" on="0"/>
        <pt x="1188" y="553" on="1"/>
        <pt x="1235" y="553" on="1"/>
        <pt x="1229" y="480" on="0"/>
        <pt x="1229" y="365" on="1"/>
        <pt x="1229" y="143" on="0"/>
        <pt x="1243" y="0" on="1"/>
        <pt x="1104" y="6" on="0"/>
        <pt x="774" y="6" on="1"/>
        <pt x="295" y="6" on="0"/>
        <pt x="57" y="0" on="1"/>
        <pt x="57" y="41" on="1"/>
        <pt x="123" y="44" on="0"/>
        <pt x="182" y="70" on="0"/>
        <pt x="203" y="140" on="0"/>
        <pt x="203" y="217" on="1"/>
        <pt x="203" y="1233" on="1"/>
        <pt x="203" y="1310" on="0"/>
        <pt x="181" y="1380" on="0"/>
        <pt x="122" y="1406" on="0"/>
        <pt x="57" y="1409" on="1"/>
        <pt x="57" y="1450" on="1"/>
        <pt x="174" y="1444" on="0"/>
        <pt x="422" y="1444" on="1"/>
        <pt x="658" y="1444" on="0"/>
        <pt x="784" y="1450" on="1"/>
        <pt x="784" y="1409" on="1"/>
      </contour>
    </TTGlyph>
    <TTGlyph name="Lacute" xMin="57" yMin="0" xMax="1243" yMax="1937">
      <component glyphName=".ttfautohint" x="57" y="0" flags="0x0"/>
      <component glyphName="L" x="0" y="0" flags="0x0"/>
      <component glyphName="acute.case" x="256" y="0" flags="0x0"/>
    </TTGlyph>
    <TTGlyph name="Lcaron" xMin="57" yMin="0" xMax="1243" yMax="1462">
      <component glyphName=".ttfautohint" x="57" y="0" flags="0x0"/>
      <component glyphName="L" x="0" y="0" flags="0x0"/>
      <component glyphName="hacek.case" x="784" y="0" flags="0x0"/>
    </TTGlyph>
    <TTGlyph name="Lcommaaccent" xMin="57" yMin="-502" xMax="1243" yMax="1450">
      <component glyphName=".ttfautohint" x="57" y="0" flags="0x0"/>
      <component glyphName="L" x="0" y="0" flags="0x0"/>
      <component glyphName="commaaccentcomb.case" x="539" y="0" flags="0x0"/>
    </TTGlyph>
    <TTGlyph name="Ldot" xMin="57" yMin="0" xMax="1360" yMax="1450">
      <component glyphName=".ttfautohint" x="57" y="0" flags="0x0"/>
      <component glyphName="L" x="0" y="0" flags="0x0"/>
      <component glyphName="period" x="868" y="627" flags="0x0"/>
    </TTGlyph>
    <TTGlyph name="Lslash" xMin="57" yMin="0" xMax="1243" yMax="1450">
      <contour>
        <pt x="1229" y="143" on="0"/>
        <pt x="1243" y="0" on="1"/>
        <pt x="1104" y="6" on="0"/>
        <pt x="774" y="6" on="1"/>
        <pt x="295" y="6" on="0"/>
        <pt x="57" y="0" on="1"/>
        <pt x="57" y="41" on="1"/>
        <pt x="123" y="44" on="0"/>
        <pt x="182" y="70" on="0"/>
        <pt x="203" y="140" on="0"/>
        <pt x="203" y="217" on="1"/>
        <pt x="203" y="498" on="1"/>
        <pt x="57" y="414" on="1"/>
        <pt x="57" y="461" on="1"/>
        <pt x="203" y="545" on="1"/>
        <pt x="203" y="1233" on="1"/>
        <pt x="203" y="1310" on="0"/>
        <pt x="181" y="1380" on="0"/>
        <pt x="122" y="1406" on="0"/>
        <pt x="57" y="1409" on="1"/>
        <pt x="57" y="1450" on="1"/>
        <pt x="174" y="1444" on="0"/>
        <pt x="422" y="1444" on="1"/>
        <pt x="658" y="1444" on="0"/>
        <pt x="784" y="1450" on="1"/>
        <pt x="784" y="1409" on="1"/>
        <pt x="710" y="1406" on="0"/>
        <pt x="643" y="1380" on="0"/>
        <pt x="618" y="1310" on="0"/>
        <pt x="618" y="1233" on="1"/>
        <pt x="618" y="765" on="1"/>
        <pt x="969" y="969" on="1"/>
        <pt x="969" y="922" on="1"/>
        <pt x="618" y="718" on="1"/>
        <pt x="618" y="176" on="1"/>
        <pt x="618" y="118" on="0"/>
        <pt x="634" y="65" on="0"/>
        <pt x="676" y="47" on="0"/>
        <pt x="723" y="47" on="1"/>
        <pt x="791" y="47" on="1"/>
        <pt x="862" y="47" on="0"/>
        <pt x="1031" y="191" on="0"/>
        <pt x="1165" y="426" on="0"/>
        <pt x="1188" y="553" on="1"/>
        <pt x="1235" y="553" on="1"/>
        <pt x="1229" y="480" on="0"/>
        <pt x="1229" y="365" on="1"/>
      </contour>
    </TTGlyph>
    <TTGlyph name="M" xMin="61" yMin="0" xMax="1919" yMax="1450">
      <contour>
        <pt x="1853" y="1406" on="0"/>
        <pt x="1795" y="1380" on="0"/>
        <pt x="1774" y="1311" on="0"/>
        <pt x="1774" y="1233" on="1"/>
        <pt x="1774" y="217" on="1"/>
        <pt x="1774" y="140" on="0"/>
        <pt x="1795" y="70" on="0"/>
        <pt x="1854" y="44" on="0"/>
        <pt x="1919" y="41" on="1"/>
        <pt x="1919" y="0" on="1"/>
        <pt x="1793" y="6" on="0"/>
        <pt x="1556" y="6" on="1"/>
        <pt x="1309" y="6" on="0"/>
        <pt x="1192" y="0" on="1"/>
        <pt x="1192" y="41" on="1"/>
        <pt x="1266" y="44" on="0"/>
        <pt x="1333" y="70" on="0"/>
        <pt x="1358" y="140" on="0"/>
        <pt x="1358" y="217" on="1"/>
        <pt x="1358" y="1266" on="1"/>
        <pt x="864" y="2" on="1"/>
        <pt x="831" y="2" on="1"/>
        <pt x="254" y="1317" on="1"/>
        <pt x="254" y="401" on="1"/>
        <pt x="254" y="250" on="0"/>
        <pt x="278" y="118" on="0"/>
        <pt x="362" y="55" on="0"/>
        <pt x="461" y="41" on="1"/>
        <pt x="461" y="0" on="1"/>
        <pt x="379" y="6" on="0"/>
        <pt x="231" y="6" on="1"/>
        <pt x="123" y="6" on="0"/>
        <pt x="61" y="0" on="1"/>
        <pt x="61" y="41" on="1"/>
        <pt x="125" y="55" on="0"/>
        <pt x="186" y="115" on="0"/>
        <pt x="207" y="238" on="0"/>
        <pt x="207" y="360" on="1"/>
        <pt x="207" y="1233" on="1"/>
        <pt x="207" y="1310" on="0"/>
        <pt x="185" y="1380" on="0"/>
        <pt x="126" y="1406" on="0"/>
        <pt x="61" y="1409" on="1"/>
        <pt x="61" y="1450" on="1"/>
        <pt x="123" y="1444" on="0"/>
        <pt x="231" y="1444" on="1"/>
        <pt x="478" y="1444" on="0"/>
        <pt x="655" y="1450" on="1"/>
        <pt x="1042" y="580" on="1"/>
        <pt x="1378" y="1444" on="1"/>
        <pt x="1556" y="1444" on="1"/>
        <pt x="1793" y="1444" on="0"/>
        <pt x="1919" y="1450" on="1"/>
        <pt x="1919" y="1409" on="1"/>
      </contour>
    </TTGlyph>
    <TTGlyph name="N" xMin="61" yMin="0" xMax="1450" yMax="1450">
      <contour>
        <pt x="1386" y="1395" on="0"/>
        <pt x="1326" y="1335" on="0"/>
        <pt x="1305" y="1212" on="0"/>
        <pt x="1305" y="1090" on="1"/>
        <pt x="1305" y="0" on="1"/>
        <pt x="1275" y="3" on="0"/>
        <pt x="1238" y="3" on="1"/>
        <pt x="1202" y="3" on="0"/>
        <pt x="1161" y="0" on="1"/>
        <pt x="254" y="991" on="1"/>
        <pt x="254" y="401" on="1"/>
        <pt x="254" y="250" on="0"/>
        <pt x="278" y="118" on="0"/>
        <pt x="362" y="55" on="0"/>
        <pt x="461" y="41" on="1"/>
        <pt x="461" y="0" on="1"/>
        <pt x="379" y="6" on="0"/>
        <pt x="231" y="6" on="1"/>
        <pt x="123" y="6" on="0"/>
        <pt x="61" y="0" on="1"/>
        <pt x="61" y="41" on="1"/>
        <pt x="125" y="55" on="0"/>
        <pt x="186" y="115" on="0"/>
        <pt x="207" y="238" on="0"/>
        <pt x="207" y="360" on="1"/>
        <pt x="207" y="1233" on="1"/>
        <pt x="207" y="1310" on="0"/>
        <pt x="185" y="1380" on="0"/>
        <pt x="126" y="1406" on="0"/>
        <pt x="61" y="1409" on="1"/>
        <pt x="61" y="1450" on="1"/>
        <pt x="123" y="1444" on="0"/>
        <pt x="231" y="1444" on="1"/>
        <pt x="344" y="1444" on="0"/>
        <pt x="420" y="1450" on="1"/>
        <pt x="1257" y="565" on="1"/>
        <pt x="1257" y="1049" on="1"/>
        <pt x="1257" y="1200" on="0"/>
        <pt x="1233" y="1332" on="0"/>
        <pt x="1150" y="1395" on="0"/>
        <pt x="1051" y="1409" on="1"/>
        <pt x="1051" y="1450" on="1"/>
        <pt x="1134" y="1444" on="0"/>
        <pt x="1280" y="1444" on="1"/>
        <pt x="1389" y="1444" on="0"/>
        <pt x="1450" y="1450" on="1"/>
        <pt x="1450" y="1409" on="1"/>
      </contour>
    </TTGlyph>
    <TTGlyph name="Nacute" xMin="61" yMin="0" xMax="1450" yMax="1937">
      <component glyphName=".ttfautohint" x="61" y="0" flags="0x0"/>
      <component glyphName="N" x="0" y="0" flags="0x0"/>
      <component glyphName="acute.case" x="616" y="0" flags="0x0"/>
    </TTGlyph>
    <TTGlyph name="Nacute.loclPLK" xMin="61" yMin="0" xMax="1450" yMax="1994">
      <component glyphName=".ttfautohint" x="61" y="0" flags="0x0"/>
      <component glyphName="N" x="0" y="0" flags="0x0"/>
      <component glyphName="acute.loclPLK.case" x="673" y="0" flags="0x0"/>
    </TTGlyph>
    <TTGlyph name="Ncaron" xMin="61" yMin="0" xMax="1450" yMax="1937">
      <component glyphName=".ttfautohint" x="61" y="0" flags="0x0"/>
      <component glyphName="N" x="0" y="0" flags="0x0"/>
      <component glyphName="caron.case" x="344" y="0" flags="0x0"/>
    </TTGlyph>
    <TTGlyph name="Ncommaaccent" xMin="61" yMin="-502" xMax="1450" yMax="1450">
      <component glyphName=".ttfautohint" x="61" y="0" flags="0x0"/>
      <component glyphName="N" x="0" y="0" flags="0x0"/>
      <component glyphName="commaaccentcomb.case" x="553" y="0" flags="0x0"/>
    </TTGlyph>
    <TTGlyph name="Ntilde" xMin="61" yMin="0" xMax="1450" yMax="1921">
      <component glyphName=".ttfautohint" x="61" y="0" flags="0x0"/>
      <component glyphName="N" x="0" y="0" flags="0x0"/>
      <component glyphName="tilde.case" x="297" y="0" flags="0x0"/>
    </TTGlyph>
    <TTGlyph name="O" xMin="74" yMin="-29" xMax="1620" yMax="1479">
      <contour>
        <pt x="1080" y="1479" on="0"/>
        <pt x="1428" y="1303" on="0"/>
        <pt x="1620" y="968" on="0"/>
        <pt x="1620" y="737" on="1"/>
        <pt x="1620" y="511" on="0"/>
        <pt x="1423" y="163" on="0"/>
        <pt x="1071" y="-29" on="0"/>
        <pt x="846" y="-29" on="1"/>
        <pt x="614" y="-29" on="0"/>
        <pt x="266" y="147" on="0"/>
        <pt x="74" y="482" on="0"/>
        <pt x="74" y="713" on="1"/>
        <pt x="74" y="939" on="0"/>
        <pt x="271" y="1287" on="0"/>
        <pt x="622" y="1479" on="0"/>
        <pt x="848" y="1479" on="1"/>
      </contour>
      <contour>
        <pt x="739" y="1442" on="0"/>
        <pt x="587" y="1259" on="0"/>
        <pt x="504" y="932" on="0"/>
        <pt x="504" y="721" on="1"/>
        <pt x="504" y="509" on="0"/>
        <pt x="598" y="184" on="0"/>
        <pt x="758" y="8" on="0"/>
        <pt x="854" y="8" on="1"/>
        <pt x="955" y="8" on="0"/>
        <pt x="1107" y="191" on="0"/>
        <pt x="1190" y="518" on="0"/>
        <pt x="1190" y="729" on="1"/>
        <pt x="1190" y="941" on="0"/>
        <pt x="1096" y="1266" on="0"/>
        <pt x="936" y="1442" on="0"/>
        <pt x="840" y="1442" on="1"/>
      </contour>
    </TTGlyph>
    <TTGlyph name="OE" xMin="74" yMin="-29" xMax="2042" yMax="1479">
      <contour>
        <pt x="2028" y="119" on="0"/>
        <pt x="2042" y="0" on="1"/>
        <pt x="1903" y="6" on="0"/>
        <pt x="1573" y="6" on="1"/>
        <pt x="1465" y="6" on="0"/>
        <pt x="1169" y="5" on="0"/>
        <pt x="1006" y="4" on="1"/>
        <pt x="911" y="-29" on="0"/>
        <pt x="825" y="-29" on="1"/>
        <pt x="600" y="-29" on="0"/>
        <pt x="261" y="147" on="0"/>
        <pt x="74" y="482" on="0"/>
        <pt x="74" y="713" on="1"/>
        <pt x="74" y="939" on="0"/>
        <pt x="266" y="1287" on="0"/>
        <pt x="608" y="1479" on="0"/>
        <pt x="827" y="1479" on="1"/>
        <pt x="914" y="1479" on="0"/>
        <pt x="1006" y="1446" on="1"/>
        <pt x="1170" y="1445" on="0"/>
        <pt x="1465" y="1444" on="0"/>
        <pt x="1573" y="1444" on="1"/>
        <pt x="1874" y="1444" on="0"/>
        <pt x="2001" y="1450" on="1"/>
        <pt x="1987" y="1281" on="0"/>
        <pt x="1987" y="1147" on="1"/>
        <pt x="1987" y="1052" on="0"/>
        <pt x="1993" y="999" on="1"/>
        <pt x="1946" y="999" on="1"/>
        <pt x="1916" y="1214" on="0"/>
        <pt x="1757" y="1403" on="0"/>
        <pt x="1651" y="1403" on="1"/>
        <pt x="1624" y="1403" on="1"/>
        <pt x="1560" y="1403" on="0"/>
        <pt x="1501" y="1379" on="0"/>
        <pt x="1479" y="1310" on="0"/>
        <pt x="1479" y="1233" on="1"/>
        <pt x="1479" y="750" on="1"/>
        <pt x="1561" y="750" on="1"/>
        <pt x="1626" y="750" on="0"/>
        <pt x="1704" y="830" on="0"/>
        <pt x="1739" y="926" on="0"/>
        <pt x="1757" y="999" on="1"/>
        <pt x="1804" y="999" on="1"/>
        <pt x="1797" y="905" on="0"/>
        <pt x="1797" y="820" on="1"/>
        <pt x="1798" y="729" on="1"/>
        <pt x="1798" y="633" on="0"/>
        <pt x="1810" y="459" on="1"/>
        <pt x="1763" y="459" on="1"/>
        <pt x="1750" y="532" on="0"/>
        <pt x="1709" y="639" on="0"/>
        <pt x="1627" y="709" on="0"/>
        <pt x="1561" y="709" on="1"/>
        <pt x="1479" y="709" on="1"/>
        <pt x="1479" y="217" on="1"/>
        <pt x="1479" y="140" on="0"/>
        <pt x="1501" y="71" on="0"/>
        <pt x="1560" y="47" on="0"/>
        <pt x="1624" y="47" on="1"/>
        <pt x="1692" y="47" on="1"/>
        <pt x="1749" y="47" on="0"/>
        <pt x="1872" y="135" on="0"/>
        <pt x="1970" y="334" on="0"/>
        <pt x="1987" y="492" on="1"/>
        <pt x="2034" y="492" on="1"/>
        <pt x="2028" y="417" on="0"/>
        <pt x="2028" y="303" on="1"/>
      </contour>
      <contour>
        <pt x="1063" y="1326" on="0"/>
        <pt x="983" y="1410" on="0"/>
        <pt x="872" y="1442" on="0"/>
        <pt x="819" y="1442" on="1"/>
        <pt x="724" y="1442" on="0"/>
        <pt x="582" y="1259" on="0"/>
        <pt x="504" y="932" on="0"/>
        <pt x="504" y="721" on="1"/>
        <pt x="504" y="508" on="0"/>
        <pt x="592" y="184" on="0"/>
        <pt x="742" y="8" on="0"/>
        <pt x="834" y="8" on="1"/>
        <pt x="885" y="8" on="0"/>
        <pt x="991" y="45" on="0"/>
        <pt x="1063" y="120" on="0"/>
        <pt x="1063" y="176" on="1"/>
        <pt x="1063" y="1253" on="1"/>
      </contour>
    </TTGlyph>
    <TTGlyph name="Oacute" xMin="74" yMin="-29" xMax="1620" yMax="1937">
      <component glyphName=".ttfautohint" x="74" y="0" flags="0x0"/>
      <component glyphName="O" x="0" y="0" flags="0x0"/>
      <component glyphName="acute.case" x="678" y="0" flags="0x0"/>
    </TTGlyph>
    <TTGlyph name="Oacute.loclPLK" xMin="74" yMin="-29" xMax="1620" yMax="1994">
      <component glyphName=".ttfautohint" x="74" y="0" flags="0x0"/>
      <component glyphName="O" x="0" y="0" flags="0x0"/>
      <component glyphName="acute.loclPLK.case" x="735" y="0" flags="0x0"/>
    </TTGlyph>
    <TTGlyph name="Obreve" xMin="74" yMin="-29" xMax="1620" yMax="1884">
      <component glyphName=".ttfautohint" x="74" y="0" flags="0x0"/>
      <component glyphName="O" x="0" y="0" flags="0x0"/>
      <component glyphName="breve.case" x="385" y="0" flags="0x0"/>
    </TTGlyph>
    <TTGlyph name="Ocircumflex" xMin="74" yMin="-29" xMax="1620" yMax="1958">
      <component glyphName=".ttfautohint" x="74" y="0" flags="0x0"/>
      <component glyphName="O" x="0" y="0" flags="0x0"/>
      <component glyphName="circumflex.case" x="412" y="0" flags="0x0"/>
    </TTGlyph>
    <TTGlyph name="Odieresis" xMin="74" yMin="-29" xMax="1620" yMax="1917">
      <component glyphName=".ttfautohint" x="74" y="0" flags="0x0"/>
      <component glyphName="O" x="0" y="0" flags="0x0"/>
      <component glyphName="dieresis.case" x="457" y="0" flags="0x0"/>
    </TTGlyph>
    <TTGlyph name="Ograve" xMin="74" yMin="-29" xMax="1620" yMax="1937">
      <component glyphName=".ttfautohint" x="74" y="0" flags="0x0"/>
      <component glyphName="O" x="0" y="0" flags="0x0"/>
      <component glyphName="grave.case" x="459" y="0" flags="0x0"/>
    </TTGlyph>
    <TTGlyph name="Ohungarumlaut" xMin="74" yMin="-29" xMax="1620" yMax="1955">
      <component glyphName=".ttfautohint" x="74" y="0" flags="0x0"/>
      <component glyphName="O" x="0" y="0" flags="0x0"/>
      <component glyphName="hungarumlaut.case" x="428" y="0" flags="0x0"/>
    </TTGlyph>
    <TTGlyph name="Omacron" xMin="74" yMin="-29" xMax="1620" yMax="1729">
      <component glyphName=".ttfautohint" x="74" y="0" flags="0x0"/>
      <component glyphName="O" x="0" y="0" flags="0x0"/>
      <component glyphName="macron.case" x="432" y="0" flags="0x0"/>
    </TTGlyph>
    <TTGlyph name="Omega" xMin="113" yMin="0" xMax="1497" yMax="1479">
      <contour>
        <pt x="1024" y="1479" on="0"/>
        <pt x="1335" y="1356" on="0"/>
        <pt x="1497" y="1126" on="0"/>
        <pt x="1497" y="967" on="1"/>
        <pt x="1497" y="852" on="0"/>
        <pt x="1416" y="653" on="0"/>
        <pt x="1295" y="488" on="0"/>
        <pt x="1187" y="363" on="1"/>
        <pt x="1106" y="271" on="0"/>
        <pt x="992" y="127" on="0"/>
        <pt x="940" y="47" on="1"/>
        <pt x="1057" y="47" on="1"/>
        <pt x="1200" y="47" on="0"/>
        <pt x="1391" y="226" on="0"/>
        <pt x="1434" y="430" on="1"/>
        <pt x="1481" y="430" on="1"/>
        <pt x="1475" y="372" on="0"/>
        <pt x="1475" y="283" on="1"/>
        <pt x="1475" y="158" on="0"/>
        <pt x="1489" y="0" on="1"/>
        <pt x="1399" y="6" on="0"/>
        <pt x="1184" y="6" on="1"/>
        <pt x="1111" y="6" on="0"/>
        <pt x="1019" y="3" on="1"/>
        <pt x="889" y="0" on="1"/>
        <pt x="889" y="33" on="1"/>
        <pt x="971" y="193" on="0"/>
        <pt x="1108" y="662" on="0"/>
        <pt x="1108" y="926" on="1"/>
        <pt x="1108" y="1180" on="0"/>
        <pt x="967" y="1442" on="0"/>
        <pt x="805" y="1442" on="1"/>
        <pt x="643" y="1442" on="0"/>
        <pt x="502" y="1180" on="0"/>
        <pt x="502" y="926" on="1"/>
        <pt x="502" y="662" on="0"/>
        <pt x="639" y="193" on="0"/>
        <pt x="721" y="33" on="1"/>
        <pt x="721" y="0" on="1"/>
        <pt x="591" y="3" on="1"/>
        <pt x="500" y="6" on="0"/>
        <pt x="426" y="6" on="1"/>
        <pt x="211" y="6" on="0"/>
        <pt x="121" y="0" on="1"/>
        <pt x="135" y="158" on="0"/>
        <pt x="135" y="283" on="1"/>
        <pt x="135" y="372" on="0"/>
        <pt x="129" y="430" on="1"/>
        <pt x="176" y="430" on="1"/>
        <pt x="219" y="226" on="0"/>
        <pt x="410" y="47" on="0"/>
        <pt x="553" y="47" on="1"/>
        <pt x="670" y="47" on="1"/>
        <pt x="619" y="126" on="0"/>
        <pt x="507" y="266" on="0"/>
        <pt x="424" y="362" on="1"/>
        <pt x="316" y="487" on="0"/>
        <pt x="194" y="653" on="0"/>
        <pt x="113" y="852" on="0"/>
        <pt x="113" y="967" on="1"/>
        <pt x="113" y="1126" on="0"/>
        <pt x="275" y="1356" on="0"/>
        <pt x="586" y="1479" on="0"/>
        <pt x="805" y="1479" on="1"/>
      </contour>
    </TTGlyph>
    <TTGlyph name="Oslash" xMin="74" yMin="-170" xMax="1620" yMax="1604">
      <contour>
        <pt x="1446" y="1282" on="0"/>
        <pt x="1620" y="957" on="0"/>
        <pt x="1620" y="737" on="1"/>
        <pt x="1620" y="511" on="0"/>
        <pt x="1423" y="163" on="0"/>
        <pt x="1071" y="-29" on="0"/>
        <pt x="846" y="-29" on="1"/>
        <pt x="599" y="-29" on="0"/>
        <pt x="419" y="70" on="1"/>
        <pt x="246" y="-170" on="1"/>
        <pt x="203" y="-141" on="1"/>
        <pt x="375" y="97" on="1"/>
        <pt x="230" y="191" on="0"/>
        <pt x="74" y="504" on="0"/>
        <pt x="74" y="713" on="1"/>
        <pt x="74" y="939" on="0"/>
        <pt x="271" y="1287" on="0"/>
        <pt x="622" y="1479" on="0"/>
        <pt x="848" y="1479" on="1"/>
        <pt x="1071" y="1479" on="0"/>
        <pt x="1243" y="1396" on="1"/>
        <pt x="1384" y="1604" on="1"/>
        <pt x="1423" y="1577" on="1"/>
        <pt x="1286" y="1373" on="1"/>
      </contour>
      <contour>
        <pt x="739" y="1442" on="0"/>
        <pt x="587" y="1259" on="0"/>
        <pt x="504" y="932" on="0"/>
        <pt x="504" y="721" on="1"/>
        <pt x="504" y="500" on="0"/>
        <pt x="557" y="325" on="1"/>
        <pt x="1107" y="1207" on="1"/>
        <pt x="1058" y="1320" on="0"/>
        <pt x="919" y="1442" on="0"/>
        <pt x="840" y="1442" on="1"/>
      </contour>
      <contour>
        <pt x="955" y="8" on="0"/>
        <pt x="1107" y="191" on="0"/>
        <pt x="1190" y="518" on="0"/>
        <pt x="1190" y="729" on="1"/>
        <pt x="1190" y="971" on="0"/>
        <pt x="1128" y="1151" on="1"/>
        <pt x="578" y="264" on="1"/>
        <pt x="627" y="142" on="0"/>
        <pt x="771" y="8" on="0"/>
        <pt x="854" y="8" on="1"/>
      </contour>
    </TTGlyph>
    <TTGlyph name="Otilde" xMin="74" yMin="-29" xMax="1620" yMax="1921">
      <component glyphName=".ttfautohint" x="74" y="0" flags="0x0"/>
      <component glyphName="O" x="0" y="0" flags="0x0"/>
      <component glyphName="tilde.case" x="359" y="0" flags="0x0"/>
    </TTGlyph>
    <TTGlyph name="P" xMin="57" yMin="0" xMax="1356" yMax="1450">
      <contour>
        <pt x="618" y="238" on="1"/>
        <pt x="618" y="152" on="0"/>
        <pt x="653" y="73" on="0"/>
        <pt x="746" y="47" on="0"/>
        <pt x="846" y="47" on="1"/>
        <pt x="846" y="0" on="1"/>
        <pt x="826" y="0" on="0"/>
        <pt x="815" y="1" on="1"/>
        <pt x="580" y="6" on="0"/>
        <pt x="424" y="6" on="1"/>
        <pt x="329" y="6" on="0"/>
        <pt x="157" y="2" on="1"/>
        <pt x="57" y="0" on="1"/>
        <pt x="57" y="41" on="1"/>
        <pt x="123" y="44" on="0"/>
        <pt x="182" y="70" on="0"/>
        <pt x="203" y="140" on="0"/>
        <pt x="203" y="217" on="1"/>
        <pt x="203" y="1233" on="1"/>
        <pt x="203" y="1310" on="0"/>
        <pt x="181" y="1380" on="0"/>
        <pt x="122" y="1406" on="0"/>
        <pt x="57" y="1409" on="1"/>
        <pt x="57" y="1450" on="1"/>
        <pt x="174" y="1444" on="0"/>
        <pt x="410" y="1444" on="1"/>
        <pt x="450" y="1444" on="0"/>
        <pt x="645" y="1447" on="1"/>
        <pt x="739" y="1448" on="1"/>
        <pt x="942" y="1448" on="0"/>
        <pt x="1219" y="1347" on="0"/>
        <pt x="1356" y="1165" on="0"/>
        <pt x="1356" y="1044" on="1"/>
        <pt x="1356" y="931" on="0"/>
        <pt x="1234" y="724" on="0"/>
        <pt x="938" y="586" on="0"/>
        <pt x="694" y="586" on="1"/>
        <pt x="618" y="586" on="1"/>
      </contour>
      <contour>
        <pt x="682" y="1409" on="0"/>
        <pt x="635" y="1380" on="0"/>
        <pt x="618" y="1306" on="0"/>
        <pt x="618" y="1233" on="1"/>
        <pt x="618" y="627" on="1"/>
        <pt x="674" y="627" on="1"/>
        <pt x="818" y="627" on="0"/>
        <pt x="926" y="840" on="0"/>
        <pt x="926" y="1022" on="1"/>
        <pt x="926" y="1221" on="0"/>
        <pt x="835" y="1409" on="0"/>
        <pt x="729" y="1409" on="1"/>
      </contour>
    </TTGlyph>
    <TTGlyph name="Q" xMin="74" yMin="-385" xMax="1626" yMax="1479">
      <contour>
        <pt x="1615" y="-72" on="0"/>
        <pt x="1540" y="-265" on="0"/>
        <pt x="1477" y="-313" on="1"/>
        <pt x="1431" y="-348" on="0"/>
        <pt x="1295" y="-385" on="0"/>
        <pt x="1221" y="-385" on="1"/>
        <pt x="1133" y="-385" on="0"/>
        <pt x="957" y="-343" on="0"/>
        <pt x="796" y="-280" on="0"/>
        <pt x="676" y="-226" on="1"/>
        <pt x="557" y="-174" on="0"/>
        <pt x="541" y="-168" on="1"/>
        <pt x="501" y="-154" on="0"/>
        <pt x="492" y="-154" on="1"/>
        <pt x="400" y="-205" on="0"/>
        <pt x="319" y="-205" on="1"/>
        <pt x="276" y="-205" on="0"/>
        <pt x="223" y="-174" on="0"/>
        <pt x="223" y="-143" on="1"/>
        <pt x="223" y="-113" on="0"/>
        <pt x="280" y="-80" on="0"/>
        <pt x="336" y="-80" on="1"/>
        <pt x="408" y="-80" on="0"/>
        <pt x="492" y="-117" on="1"/>
        <pt x="559" y="-100" on="0"/>
        <pt x="648" y="-61" on="1"/>
        <pt x="708" y="-35" on="0"/>
        <pt x="740" y="-24" on="1"/>
        <pt x="538" y="-4" on="0"/>
        <pt x="237" y="182" on="0"/>
        <pt x="74" y="500" on="0"/>
        <pt x="74" y="713" on="1"/>
        <pt x="74" y="939" on="0"/>
        <pt x="271" y="1287" on="0"/>
        <pt x="622" y="1479" on="0"/>
        <pt x="848" y="1479" on="1"/>
        <pt x="1080" y="1479" on="0"/>
        <pt x="1428" y="1303" on="0"/>
        <pt x="1620" y="968" on="0"/>
        <pt x="1620" y="737" on="1"/>
        <pt x="1620" y="516" on="0"/>
        <pt x="1431" y="172" on="0"/>
        <pt x="1091" y="-23" on="0"/>
        <pt x="873" y="-29" on="1"/>
        <pt x="826" y="-35" on="0"/>
        <pt x="751" y="-59" on="0"/>
        <pt x="694" y="-81" on="1"/>
        <pt x="620" y="-111" on="0"/>
        <pt x="563" y="-127" on="1"/>
        <pt x="617" y="-129" on="1"/>
        <pt x="869" y="-135" on="0"/>
        <pt x="938" y="-135" on="1"/>
        <pt x="1150" y="-135" on="0"/>
        <pt x="1290" y="-106" on="1"/>
        <pt x="1405" y="-82" on="0"/>
        <pt x="1536" y="-3" on="0"/>
        <pt x="1587" y="74" on="1"/>
        <pt x="1626" y="63" on="1"/>
      </contour>
      <contour>
        <pt x="504" y="509" on="0"/>
        <pt x="598" y="184" on="0"/>
        <pt x="758" y="8" on="0"/>
        <pt x="854" y="8" on="1"/>
        <pt x="955" y="8" on="0"/>
        <pt x="1107" y="191" on="0"/>
        <pt x="1190" y="518" on="0"/>
        <pt x="1190" y="729" on="1"/>
        <pt x="1190" y="941" on="0"/>
        <pt x="1096" y="1266" on="0"/>
        <pt x="936" y="1442" on="0"/>
        <pt x="840" y="1442" on="1"/>
        <pt x="739" y="1442" on="0"/>
        <pt x="587" y="1259" on="0"/>
        <pt x="504" y="932" on="0"/>
        <pt x="504" y="721" on="1"/>
      </contour>
    </TTGlyph>
    <TTGlyph name="R" xMin="57" yMin="-29" xMax="1528" yMax="1450">
      <contour>
        <pt x="1467" y="21" on="0"/>
        <pt x="1319" y="-29" on="0"/>
        <pt x="1221" y="-29" on="1"/>
        <pt x="1080" y="-29" on="0"/>
        <pt x="923" y="72" on="0"/>
        <pt x="905" y="193" on="1"/>
        <pt x="874" y="397" on="1"/>
        <pt x="853" y="541" on="0"/>
        <pt x="783" y="688" on="0"/>
        <pt x="711" y="688" on="1"/>
        <pt x="618" y="688" on="1"/>
        <pt x="618" y="217" on="1"/>
        <pt x="618" y="140" on="0"/>
        <pt x="640" y="70" on="0"/>
        <pt x="699" y="44" on="0"/>
        <pt x="764" y="41" on="1"/>
        <pt x="764" y="0" on="1"/>
        <pt x="644" y="6" on="0"/>
        <pt x="422" y="6" on="1"/>
        <pt x="174" y="6" on="0"/>
        <pt x="57" y="0" on="1"/>
        <pt x="57" y="41" on="1"/>
        <pt x="123" y="44" on="0"/>
        <pt x="182" y="70" on="0"/>
        <pt x="203" y="140" on="0"/>
        <pt x="203" y="217" on="1"/>
        <pt x="203" y="1233" on="1"/>
        <pt x="203" y="1310" on="0"/>
        <pt x="181" y="1380" on="0"/>
        <pt x="122" y="1406" on="0"/>
        <pt x="57" y="1409" on="1"/>
        <pt x="57" y="1450" on="1"/>
        <pt x="174" y="1444" on="0"/>
        <pt x="410" y="1444" on="1"/>
        <pt x="450" y="1444" on="0"/>
        <pt x="645" y="1447" on="1"/>
        <pt x="739" y="1448" on="1"/>
        <pt x="1051" y="1448" on="0"/>
        <pt x="1356" y="1273" on="0"/>
        <pt x="1356" y="1092" on="1"/>
        <pt x="1356" y="938" on="0"/>
        <pt x="1126" y="721" on="0"/>
        <pt x="855" y="695" on="1"/>
        <pt x="1064" y="683" on="0"/>
        <pt x="1279" y="554" on="0"/>
        <pt x="1303" y="428" on="1"/>
        <pt x="1346" y="215" on="1"/>
        <pt x="1361" y="140" on="0"/>
        <pt x="1402" y="82" on="0"/>
        <pt x="1438" y="82" on="1"/>
        <pt x="1475" y="82" on="0"/>
        <pt x="1501" y="109" on="1"/>
        <pt x="1528" y="82" on="1"/>
      </contour>
      <contour>
        <pt x="682" y="1409" on="0"/>
        <pt x="635" y="1380" on="0"/>
        <pt x="618" y="1306" on="0"/>
        <pt x="618" y="1233" on="1"/>
        <pt x="618" y="729" on="1"/>
        <pt x="674" y="729" on="1"/>
        <pt x="774" y="729" on="0"/>
        <pt x="885" y="817" on="0"/>
        <pt x="926" y="965" on="0"/>
        <pt x="926" y="1069" on="1"/>
        <pt x="926" y="1237" on="0"/>
        <pt x="834" y="1409" on="0"/>
        <pt x="729" y="1409" on="1"/>
      </contour>
    </TTGlyph>
    <TTGlyph name="Racute" xMin="57" yMin="-29" xMax="1528" yMax="1937">
      <component glyphName=".ttfautohint" x="57" y="0" flags="0x0"/>
      <component glyphName="R" x="0" y="0" flags="0x0"/>
      <component glyphName="acute.case" x="534" y="0" flags="0x0"/>
    </TTGlyph>
    <TTGlyph name="Rcaron" xMin="57" yMin="-29" xMax="1528" yMax="1937">
      <component glyphName=".ttfautohint" x="57" y="0" flags="0x0"/>
      <component glyphName="R" x="0" y="0" flags="0x0"/>
      <component glyphName="caron.case" x="262" y="0" flags="0x0"/>
    </TTGlyph>
    <TTGlyph name="Rcommaaccent" xMin="57" yMin="-502" xMax="1528" yMax="1450">
      <component glyphName=".ttfautohint" x="57" y="0" flags="0x0"/>
      <component glyphName="R" x="0" y="0" flags="0x0"/>
      <component glyphName="commaaccentcomb.case" x="569" y="0" flags="0x0"/>
    </TTGlyph>
    <TTGlyph name="S" xMin="100" yMin="-29" xMax="1182" yMax="1479">
      <contour>
        <pt x="736" y="1479" on="0"/>
        <pt x="882" y="1435" on="0"/>
        <pt x="950" y="1397" on="1"/>
        <pt x="979" y="1381" on="0"/>
        <pt x="1007" y="1368" on="0"/>
        <pt x="1020" y="1368" on="1"/>
        <pt x="1039" y="1368" on="0"/>
        <pt x="1059" y="1411" on="0"/>
        <pt x="1065" y="1458" on="1"/>
        <pt x="1112" y="1458" on="1"/>
        <pt x="1102" y="1311" on="0"/>
        <pt x="1102" y="958" on="1"/>
        <pt x="1055" y="958" on="1"/>
        <pt x="1047" y="1075" on="0"/>
        <pt x="956" y="1289" on="0"/>
        <pt x="800" y="1423" on="0"/>
        <pt x="698" y="1423" on="1"/>
        <pt x="605" y="1423" on="0"/>
        <pt x="489" y="1323" on="0"/>
        <pt x="489" y="1233" on="1"/>
        <pt x="489" y="1164" on="0"/>
        <pt x="550" y="1062" on="0"/>
        <pt x="669" y="966" on="0"/>
        <pt x="802" y="874" on="1"/>
        <pt x="850" y="840" on="1"/>
        <pt x="963" y="761" on="0"/>
        <pt x="1097" y="642" on="0"/>
        <pt x="1182" y="482" on="0"/>
        <pt x="1182" y="377" on="1"/>
        <pt x="1182" y="244" on="0"/>
        <pt x="1032" y="61" on="0"/>
        <pt x="780" y="-29" on="0"/>
        <pt x="625" y="-29" on="1"/>
        <pt x="499" y="-29" on="0"/>
        <pt x="334" y="12" on="0"/>
        <pt x="262" y="47" on="1"/>
        <pt x="216" y="76" on="0"/>
        <pt x="193" y="76" on="1"/>
        <pt x="174" y="76" on="0"/>
        <pt x="154" y="34" on="0"/>
        <pt x="147" y="-14" on="1"/>
        <pt x="100" y="-14" on="1"/>
        <pt x="109" y="142" on="0"/>
        <pt x="109" y="580" on="1"/>
        <pt x="156" y="580" on="1"/>
        <pt x="169" y="337" on="0"/>
        <pt x="345" y="33" on="0"/>
        <pt x="528" y="33" on="1"/>
        <pt x="642" y="33" on="0"/>
        <pt x="774" y="139" on="0"/>
        <pt x="774" y="233" on="1"/>
        <pt x="774" y="314" on="0"/>
        <pt x="701" y="443" on="0"/>
        <pt x="577" y="550" on="0"/>
        <pt x="475" y="618" on="1"/>
        <pt x="351" y="701" on="0"/>
        <pt x="206" y="823" on="0"/>
        <pt x="111" y="986" on="0"/>
        <pt x="111" y="1092" on="1"/>
        <pt x="111" y="1220" on="0"/>
        <pt x="250" y="1395" on="0"/>
        <pt x="480" y="1479" on="0"/>
        <pt x="618" y="1479" on="1"/>
      </contour>
    </TTGlyph>
    <TTGlyph name="Sacute" xMin="100" yMin="-29" xMax="1182" yMax="1937">
      <component glyphName=".ttfautohint" x="100" y="0" flags="0x0"/>
      <component glyphName="S" x="0" y="0" flags="0x0"/>
      <component glyphName="acute.case" x="475" y="0" flags="0x0"/>
    </TTGlyph>
    <TTGlyph name="Sacute.loclPLK" xMin="100" yMin="-29" xMax="1182" yMax="1994">
      <component glyphName=".ttfautohint" x="100" y="0" flags="0x0"/>
      <component glyphName="S" x="0" y="0" flags="0x0"/>
      <component glyphName="acute.loclPLK.case" x="532" y="0" flags="0x0"/>
    </TTGlyph>
    <TTGlyph name="Scaron" xMin="100" yMin="-29" xMax="1182" yMax="1937">
      <component glyphName=".ttfautohint" x="100" y="0" flags="0x0"/>
      <component glyphName="S" x="0" y="0" flags="0x0"/>
      <component glyphName="caron.case" x="203" y="0" flags="0x0"/>
    </TTGlyph>
    <TTGlyph name="Scedilla" xMin="100" yMin="-385" xMax="1182" yMax="1479">
      <contour>
        <pt x="1182" y="245" on="0"/>
        <pt x="1035" y="63" on="0"/>
        <pt x="788" y="-27" on="0"/>
        <pt x="636" y="-29" on="1"/>
        <pt x="608" y="-123" on="1"/>
        <pt x="689" y="-92" on="0"/>
        <pt x="790" y="-92" on="1"/>
        <pt x="874" y="-92" on="0"/>
        <pt x="962" y="-158" on="0"/>
        <pt x="962" y="-211" on="1"/>
        <pt x="962" y="-297" on="0"/>
        <pt x="752" y="-385" on="0"/>
        <pt x="577" y="-385" on="1"/>
        <pt x="451" y="-385" on="0"/>
        <pt x="372" y="-358" on="1"/>
        <pt x="385" y="-322" on="1"/>
        <pt x="440" y="-332" on="0"/>
        <pt x="504" y="-332" on="1"/>
        <pt x="580" y="-332" on="0"/>
        <pt x="692" y="-292" on="0"/>
        <pt x="692" y="-254" on="1"/>
        <pt x="692" y="-203" on="0"/>
        <pt x="594" y="-203" on="1"/>
        <pt x="551" y="-203" on="0"/>
        <pt x="526" y="-217" on="1"/>
        <pt x="581" y="-28" on="1"/>
        <pt x="474" y="-25" on="0"/>
        <pt x="328" y="15" on="0"/>
        <pt x="262" y="47" on="1"/>
        <pt x="216" y="76" on="0"/>
        <pt x="193" y="76" on="1"/>
        <pt x="174" y="76" on="0"/>
        <pt x="154" y="34" on="0"/>
        <pt x="147" y="-14" on="1"/>
        <pt x="100" y="-14" on="1"/>
        <pt x="109" y="142" on="0"/>
        <pt x="109" y="580" on="1"/>
        <pt x="156" y="580" on="1"/>
        <pt x="169" y="337" on="0"/>
        <pt x="345" y="33" on="0"/>
        <pt x="528" y="33" on="1"/>
        <pt x="642" y="33" on="0"/>
        <pt x="774" y="139" on="0"/>
        <pt x="774" y="233" on="1"/>
        <pt x="774" y="314" on="0"/>
        <pt x="701" y="443" on="0"/>
        <pt x="577" y="550" on="0"/>
        <pt x="475" y="618" on="1"/>
        <pt x="351" y="701" on="0"/>
        <pt x="206" y="823" on="0"/>
        <pt x="111" y="986" on="0"/>
        <pt x="111" y="1092" on="1"/>
        <pt x="111" y="1220" on="0"/>
        <pt x="250" y="1395" on="0"/>
        <pt x="480" y="1479" on="0"/>
        <pt x="618" y="1479" on="1"/>
        <pt x="736" y="1479" on="0"/>
        <pt x="882" y="1435" on="0"/>
        <pt x="950" y="1397" on="1"/>
        <pt x="979" y="1381" on="0"/>
        <pt x="1007" y="1368" on="0"/>
        <pt x="1020" y="1368" on="1"/>
        <pt x="1039" y="1368" on="0"/>
        <pt x="1059" y="1411" on="0"/>
        <pt x="1065" y="1458" on="1"/>
        <pt x="1112" y="1458" on="1"/>
        <pt x="1102" y="1311" on="0"/>
        <pt x="1102" y="958" on="1"/>
        <pt x="1055" y="958" on="1"/>
        <pt x="1047" y="1075" on="0"/>
        <pt x="956" y="1289" on="0"/>
        <pt x="800" y="1423" on="0"/>
        <pt x="698" y="1423" on="1"/>
        <pt x="605" y="1423" on="0"/>
        <pt x="489" y="1323" on="0"/>
        <pt x="489" y="1233" on="1"/>
        <pt x="489" y="1164" on="0"/>
        <pt x="550" y="1062" on="0"/>
        <pt x="669" y="966" on="0"/>
        <pt x="802" y="874" on="1"/>
        <pt x="850" y="840" on="1"/>
        <pt x="963" y="761" on="0"/>
        <pt x="1097" y="642" on="0"/>
        <pt x="1182" y="482" on="0"/>
        <pt x="1182" y="377" on="1"/>
      </contour>
    </TTGlyph>
    <TTGlyph name="Scircumflex" xMin="100" yMin="-29" xMax="1182" yMax="1958">
      <component glyphName=".ttfautohint" x="100" y="0" flags="0x0"/>
      <component glyphName="S" x="0" y="0" flags="0x0"/>
      <component glyphName="circumflex.case" x="209" y="0" flags="0x0"/>
    </TTGlyph>
    <TTGlyph name="Scommaaccent" xMin="100" yMin="-502" xMax="1182" yMax="1479">
      <component glyphName=".ttfautohint" x="100" y="0" flags="0x0"/>
      <component glyphName="S" x="0" y="0" flags="0x0"/>
      <component glyphName="commaaccentcomb.case" x="424" y="0" flags="0x0"/>
    </TTGlyph>
    <TTGlyph name="T" xMin="47" yMin="0" xMax="1384" yMax="1450">
      <contour>
        <pt x="1370" y="1223" on="0"/>
        <pt x="1370" y="1044" on="1"/>
        <pt x="1370" y="950" on="0"/>
        <pt x="1376" y="897" on="1"/>
        <pt x="1329" y="897" on="1"/>
        <pt x="1262" y="1166" on="0"/>
        <pt x="1049" y="1403" on="0"/>
        <pt x="926" y="1403" on="1"/>
        <pt x="924" y="1403" on="1"/>
        <pt x="924" y="231" on="1"/>
        <pt x="924" y="145" on="0"/>
        <pt x="959" y="67" on="0"/>
        <pt x="1051" y="41" on="0"/>
        <pt x="1151" y="41" on="1"/>
        <pt x="1151" y="0" on="1"/>
        <pt x="1135" y="0" on="0"/>
        <pt x="1127" y="1" on="1"/>
        <pt x="877" y="6" on="0"/>
        <pt x="702" y="6" on="1"/>
        <pt x="548" y="6" on="0"/>
        <pt x="313" y="1" on="1"/>
        <pt x="301" y="0" on="0"/>
        <pt x="281" y="0" on="1"/>
        <pt x="281" y="41" on="1"/>
        <pt x="381" y="41" on="0"/>
        <pt x="473" y="67" on="0"/>
        <pt x="508" y="145" on="0"/>
        <pt x="508" y="231" on="1"/>
        <pt x="508" y="1403" on="1"/>
        <pt x="506" y="1403" on="1"/>
        <pt x="381" y="1403" on="0"/>
        <pt x="170" y="1168" on="0"/>
        <pt x="102" y="897" on="1"/>
        <pt x="55" y="897" on="1"/>
        <pt x="61" y="950" on="0"/>
        <pt x="61" y="1044" on="1"/>
        <pt x="61" y="1223" on="0"/>
        <pt x="47" y="1450" on="1"/>
        <pt x="242" y="1444" on="0"/>
        <pt x="717" y="1444" on="1"/>
        <pt x="1190" y="1444" on="0"/>
        <pt x="1384" y="1450" on="1"/>
      </contour>
    </TTGlyph>
    <TTGlyph name="Tbar" xMin="47" yMin="0" xMax="1384" yMax="1450">
      <contour>
        <pt x="1370" y="1223" on="0"/>
        <pt x="1370" y="1044" on="1"/>
        <pt x="1370" y="950" on="0"/>
        <pt x="1376" y="897" on="1"/>
        <pt x="1329" y="897" on="1"/>
        <pt x="1262" y="1166" on="0"/>
        <pt x="1049" y="1403" on="0"/>
        <pt x="926" y="1403" on="1"/>
        <pt x="924" y="1403" on="1"/>
        <pt x="924" y="750" on="1"/>
        <pt x="1157" y="750" on="1"/>
        <pt x="1157" y="709" on="1"/>
        <pt x="924" y="709" on="1"/>
        <pt x="924" y="231" on="1"/>
        <pt x="924" y="145" on="0"/>
        <pt x="959" y="67" on="0"/>
        <pt x="1051" y="41" on="0"/>
        <pt x="1151" y="41" on="1"/>
        <pt x="1151" y="0" on="1"/>
        <pt x="1135" y="0" on="0"/>
        <pt x="1127" y="1" on="1"/>
        <pt x="877" y="6" on="0"/>
        <pt x="702" y="6" on="1"/>
        <pt x="548" y="6" on="0"/>
        <pt x="313" y="1" on="1"/>
        <pt x="301" y="0" on="0"/>
        <pt x="281" y="0" on="1"/>
        <pt x="281" y="41" on="1"/>
        <pt x="381" y="41" on="0"/>
        <pt x="473" y="67" on="0"/>
        <pt x="508" y="145" on="0"/>
        <pt x="508" y="231" on="1"/>
        <pt x="508" y="709" on="1"/>
        <pt x="248" y="709" on="1"/>
        <pt x="248" y="750" on="1"/>
        <pt x="508" y="750" on="1"/>
        <pt x="508" y="1403" on="1"/>
        <pt x="506" y="1403" on="1"/>
        <pt x="381" y="1403" on="0"/>
        <pt x="170" y="1168" on="0"/>
        <pt x="102" y="897" on="1"/>
        <pt x="55" y="897" on="1"/>
        <pt x="61" y="950" on="0"/>
        <pt x="61" y="1044" on="1"/>
        <pt x="61" y="1223" on="0"/>
        <pt x="47" y="1450" on="1"/>
        <pt x="242" y="1444" on="0"/>
        <pt x="717" y="1444" on="1"/>
        <pt x="1190" y="1444" on="0"/>
        <pt x="1384" y="1450" on="1"/>
      </contour>
    </TTGlyph>
    <TTGlyph name="Tcaron" xMin="47" yMin="0" xMax="1384" yMax="1937">
      <component glyphName=".ttfautohint" x="47" y="0" flags="0x0"/>
      <component glyphName="T" x="0" y="0" flags="0x0"/>
      <component glyphName="caron.case" x="279" y="0" flags="0x0"/>
    </TTGlyph>
    <TTGlyph name="Tcedilla" xMin="47" yMin="-385" xMax="1384" yMax="1450">
      <contour>
        <pt x="1370" y="1223" on="0"/>
        <pt x="1370" y="1044" on="1"/>
        <pt x="1370" y="949" on="0"/>
        <pt x="1376" y="897" on="1"/>
        <pt x="1329" y="897" on="1"/>
        <pt x="1262" y="1166" on="0"/>
        <pt x="1049" y="1403" on="0"/>
        <pt x="926" y="1403" on="1"/>
        <pt x="924" y="1403" on="1"/>
        <pt x="924" y="231" on="1"/>
        <pt x="924" y="145" on="0"/>
        <pt x="959" y="67" on="0"/>
        <pt x="1051" y="41" on="0"/>
        <pt x="1151" y="41" on="1"/>
        <pt x="1151" y="0" on="1"/>
        <pt x="1135" y="0" on="0"/>
        <pt x="1127" y="1" on="1"/>
        <pt x="1076" y="2" on="0"/>
        <pt x="838" y="6" on="0"/>
        <pt x="737" y="6" on="1"/>
        <pt x="699" y="-123" on="1"/>
        <pt x="780" y="-92" on="0"/>
        <pt x="881" y="-92" on="1"/>
        <pt x="965" y="-92" on="0"/>
        <pt x="1053" y="-158" on="0"/>
        <pt x="1053" y="-211" on="1"/>
        <pt x="1053" y="-297" on="0"/>
        <pt x="843" y="-385" on="0"/>
        <pt x="668" y="-385" on="1"/>
        <pt x="542" y="-385" on="0"/>
        <pt x="463" y="-358" on="1"/>
        <pt x="476" y="-322" on="1"/>
        <pt x="531" y="-332" on="0"/>
        <pt x="595" y="-332" on="1"/>
        <pt x="671" y="-332" on="0"/>
        <pt x="783" y="-292" on="0"/>
        <pt x="783" y="-254" on="1"/>
        <pt x="783" y="-203" on="0"/>
        <pt x="685" y="-203" on="1"/>
        <pt x="642" y="-203" on="0"/>
        <pt x="617" y="-217" on="1"/>
        <pt x="682" y="6" on="1"/>
        <pt x="538" y="6" on="0"/>
        <pt x="313" y="1" on="1"/>
        <pt x="301" y="0" on="0"/>
        <pt x="281" y="0" on="1"/>
        <pt x="281" y="41" on="1"/>
        <pt x="381" y="41" on="0"/>
        <pt x="473" y="67" on="0"/>
        <pt x="508" y="145" on="0"/>
        <pt x="508" y="231" on="1"/>
        <pt x="508" y="1403" on="1"/>
        <pt x="506" y="1403" on="1"/>
        <pt x="381" y="1403" on="0"/>
        <pt x="170" y="1168" on="0"/>
        <pt x="102" y="897" on="1"/>
        <pt x="55" y="897" on="1"/>
        <pt x="61" y="950" on="0"/>
        <pt x="61" y="1044" on="1"/>
        <pt x="61" y="1223" on="0"/>
        <pt x="47" y="1450" on="1"/>
        <pt x="242" y="1444" on="0"/>
        <pt x="717" y="1444" on="1"/>
        <pt x="1190" y="1444" on="0"/>
        <pt x="1384" y="1450" on="1"/>
      </contour>
    </TTGlyph>
    <TTGlyph name="Thorn" xMin="57" yMin="0" xMax="1300" yMax="1450">
      <contour>
        <pt x="618" y="217" on="1"/>
        <pt x="618" y="140" on="0"/>
        <pt x="640" y="70" on="0"/>
        <pt x="699" y="44" on="0"/>
        <pt x="764" y="41" on="1"/>
        <pt x="764" y="0" on="1"/>
        <pt x="644" y="6" on="0"/>
        <pt x="422" y="6" on="1"/>
        <pt x="174" y="6" on="0"/>
        <pt x="57" y="0" on="1"/>
        <pt x="57" y="41" on="1"/>
        <pt x="123" y="44" on="0"/>
        <pt x="182" y="70" on="0"/>
        <pt x="203" y="140" on="0"/>
        <pt x="203" y="217" on="1"/>
        <pt x="203" y="1233" on="1"/>
        <pt x="203" y="1310" on="0"/>
        <pt x="181" y="1380" on="0"/>
        <pt x="122" y="1406" on="0"/>
        <pt x="57" y="1409" on="1"/>
        <pt x="57" y="1450" on="1"/>
        <pt x="174" y="1444" on="0"/>
        <pt x="422" y="1444" on="1"/>
        <pt x="644" y="1444" on="0"/>
        <pt x="764" y="1450" on="1"/>
        <pt x="764" y="1409" on="1"/>
        <pt x="698" y="1406" on="0"/>
        <pt x="639" y="1380" on="0"/>
        <pt x="618" y="1310" on="0"/>
        <pt x="618" y="1233" on="1"/>
        <pt x="618" y="1173" on="1"/>
        <pt x="684" y="1174" on="1"/>
        <pt x="997" y="1174" on="0"/>
        <pt x="1300" y="984" on="0"/>
        <pt x="1300" y="784" on="1"/>
        <pt x="1300" y="573" on="0"/>
        <pt x="1001" y="311" on="0"/>
        <pt x="639" y="311" on="1"/>
        <pt x="618" y="311" on="1"/>
      </contour>
      <contour>
        <pt x="618" y="1135" on="1"/>
        <pt x="618" y="352" on="1"/>
        <pt x="762" y="352" on="0"/>
        <pt x="870" y="572" on="0"/>
        <pt x="870" y="762" on="1"/>
        <pt x="870" y="952" on="0"/>
        <pt x="761" y="1135" on="0"/>
        <pt x="633" y="1135" on="1"/>
      </contour>
    </TTGlyph>
    <TTGlyph name="U" xMin="27" yMin="-29" xMax="1395" yMax="1450">
      <contour>
        <pt x="1331" y="1395" on="0"/>
        <pt x="1270" y="1335" on="0"/>
        <pt x="1249" y="1212" on="0"/>
        <pt x="1249" y="1090" on="1"/>
        <pt x="1249" y="596" on="1"/>
        <pt x="1249" y="299" on="0"/>
        <pt x="1165" y="162" on="1"/>
        <pt x="1051" y="-29" on="0"/>
        <pt x="725" y="-29" on="1"/>
        <pt x="478" y="-29" on="0"/>
        <pt x="340" y="70" on="1"/>
        <pt x="272" y="119" on="0"/>
        <pt x="199" y="263" on="0"/>
        <pt x="172" y="453" on="0"/>
        <pt x="172" y="590" on="1"/>
        <pt x="172" y="1233" on="1"/>
        <pt x="172" y="1311" on="0"/>
        <pt x="151" y="1380" on="0"/>
        <pt x="93" y="1406" on="0"/>
        <pt x="27" y="1409" on="1"/>
        <pt x="27" y="1450" on="1"/>
        <pt x="142" y="1444" on="0"/>
        <pt x="387" y="1444" on="1"/>
        <pt x="628" y="1444" on="0"/>
        <pt x="754" y="1450" on="1"/>
        <pt x="754" y="1409" on="1"/>
        <pt x="680" y="1406" on="0"/>
        <pt x="613" y="1380" on="0"/>
        <pt x="588" y="1310" on="0"/>
        <pt x="588" y="1233" on="1"/>
        <pt x="588" y="397" on="1"/>
        <pt x="588" y="264" on="0"/>
        <pt x="644" y="109" on="0"/>
        <pt x="756" y="43" on="0"/>
        <pt x="844" y="43" on="1"/>
        <pt x="1039" y="43" on="0"/>
        <pt x="1202" y="318" on="0"/>
        <pt x="1202" y="573" on="1"/>
        <pt x="1202" y="1049" on="1"/>
        <pt x="1202" y="1200" on="0"/>
        <pt x="1178" y="1332" on="0"/>
        <pt x="1094" y="1395" on="0"/>
        <pt x="995" y="1409" on="1"/>
        <pt x="995" y="1450" on="1"/>
        <pt x="1079" y="1444" on="0"/>
        <pt x="1225" y="1444" on="1"/>
        <pt x="1333" y="1444" on="0"/>
        <pt x="1395" y="1450" on="1"/>
        <pt x="1395" y="1409" on="1"/>
      </contour>
    </TTGlyph>
    <TTGlyph name="Uacute" xMin="27" yMin="-29" xMax="1395" yMax="1937">
      <component glyphName=".ttfautohint" x="27" y="0" flags="0x0"/>
      <component glyphName="U" x="0" y="0" flags="0x0"/>
      <component glyphName="acute.case" x="573" y="0" flags="0x0"/>
    </TTGlyph>
    <TTGlyph name="Ubreve" xMin="27" yMin="-29" xMax="1395" yMax="1884">
      <component glyphName=".ttfautohint" x="27" y="0" flags="0x0"/>
      <component glyphName="U" x="0" y="0" flags="0x0"/>
      <component glyphName="breve.case" x="280" y="0" flags="0x0"/>
    </TTGlyph>
    <TTGlyph name="Ucircumflex" xMin="27" yMin="-29" xMax="1395" yMax="1958">
      <component glyphName=".ttfautohint" x="27" y="0" flags="0x0"/>
      <component glyphName="U" x="0" y="0" flags="0x0"/>
      <component glyphName="circumflex.case" x="307" y="0" flags="0x0"/>
    </TTGlyph>
    <TTGlyph name="Udieresis" xMin="27" yMin="-29" xMax="1395" yMax="1917">
      <component glyphName=".ttfautohint" x="27" y="0" flags="0x0"/>
      <component glyphName="U" x="0" y="0" flags="0x0"/>
      <component glyphName="dieresis.case" x="352" y="0" flags="0x0"/>
    </TTGlyph>
    <TTGlyph name="Ugrave" xMin="27" yMin="-29" xMax="1395" yMax="1937">
      <component glyphName=".ttfautohint" x="27" y="0" flags="0x0"/>
      <component glyphName="U" x="0" y="0" flags="0x0"/>
      <component glyphName="grave.case" x="354" y="0" flags="0x0"/>
    </TTGlyph>
    <TTGlyph name="Uhungarumlaut" xMin="27" yMin="-29" xMax="1395" yMax="1955">
      <component glyphName=".ttfautohint" x="27" y="0" flags="0x0"/>
      <component glyphName="U" x="0" y="0" flags="0x0"/>
      <component glyphName="hungarumlaut.case" x="323" y="0" flags="0x0"/>
    </TTGlyph>
    <TTGlyph name="Umacron" xMin="27" yMin="-29" xMax="1395" yMax="1729">
      <component glyphName=".ttfautohint" x="27" y="0" flags="0x0"/>
      <component glyphName="U" x="0" y="0" flags="0x0"/>
      <component glyphName="macron.case" x="327" y="0" flags="0x0"/>
    </TTGlyph>
    <TTGlyph name="Uogonek" xMin="27" yMin="-385" xMax="1395" yMax="1450">
      <contour>
        <pt x="1333" y="1444" on="0"/>
        <pt x="1395" y="1450" on="1"/>
        <pt x="1395" y="1409" on="1"/>
        <pt x="1331" y="1395" on="0"/>
        <pt x="1270" y="1335" on="0"/>
        <pt x="1249" y="1212" on="0"/>
        <pt x="1249" y="1090" on="1"/>
        <pt x="1249" y="596" on="1"/>
        <pt x="1249" y="299" on="0"/>
        <pt x="1165" y="162" on="1"/>
        <pt x="1094" y="44" on="0"/>
        <pt x="947" y="-1" on="1"/>
        <pt x="838" y="-40" on="0"/>
        <pt x="735" y="-138" on="0"/>
        <pt x="735" y="-184" on="1"/>
        <pt x="735" y="-225" on="0"/>
        <pt x="775" y="-262" on="0"/>
        <pt x="817" y="-262" on="1"/>
        <pt x="851" y="-262" on="0"/>
        <pt x="929" y="-235" on="0"/>
        <pt x="952" y="-215" on="1"/>
        <pt x="979" y="-246" on="1"/>
        <pt x="919" y="-320" on="0"/>
        <pt x="772" y="-385" on="0"/>
        <pt x="665" y="-385" on="1"/>
        <pt x="566" y="-385" on="0"/>
        <pt x="463" y="-310" on="0"/>
        <pt x="463" y="-240" on="1"/>
        <pt x="463" y="-172" on="0"/>
        <pt x="599" y="-65" on="0"/>
        <pt x="726" y="-29" on="1"/>
        <pt x="725" y="-29" on="1"/>
        <pt x="478" y="-29" on="0"/>
        <pt x="340" y="70" on="1"/>
        <pt x="272" y="119" on="0"/>
        <pt x="199" y="263" on="0"/>
        <pt x="172" y="453" on="0"/>
        <pt x="172" y="590" on="1"/>
        <pt x="172" y="1233" on="1"/>
        <pt x="172" y="1311" on="0"/>
        <pt x="151" y="1380" on="0"/>
        <pt x="93" y="1406" on="0"/>
        <pt x="27" y="1409" on="1"/>
        <pt x="27" y="1450" on="1"/>
        <pt x="142" y="1444" on="0"/>
        <pt x="387" y="1444" on="1"/>
        <pt x="628" y="1444" on="0"/>
        <pt x="754" y="1450" on="1"/>
        <pt x="754" y="1409" on="1"/>
        <pt x="680" y="1406" on="0"/>
        <pt x="613" y="1380" on="0"/>
        <pt x="588" y="1310" on="0"/>
        <pt x="588" y="1233" on="1"/>
        <pt x="588" y="397" on="1"/>
        <pt x="588" y="264" on="0"/>
        <pt x="644" y="109" on="0"/>
        <pt x="756" y="43" on="0"/>
        <pt x="844" y="43" on="1"/>
        <pt x="1039" y="43" on="0"/>
        <pt x="1202" y="318" on="0"/>
        <pt x="1202" y="573" on="1"/>
        <pt x="1202" y="1049" on="1"/>
        <pt x="1202" y="1200" on="0"/>
        <pt x="1178" y="1332" on="0"/>
        <pt x="1094" y="1395" on="0"/>
        <pt x="995" y="1409" on="1"/>
        <pt x="995" y="1450" on="1"/>
        <pt x="1079" y="1444" on="0"/>
        <pt x="1225" y="1444" on="1"/>
      </contour>
    </TTGlyph>
    <TTGlyph name="Uring" xMin="27" yMin="-29" xMax="1395" yMax="2037">
      <component glyphName=".ttfautohint" x="27" y="0" flags="0x0"/>
      <component glyphName="U" x="0" y="0" flags="0x0"/>
      <component glyphName="ring" x="471" y="397" flags="0x0"/>
    </TTGlyph>
    <TTGlyph name="Utilde" xMin="27" yMin="-29" xMax="1395" yMax="1921">
      <component glyphName=".ttfautohint" x="27" y="0" flags="0x0"/>
      <component glyphName="U" x="0" y="0" flags="0x0"/>
      <component glyphName="tilde.case" x="254" y="0" flags="0x0"/>
    </TTGlyph>
    <TTGlyph name="V" xMin="-33" yMin="0" xMax="1444" yMax="1450">
      <contour>
        <pt x="1383" y="1444" on="0"/>
        <pt x="1444" y="1450" on="1"/>
        <pt x="1444" y="1409" on="1"/>
        <pt x="1389" y="1383" on="0"/>
        <pt x="1281" y="1243" on="0"/>
        <pt x="1239" y="1122" on="1"/>
        <pt x="840" y="0" on="1"/>
        <pt x="774" y="4" on="0"/>
        <pt x="731" y="4" on="1"/>
        <pt x="689" y="4" on="0"/>
        <pt x="625" y="0" on="1"/>
        <pt x="88" y="1278" on="1"/>
        <pt x="61" y="1344" on="0"/>
        <pt x="-3" y="1407" on="0"/>
        <pt x="-33" y="1409" on="1"/>
        <pt x="-33" y="1450" on="1"/>
        <pt x="116" y="1444" on="0"/>
        <pt x="340" y="1444" on="1"/>
        <pt x="573" y="1444" on="0"/>
        <pt x="684" y="1450" on="1"/>
        <pt x="684" y="1409" on="1"/>
        <pt x="608" y="1406" on="0"/>
        <pt x="540" y="1376" on="0"/>
        <pt x="540" y="1334" on="1"/>
        <pt x="540" y="1299" on="0"/>
        <pt x="565" y="1237" on="1"/>
        <pt x="920" y="364" on="1"/>
        <pt x="1118" y="922" on="1"/>
        <pt x="1185" y="1113" on="0"/>
        <pt x="1185" y="1226" on="1"/>
        <pt x="1185" y="1403" on="0"/>
        <pt x="1018" y="1409" on="1"/>
        <pt x="1018" y="1450" on="1"/>
        <pt x="1171" y="1444" on="0"/>
        <pt x="1286" y="1444" on="1"/>
      </contour>
    </TTGlyph>
    <TTGlyph name="W" xMin="-31" yMin="0" xMax="2085" yMax="1450">
      <contour>
        <pt x="2024" y="1444" on="0"/>
        <pt x="2085" y="1450" on="1"/>
        <pt x="2085" y="1409" on="1"/>
        <pt x="1964" y="1350" on="0"/>
        <pt x="1894" y="1122" on="1"/>
        <pt x="1550" y="0" on="1"/>
        <pt x="1486" y="4" on="0"/>
        <pt x="1442" y="4" on="1"/>
        <pt x="1401" y="4" on="0"/>
        <pt x="1335" y="0" on="1"/>
        <pt x="1069" y="813" on="1"/>
        <pt x="780" y="0" on="1"/>
        <pt x="716" y="4" on="0"/>
        <pt x="672" y="4" on="1"/>
        <pt x="631" y="4" on="0"/>
        <pt x="565" y="0" on="1"/>
        <pt x="90" y="1278" on="1"/>
        <pt x="66" y="1343" on="0"/>
        <pt x="0" y="1407" on="0"/>
        <pt x="-31" y="1409" on="1"/>
        <pt x="-31" y="1450" on="1"/>
        <pt x="118" y="1444" on="0"/>
        <pt x="332" y="1444" on="1"/>
        <pt x="519" y="1444" on="0"/>
        <pt x="604" y="1450" on="1"/>
        <pt x="604" y="1409" on="1"/>
        <pt x="550" y="1398" on="0"/>
        <pt x="550" y="1327" on="1"/>
        <pt x="550" y="1281" on="0"/>
        <pt x="567" y="1237" on="1"/>
        <pt x="865" y="402" on="1"/>
        <pt x="1044" y="888" on="1"/>
        <pt x="905" y="1313" on="1"/>
        <pt x="889" y="1363" on="0"/>
        <pt x="839" y="1406" on="0"/>
        <pt x="801" y="1409" on="1"/>
        <pt x="801" y="1450" on="1"/>
        <pt x="939" y="1444" on="0"/>
        <pt x="1155" y="1444" on="1"/>
        <pt x="1368" y="1444" on="0"/>
        <pt x="1473" y="1450" on="1"/>
        <pt x="1473" y="1409" on="1"/>
        <pt x="1398" y="1407" on="0"/>
        <pt x="1333" y="1375" on="0"/>
        <pt x="1333" y="1331" on="1"/>
        <pt x="1333" y="1297" on="0"/>
        <pt x="1354" y="1237" on="1"/>
        <pt x="1624" y="416" on="1"/>
        <pt x="1782" y="922" on="1"/>
        <pt x="1836" y="1099" on="0"/>
        <pt x="1836" y="1208" on="1"/>
        <pt x="1836" y="1311" on="0"/>
        <pt x="1745" y="1406" on="0"/>
        <pt x="1659" y="1409" on="1"/>
        <pt x="1659" y="1450" on="1"/>
        <pt x="1812" y="1444" on="0"/>
        <pt x="1927" y="1444" on="1"/>
      </contour>
    </TTGlyph>
    <TTGlyph name="Wacute" xMin="-31" yMin="0" xMax="2085" yMax="1937">
      <component glyphName=".ttfautohint" x="0" y="0" flags="0x0"/>
      <component glyphName="W" x="0" y="0" flags="0x0"/>
      <component glyphName="acute.case" x="909" y="0" flags="0x0"/>
    </TTGlyph>
    <TTGlyph name="Wcircumflex" xMin="-31" yMin="0" xMax="2085" yMax="1958">
      <component glyphName=".ttfautohint" x="0" y="0" flags="0x0"/>
      <component glyphName="W" x="0" y="0" flags="0x0"/>
      <component glyphName="circumflex.case" x="643" y="0" flags="0x0"/>
    </TTGlyph>
    <TTGlyph name="Wdieresis" xMin="-31" yMin="0" xMax="2085" yMax="1917">
      <component glyphName=".ttfautohint" x="0" y="0" flags="0x0"/>
      <component glyphName="W" x="0" y="0" flags="0x0"/>
      <component glyphName="dieresis.case" x="688" y="0" flags="0x0"/>
    </TTGlyph>
    <TTGlyph name="Wgrave" xMin="-31" yMin="0" xMax="2085" yMax="1937">
      <component glyphName=".ttfautohint" x="0" y="0" flags="0x0"/>
      <component glyphName="W" x="0" y="0" flags="0x0"/>
      <component glyphName="grave.case" x="690" y="0" flags="0x0"/>
    </TTGlyph>
    <TTGlyph name="X" xMin="-12" yMin="0" xMax="1544" yMax="1452">
      <contour>
        <pt x="1448" y="102" on="0"/>
        <pt x="1482" y="63" on="0"/>
        <pt x="1517" y="45" on="0"/>
        <pt x="1544" y="43" on="1"/>
        <pt x="1544" y="0" on="1"/>
        <pt x="1498" y="1" on="1"/>
        <pt x="1321" y="8" on="0"/>
        <pt x="1194" y="8" on="1"/>
        <pt x="1061" y="8" on="0"/>
        <pt x="881" y="1" on="1"/>
        <pt x="838" y="0" on="1"/>
        <pt x="838" y="43" on="1"/>
        <pt x="904" y="43" on="0"/>
        <pt x="965" y="58" on="0"/>
        <pt x="965" y="78" on="1"/>
        <pt x="965" y="92" on="0"/>
        <pt x="950" y="113" on="1"/>
        <pt x="609" y="601" on="1"/>
        <pt x="483" y="444" on="1"/>
        <pt x="378" y="315" on="0"/>
        <pt x="378" y="204" on="1"/>
        <pt x="378" y="134" on="0"/>
        <pt x="469" y="47" on="0"/>
        <pt x="549" y="41" on="1"/>
        <pt x="549" y="0" on="1"/>
        <pt x="432" y="6" on="0"/>
        <pt x="195" y="6" on="1"/>
        <pt x="64" y="6" on="0"/>
        <pt x="-4" y="0" on="1"/>
        <pt x="-4" y="41" on="1"/>
        <pt x="156" y="108" on="0"/>
        <pt x="336" y="332" on="1"/>
        <pt x="582" y="640" on="1"/>
        <pt x="115" y="1307" on="1"/>
        <pt x="84" y="1350" on="0"/>
        <pt x="50" y="1389" on="0"/>
        <pt x="15" y="1407" on="0"/>
        <pt x="-12" y="1409" on="1"/>
        <pt x="-12" y="1452" on="1"/>
        <pt x="-1" y="1452" on="0"/>
        <pt x="37" y="1450" on="1"/>
        <pt x="280" y="1444" on="0"/>
        <pt x="358" y="1444" on="1"/>
        <pt x="477" y="1444" on="0"/>
        <pt x="645" y="1451" on="1"/>
        <pt x="688" y="1452" on="1"/>
        <pt x="688" y="1409" on="1"/>
        <pt x="621" y="1409" on="0"/>
        <pt x="560" y="1394" on="0"/>
        <pt x="560" y="1374" on="1"/>
        <pt x="560" y="1360" on="0"/>
        <pt x="575" y="1339" on="1"/>
        <pt x="872" y="917" on="1"/>
        <pt x="989" y="1061" on="1"/>
        <pt x="1092" y="1180" on="0"/>
        <pt x="1092" y="1276" on="1"/>
        <pt x="1092" y="1333" on="0"/>
        <pt x="1017" y="1403" on="0"/>
        <pt x="948" y="1409" on="1"/>
        <pt x="948" y="1450" on="1"/>
        <pt x="1065" y="1444" on="0"/>
        <pt x="1221" y="1444" on="1"/>
        <pt x="1352" y="1444" on="0"/>
        <pt x="1419" y="1450" on="1"/>
        <pt x="1419" y="1409" on="1"/>
        <pt x="1353" y="1385" on="0"/>
        <pt x="1207" y="1257" on="0"/>
        <pt x="1143" y="1178" on="1"/>
        <pt x="899" y="879" on="1"/>
        <pt x="1417" y="145" on="1"/>
      </contour>
    </TTGlyph>
    <TTGlyph name="Y" xMin="-18" yMin="0" xMax="1303" yMax="1452">
      <contour>
        <pt x="1241" y="1446" on="0"/>
        <pt x="1303" y="1452" on="1"/>
        <pt x="1303" y="1411" on="1"/>
        <pt x="1197" y="1359" on="0"/>
        <pt x="1085" y="1139" on="1"/>
        <pt x="895" y="762" on="1"/>
        <pt x="895" y="217" on="1"/>
        <pt x="895" y="140" on="0"/>
        <pt x="917" y="70" on="0"/>
        <pt x="975" y="44" on="0"/>
        <pt x="1040" y="41" on="1"/>
        <pt x="1040" y="0" on="1"/>
        <pt x="922" y="6" on="0"/>
        <pt x="688" y="6" on="1"/>
        <pt x="445" y="6" on="0"/>
        <pt x="334" y="0" on="1"/>
        <pt x="334" y="41" on="1"/>
        <pt x="400" y="44" on="0"/>
        <pt x="458" y="70" on="0"/>
        <pt x="479" y="139" on="0"/>
        <pt x="479" y="217" on="1"/>
        <pt x="479" y="594" on="1"/>
        <pt x="100" y="1294" on="1"/>
        <pt x="67" y="1354" on="0"/>
        <pt x="6" y="1409" on="0"/>
        <pt x="-18" y="1409" on="1"/>
        <pt x="-18" y="1452" on="1"/>
        <pt x="108" y="1440" on="0"/>
        <pt x="264" y="1440" on="1"/>
        <pt x="441" y="1440" on="0"/>
        <pt x="715" y="1452" on="1"/>
        <pt x="715" y="1409" on="1"/>
        <pt x="632" y="1409" on="0"/>
        <pt x="550" y="1393" on="0"/>
        <pt x="550" y="1362" on="1"/>
        <pt x="550" y="1349" on="0"/>
        <pt x="559" y="1331" on="1"/>
        <pt x="851" y="769" on="1"/>
        <pt x="944" y="954" on="1"/>
        <pt x="1041" y="1148" on="0"/>
        <pt x="1041" y="1259" on="1"/>
        <pt x="1041" y="1404" on="0"/>
        <pt x="877" y="1411" on="1"/>
        <pt x="877" y="1452" on="1"/>
        <pt x="1030" y="1446" on="0"/>
        <pt x="1145" y="1446" on="1"/>
      </contour>
    </TTGlyph>
    <TTGlyph name="Yacute" xMin="-18" yMin="0" xMax="1303" yMax="1937">
      <component glyphName=".ttfautohint" x="0" y="0" flags="0x0"/>
      <component glyphName="Y" x="0" y="0" flags="0x0"/>
      <component glyphName="acute.case" x="547" y="0" flags="0x0"/>
    </TTGlyph>
    <TTGlyph name="Ycircumflex" xMin="-18" yMin="0" xMax="1303" yMax="1958">
      <component glyphName=".ttfautohint" x="0" y="0" flags="0x0"/>
      <component glyphName="Y" x="0" y="0" flags="0x0"/>
      <component glyphName="circumflex.case" x="281" y="0" flags="0x0"/>
    </TTGlyph>
    <TTGlyph name="Ydieresis" xMin="-18" yMin="0" xMax="1303" yMax="1917">
      <component glyphName=".ttfautohint" x="0" y="0" flags="0x0"/>
      <component glyphName="Y" x="0" y="0" flags="0x0"/>
      <component glyphName="dieresis.case" x="326" y="0" flags="0x0"/>
    </TTGlyph>
    <TTGlyph name="Ygrave" xMin="-18" yMin="0" xMax="1303" yMax="1937">
      <component glyphName=".ttfautohint" x="0" y="0" flags="0x0"/>
      <component glyphName="Y" x="0" y="0" flags="0x0"/>
      <component glyphName="grave.case" x="328" y="0" flags="0x0"/>
    </TTGlyph>
    <TTGlyph name="Z" xMin="76" yMin="0" xMax="1165" yMax="1450">
      <contour>
        <pt x="528" y="47" on="1"/>
        <pt x="614" y="47" on="1"/>
        <pt x="698" y="47" on="0"/>
        <pt x="915" y="144" on="0"/>
        <pt x="1091" y="362" on="0"/>
        <pt x="1110" y="532" on="1"/>
        <pt x="1157" y="532" on="1"/>
        <pt x="1151" y="459" on="0"/>
        <pt x="1151" y="344" on="1"/>
        <pt x="1151" y="135" on="0"/>
        <pt x="1165" y="0" on="1"/>
        <pt x="1014" y="6" on="0"/>
        <pt x="655" y="6" on="1"/>
        <pt x="256" y="6" on="0"/>
        <pt x="76" y="0" on="1"/>
        <pt x="76" y="41" on="1"/>
        <pt x="696" y="1403" on="1"/>
        <pt x="594" y="1403" on="1"/>
        <pt x="498" y="1403" on="0"/>
        <pt x="306" y="1320" on="0"/>
        <pt x="157" y="1121" on="0"/>
        <pt x="135" y="958" on="1"/>
        <pt x="88" y="958" on="1"/>
        <pt x="94" y="1011" on="0"/>
        <pt x="94" y="1106" on="1"/>
        <pt x="94" y="1258" on="0"/>
        <pt x="80" y="1450" on="1"/>
        <pt x="207" y="1444" on="0"/>
        <pt x="508" y="1444" on="1"/>
        <pt x="950" y="1444" on="0"/>
        <pt x="1149" y="1450" on="1"/>
        <pt x="1149" y="1409" on="1"/>
      </contour>
    </TTGlyph>
    <TTGlyph name="Zacute" xMin="76" yMin="0" xMax="1165" yMax="1937">
      <component glyphName=".ttfautohint" x="76" y="0" flags="0x0"/>
      <component glyphName="Z" x="0" y="0" flags="0x0"/>
      <component glyphName="acute.case" x="461" y="0" flags="0x0"/>
    </TTGlyph>
    <TTGlyph name="Zacute.loclPLK" xMin="76" yMin="0" xMax="1165" yMax="1994">
      <component glyphName=".ttfautohint" x="76" y="0" flags="0x0"/>
      <component glyphName="Z" x="0" y="0" flags="0x0"/>
      <component glyphName="acute.loclPLK.case" x="518" y="0" flags="0x0"/>
    </TTGlyph>
    <TTGlyph name="Zcaron" xMin="76" yMin="0" xMax="1165" yMax="1937">
      <component glyphName=".ttfautohint" x="76" y="0" flags="0x0"/>
      <component glyphName="Z" x="0" y="0" flags="0x0"/>
      <component glyphName="caron.case" x="189" y="0" flags="0x0"/>
    </TTGlyph>
    <TTGlyph name="Zdotaccent" xMin="76" yMin="0" xMax="1165" yMax="1999">
      <component glyphName=".ttfautohint" x="76" y="0" flags="0x0"/>
      <component glyphName="Z" x="0" y="0" flags="0x0"/>
      <component glyphName="dotaccent" x="424" y="397" flags="0x0"/>
    </TTGlyph>
    <TTGlyph name="a" xMin="-35" yMin="0" xMax="1321" yMax="1245">
      <contour>
        <pt x="1261" y="44" on="0"/>
        <pt x="1321" y="41" on="1"/>
        <pt x="1321" y="0" on="1"/>
        <pt x="1216" y="6" on="0"/>
        <pt x="1020" y="6" on="1"/>
        <pt x="772" y="6" on="0"/>
        <pt x="655" y="0" on="1"/>
        <pt x="655" y="41" on="1"/>
        <pt x="718" y="44" on="0"/>
        <pt x="780" y="81" on="0"/>
        <pt x="780" y="121" on="1"/>
        <pt x="780" y="158" on="0"/>
        <pt x="754" y="213" on="1"/>
        <pt x="653" y="446" on="1"/>
        <pt x="269" y="446" on="1"/>
        <pt x="201" y="286" on="0"/>
        <pt x="201" y="192" on="1"/>
        <pt x="201" y="109" on="0"/>
        <pt x="300" y="44" on="0"/>
        <pt x="391" y="41" on="1"/>
        <pt x="391" y="0" on="1"/>
        <pt x="238" y="6" on="0"/>
        <pt x="123" y="6" on="1"/>
        <pt x="27" y="6" on="0"/>
        <pt x="-35" y="0" on="1"/>
        <pt x="-35" y="41" on="1"/>
        <pt x="13" y="49" on="0"/>
        <pt x="99" y="156" on="0"/>
        <pt x="154" y="281" on="1"/>
        <pt x="573" y="1245" on="1"/>
        <pt x="604" y="1241" on="0"/>
        <pt x="641" y="1241" on="1"/>
        <pt x="680" y="1241" on="0"/>
        <pt x="709" y="1245" on="1"/>
        <pt x="1200" y="172" on="1"/>
      </contour>
      <contour>
        <pt x="461" y="890" on="1"/>
        <pt x="287" y="487" on="1"/>
        <pt x="636" y="487" on="1"/>
      </contour>
    </TTGlyph>
    <TTGlyph name="aacute" xMin="-35" yMin="0" xMax="1321" yMax="1744">
      <component glyphName=".ttfautohint" x="0" y="0" flags="0x0"/>
      <component glyphName="a" x="0" y="0" flags="0x0"/>
      <component glyphName="acute.smcp" x="282" y="0" flags="0x0"/>
    </TTGlyph>
    <TTGlyph name="abreve" xMin="-35" yMin="0" xMax="1321" yMax="1698">
      <component glyphName=".ttfautohint" x="0" y="0" flags="0x0"/>
      <component glyphName="a" x="0" y="0" flags="0x0"/>
      <component glyphName="breve.smcp" x="194" y="0" flags="0x0"/>
    </TTGlyph>
    <TTGlyph name="acircumflex" xMin="-35" yMin="0" xMax="1321" yMax="1749">
      <component glyphName=".ttfautohint" x="0" y="0" flags="0x0"/>
      <component glyphName="a" x="0" y="0" flags="0x0"/>
      <component glyphName="circumflex.smcp" x="225" y="0" flags="0x0"/>
    </TTGlyph>
    <TTGlyph name="acute" xMin="41" yMin="1227" xMax="458" yMax="1712">
      <contour>
        <pt x="458" y="1646" on="0"/>
        <pt x="458" y="1587" on="1"/>
        <pt x="458" y="1533" on="0"/>
        <pt x="424" y="1493" on="1"/>
        <pt x="401" y="1466" on="0"/>
        <pt x="347" y="1426" on="0"/>
        <pt x="292" y="1391" on="1"/>
        <pt x="164" y="1312" on="0"/>
        <pt x="63" y="1227" on="1"/>
        <pt x="41" y="1245" on="1"/>
        <pt x="101" y="1363" on="0"/>
        <pt x="143" y="1508" on="1"/>
        <pt x="161" y="1569" on="0"/>
        <pt x="190" y="1635" on="0"/>
        <pt x="215" y="1663" on="1"/>
        <pt x="234" y="1686" on="0"/>
        <pt x="294" y="1712" on="0"/>
        <pt x="326" y="1712" on="1"/>
        <pt x="377" y="1712" on="0"/>
        <pt x="416" y="1679" on="1"/>
      </contour>
    </TTGlyph>
    <TTGlyph name="acute.case" xMin="0" yMin="1581" xMax="528" yMax="1937">
      <contour>
        <pt x="352" y="1937" on="0"/>
        <pt x="387" y="1937" on="1"/>
        <pt x="427" y="1937" on="0"/>
        <pt x="497" y="1898" on="0"/>
        <pt x="516" y="1860" on="1"/>
        <pt x="528" y="1833" on="0"/>
        <pt x="528" y="1806" on="1"/>
        <pt x="528" y="1769" on="0"/>
        <pt x="487" y="1703" on="0"/>
        <pt x="451" y="1686" on="1"/>
        <pt x="419" y="1669" on="0"/>
        <pt x="349" y="1652" on="0"/>
        <pt x="288" y="1643" on="1"/>
        <pt x="134" y="1618" on="0"/>
        <pt x="14" y="1581" on="1"/>
        <pt x="0" y="1606" on="1"/>
        <pt x="100" y="1691" on="0"/>
        <pt x="197" y="1808" on="1"/>
        <pt x="240" y="1859" on="0"/>
        <pt x="290" y="1907" on="0"/>
        <pt x="324" y="1923" on="1"/>
      </contour>
    </TTGlyph>
    <TTGlyph name="acute.loclPLK" xMin="49" yMin="1219" xMax="326" yMax="1699">
      <contour>
        <pt x="285" y="1672" on="0"/>
        <pt x="326" y="1611" on="0"/>
        <pt x="326" y="1572" on="1"/>
        <pt x="326" y="1541" on="0"/>
        <pt x="313" y="1511" on="1"/>
        <pt x="302" y="1485" on="0"/>
        <pt x="266" y="1441" on="0"/>
        <pt x="231" y="1403" on="1"/>
        <pt x="149" y="1315" on="0"/>
        <pt x="82" y="1219" on="1"/>
        <pt x="53" y="1227" on="1"/>
        <pt x="57" y="1285" on="0"/>
        <pt x="57" y="1308" on="1"/>
        <pt x="57" y="1338" on="1"/>
        <pt x="57" y="1392" on="0"/>
        <pt x="53" y="1462" on="1"/>
        <pt x="49" y="1514" on="0"/>
        <pt x="49" y="1532" on="1"/>
        <pt x="49" y="1577" on="0"/>
        <pt x="61" y="1610" on="1"/>
        <pt x="75" y="1650" on="0"/>
        <pt x="149" y="1699" on="0"/>
        <pt x="193" y="1699" on="1"/>
        <pt x="223" y="1699" on="0"/>
        <pt x="248" y="1688" on="1"/>
      </contour>
    </TTGlyph>
    <TTGlyph name="acute.loclPLK.case" xMin="51" yMin="1554" xMax="324" yMax="1994">
      <contour>
        <pt x="284" y="1965" on="0"/>
        <pt x="324" y="1906" on="0"/>
        <pt x="324" y="1869" on="1"/>
        <pt x="324" y="1837" on="0"/>
        <pt x="311" y="1808" on="1"/>
        <pt x="300" y="1781" on="0"/>
        <pt x="260" y="1736" on="0"/>
        <pt x="221" y="1701" on="1"/>
        <pt x="131" y="1618" on="0"/>
        <pt x="78" y="1554" on="1"/>
        <pt x="51" y="1567" on="1"/>
        <pt x="56" y="1612" on="0"/>
        <pt x="58" y="1658" on="1"/>
        <pt x="59" y="1703" on="1"/>
        <pt x="59" y="1732" on="0"/>
        <pt x="57" y="1774" on="1"/>
        <pt x="56" y="1791" on="0"/>
        <pt x="56" y="1822" on="1"/>
        <pt x="56" y="1875" on="0"/>
        <pt x="70" y="1911" on="1"/>
        <pt x="86" y="1949" on="0"/>
        <pt x="149" y="1994" on="0"/>
        <pt x="188" y="1994" on="1"/>
        <pt x="216" y="1994" on="0"/>
        <pt x="244" y="1982" on="1"/>
      </contour>
    </TTGlyph>
    <TTGlyph name="acute.loclPLK.smcp" xMin="51" yMin="1432" xMax="324" yMax="1871">
      <contour>
        <pt x="284" y="1843" on="0"/>
        <pt x="324" y="1783" on="0"/>
        <pt x="324" y="1746" on="1"/>
        <pt x="324" y="1715" on="0"/>
        <pt x="311" y="1686" on="1"/>
        <pt x="300" y="1658" on="0"/>
        <pt x="261" y="1614" on="0"/>
        <pt x="220" y="1577" on="1"/>
        <pt x="138" y="1504" on="0"/>
        <pt x="78" y="1432" on="1"/>
        <pt x="51" y="1444" on="1"/>
        <pt x="56" y="1489" on="0"/>
        <pt x="58" y="1535" on="1"/>
        <pt x="59" y="1580" on="1"/>
        <pt x="59" y="1609" on="0"/>
        <pt x="57" y="1651" on="1"/>
        <pt x="56" y="1668" on="0"/>
        <pt x="56" y="1699" on="1"/>
        <pt x="56" y="1752" on="0"/>
        <pt x="70" y="1788" on="1"/>
        <pt x="86" y="1826" on="0"/>
        <pt x="149" y="1871" on="0"/>
        <pt x="189" y="1871" on="1"/>
        <pt x="218" y="1871" on="0"/>
        <pt x="244" y="1860" on="1"/>
      </contour>
    </TTGlyph>
    <TTGlyph name="acute.smcp" xMin="168" yMin="1389" xMax="696" yMax="1744">
      <contour>
        <pt x="518" y="1744" on="0"/>
        <pt x="554" y="1744" on="1"/>
        <pt x="595" y="1744" on="0"/>
        <pt x="665" y="1705" on="0"/>
        <pt x="684" y="1667" on="1"/>
        <pt x="696" y="1642" on="0"/>
        <pt x="696" y="1614" on="1"/>
        <pt x="696" y="1577" on="0"/>
        <pt x="654" y="1511" on="0"/>
        <pt x="618" y="1493" on="1"/>
        <pt x="586" y="1477" on="0"/>
        <pt x="518" y="1460" on="0"/>
        <pt x="456" y="1450" on="1"/>
        <pt x="298" y="1424" on="0"/>
        <pt x="182" y="1389" on="1"/>
        <pt x="168" y="1413" on="1"/>
        <pt x="269" y="1499" on="0"/>
        <pt x="366" y="1616" on="1"/>
        <pt x="407" y="1666" on="0"/>
        <pt x="458" y="1715" on="0"/>
        <pt x="492" y="1731" on="1"/>
      </contour>
    </TTGlyph>
    <TTGlyph name="adieresis" xMin="-35" yMin="0" xMax="1321" yMax="1767">
      <component glyphName=".ttfautohint" x="0" y="0" flags="0x0"/>
      <component glyphName="a" x="0" y="0" flags="0x0"/>
      <component glyphName="dieresis.smcp" x="268" y="0" flags="0x0"/>
    </TTGlyph>
    <TTGlyph name="ae" xMin="-31" yMin="0" xMax="1671" yMax="1350">
      <contour>
        <pt x="1657" y="158" on="0"/>
        <pt x="1671" y="0" on="1"/>
        <pt x="1538" y="6" on="0"/>
        <pt x="1223" y="6" on="1"/>
        <pt x="815" y="6" on="0"/>
        <pt x="608" y="0" on="1"/>
        <pt x="608" y="41" on="1"/>
        <pt x="674" y="44" on="0"/>
        <pt x="733" y="70" on="0"/>
        <pt x="754" y="140" on="0"/>
        <pt x="754" y="217" on="1"/>
        <pt x="754" y="606" on="1"/>
        <pt x="422" y="606" on="1"/>
        <pt x="186" y="213" on="1"/>
        <pt x="150" y="153" on="0"/>
        <pt x="150" y="116" on="1"/>
        <pt x="150" y="79" on="0"/>
        <pt x="221" y="44" on="0"/>
        <pt x="293" y="41" on="1"/>
        <pt x="293" y="0" on="1"/>
        <pt x="231" y="6" on="0"/>
        <pt x="106" y="6" on="1"/>
        <pt x="21" y="6" on="0"/>
        <pt x="-31" y="0" on="1"/>
        <pt x="-31" y="41" on="1"/>
        <pt x="32" y="44" on="0"/>
        <pt x="111" y="172" on="1"/>
        <pt x="719" y="1178" on="1"/>
        <pt x="704" y="1191" on="0"/>
        <pt x="652" y="1202" on="0"/>
        <pt x="608" y="1204" on="1"/>
        <pt x="608" y="1245" on="1"/>
        <pt x="758" y="1242" on="1"/>
        <pt x="823" y="1350" on="1"/>
        <pt x="870" y="1350" on="1"/>
        <pt x="804" y="1241" on="1"/>
        <pt x="967" y="1239" on="0"/>
        <pt x="1223" y="1239" on="1"/>
        <pt x="1509" y="1239" on="0"/>
        <pt x="1630" y="1245" on="1"/>
        <pt x="1616" y="1099" on="0"/>
        <pt x="1616" y="983" on="1"/>
        <pt x="1616" y="903" on="0"/>
        <pt x="1622" y="856" on="1"/>
        <pt x="1575" y="856" on="1"/>
        <pt x="1546" y="1038" on="0"/>
        <pt x="1405" y="1198" on="0"/>
        <pt x="1300" y="1198" on="1"/>
        <pt x="1274" y="1198" on="1"/>
        <pt x="1227" y="1198" on="0"/>
        <pt x="1175" y="1174" on="0"/>
        <pt x="1149" y="1101" on="0"/>
        <pt x="1149" y="1028" on="1"/>
        <pt x="1149" y="647" on="1"/>
        <pt x="1176" y="647" on="1"/>
        <pt x="1227" y="647" on="0"/>
        <pt x="1288" y="692" on="0"/>
        <pt x="1317" y="756" on="0"/>
        <pt x="1333" y="812" on="1"/>
        <pt x="1341" y="842" on="0"/>
        <pt x="1346" y="856" on="1"/>
        <pt x="1393" y="856" on="1"/>
        <pt x="1385" y="760" on="0"/>
        <pt x="1385" y="699" on="1"/>
        <pt x="1386" y="627" on="1"/>
        <pt x="1386" y="560" on="0"/>
        <pt x="1399" y="397" on="1"/>
        <pt x="1352" y="397" on="1"/>
        <pt x="1331" y="478" on="0"/>
        <pt x="1301" y="555" on="0"/>
        <pt x="1236" y="606" on="0"/>
        <pt x="1176" y="606" on="1"/>
        <pt x="1149" y="606" on="1"/>
        <pt x="1149" y="217" on="1"/>
        <pt x="1149" y="144" on="0"/>
        <pt x="1175" y="71" on="0"/>
        <pt x="1227" y="47" on="0"/>
        <pt x="1274" y="47" on="1"/>
        <pt x="1321" y="47" on="1"/>
        <pt x="1408" y="47" on="0"/>
        <pt x="1521" y="120" on="0"/>
        <pt x="1593" y="286" on="0"/>
        <pt x="1616" y="430" on="1"/>
        <pt x="1663" y="430" on="1"/>
        <pt x="1657" y="372" on="0"/>
        <pt x="1657" y="283" on="1"/>
      </contour>
      <contour>
        <pt x="754" y="1028" on="1"/>
        <pt x="754" y="1105" on="0"/>
        <pt x="743" y="1139" on="1"/>
        <pt x="447" y="647" on="1"/>
        <pt x="754" y="647" on="1"/>
      </contour>
    </TTGlyph>
    <TTGlyph name="agrave" xMin="-35" yMin="0" xMax="1321" yMax="1744">
      <component glyphName=".ttfautohint" x="0" y="0" flags="0x0"/>
      <component glyphName="a" x="0" y="0" flags="0x0"/>
      <component glyphName="grave.smcp" x="274" y="0" flags="0x0"/>
    </TTGlyph>
    <TTGlyph name="amacron" xMin="-35" yMin="0" xMax="1321" yMax="1581">
      <component glyphName=".ttfautohint" x="0" y="0" flags="0x0"/>
      <component glyphName="a" x="0" y="0" flags="0x0"/>
      <component glyphName="macron.smcp" x="239" y="0" flags="0x0"/>
    </TTGlyph>
    <TTGlyph name="ampersand" xMin="68" yMin="-29" xMax="1896" yMax="1479">
      <contour>
        <pt x="1896" y="1028" on="0"/>
        <pt x="1699" y="846" on="0"/>
        <pt x="1504" y="797" on="1"/>
        <pt x="1567" y="754" on="0"/>
        <pt x="1642" y="586" on="0"/>
        <pt x="1642" y="481" on="1"/>
        <pt x="1642" y="328" on="0"/>
        <pt x="1447" y="97" on="0"/>
        <pt x="1101" y="-29" on="0"/>
        <pt x="881" y="-29" on="1"/>
        <pt x="624" y="-29" on="0"/>
        <pt x="259" y="94" on="0"/>
        <pt x="68" y="324" on="0"/>
        <pt x="68" y="481" on="1"/>
        <pt x="68" y="623" on="0"/>
        <pt x="223" y="817" on="0"/>
        <pt x="421" y="918" on="0"/>
        <pt x="508" y="938" on="1"/>
        <pt x="395" y="979" on="0"/>
        <pt x="260" y="1096" on="0"/>
        <pt x="260" y="1192" on="1"/>
        <pt x="260" y="1288" on="0"/>
        <pt x="397" y="1410" on="0"/>
        <pt x="602" y="1464" on="0"/>
        <pt x="709" y="1464" on="1"/>
        <pt x="784" y="1464" on="0"/>
        <pt x="878" y="1451" on="0"/>
        <pt x="922" y="1436" on="1"/>
        <pt x="985" y="1414" on="0"/>
        <pt x="1077" y="1325" on="0"/>
        <pt x="1077" y="1253" on="1"/>
        <pt x="1077" y="1207" on="0"/>
        <pt x="1027" y="1137" on="0"/>
        <pt x="942" y="1098" on="0"/>
        <pt x="891" y="1098" on="1"/>
        <pt x="813" y="1098" on="0"/>
        <pt x="715" y="1171" on="0"/>
        <pt x="715" y="1241" on="1"/>
        <pt x="715" y="1299" on="0"/>
        <pt x="795" y="1395" on="0"/>
        <pt x="860" y="1411" on="1"/>
        <pt x="814" y="1427" on="0"/>
        <pt x="739" y="1427" on="1"/>
        <pt x="664" y="1427" on="0"/>
        <pt x="543" y="1364" on="0"/>
        <pt x="471" y="1236" on="0"/>
        <pt x="471" y="1143" on="1"/>
        <pt x="471" y="1036" on="0"/>
        <pt x="535" y="950" on="1"/>
        <pt x="601" y="969" on="0"/>
        <pt x="641" y="969" on="1"/>
        <pt x="677" y="969" on="0"/>
        <pt x="713" y="936" on="0"/>
        <pt x="713" y="909" on="1"/>
        <pt x="713" y="889" on="0"/>
        <pt x="679" y="864" on="0"/>
        <pt x="655" y="864" on="1"/>
        <pt x="603" y="864" on="0"/>
        <pt x="537" y="922" on="1"/>
        <pt x="447" y="857" on="0"/>
        <pt x="352" y="705" on="0"/>
        <pt x="352" y="594" on="1"/>
        <pt x="352" y="402" on="0"/>
        <pt x="670" y="225" on="0"/>
        <pt x="981" y="225" on="1"/>
        <pt x="1121" y="225" on="0"/>
        <pt x="1389" y="303" on="0"/>
        <pt x="1563" y="459" on="0"/>
        <pt x="1563" y="569" on="1"/>
        <pt x="1563" y="633" on="0"/>
        <pt x="1531" y="745" on="0"/>
        <pt x="1471" y="789" on="1"/>
        <pt x="1391" y="772" on="0"/>
        <pt x="1333" y="764" on="1"/>
        <pt x="1242" y="750" on="0"/>
        <pt x="1186" y="739" on="1"/>
        <pt x="1032" y="711" on="0"/>
        <pt x="848" y="658" on="0"/>
        <pt x="754" y="583" on="0"/>
        <pt x="754" y="528" on="1"/>
        <pt x="754" y="480" on="0"/>
        <pt x="824" y="404" on="0"/>
        <pt x="936" y="362" on="0"/>
        <pt x="997" y="362" on="1"/>
        <pt x="1011" y="362" on="0"/>
        <pt x="1053" y="367" on="1"/>
        <pt x="995" y="388" on="0"/>
        <pt x="944" y="470" on="0"/>
        <pt x="944" y="520" on="1"/>
        <pt x="944" y="593" on="0"/>
        <pt x="1055" y="674" on="0"/>
        <pt x="1143" y="674" on="1"/>
        <pt x="1233" y="674" on="0"/>
        <pt x="1333" y="589" on="0"/>
        <pt x="1333" y="516" on="1"/>
        <pt x="1333" y="418" on="0"/>
        <pt x="1164" y="324" on="0"/>
        <pt x="1012" y="324" on="1"/>
        <pt x="913" y="324" on="0"/>
        <pt x="760" y="387" on="0"/>
        <pt x="674" y="512" on="0"/>
        <pt x="674" y="602" on="1"/>
        <pt x="674" y="788" on="0"/>
        <pt x="969" y="989" on="0"/>
        <pt x="1247" y="1030" on="1"/>
        <pt x="1273" y="1033" on="0"/>
        <pt x="1334" y="1044" on="1"/>
        <pt x="1380" y="1053" on="0"/>
        <pt x="1425" y="1059" on="1"/>
        <pt x="1557" y="1081" on="0"/>
        <pt x="1726" y="1130" on="0"/>
        <pt x="1821" y="1207" on="0"/>
        <pt x="1821" y="1266" on="1"/>
        <pt x="1821" y="1317" on="0"/>
        <pt x="1754" y="1395" on="0"/>
        <pt x="1649" y="1438" on="0"/>
        <pt x="1593" y="1438" on="1"/>
        <pt x="1570" y="1438" on="0"/>
        <pt x="1538" y="1434" on="1"/>
        <pt x="1599" y="1412" on="0"/>
        <pt x="1665" y="1326" on="0"/>
        <pt x="1665" y="1280" on="1"/>
        <pt x="1665" y="1207" on="0"/>
        <pt x="1558" y="1128" on="0"/>
        <pt x="1470" y="1128" on="1"/>
        <pt x="1380" y="1128" on="0"/>
        <pt x="1276" y="1214" on="0"/>
        <pt x="1276" y="1286" on="1"/>
        <pt x="1276" y="1374" on="0"/>
        <pt x="1414" y="1479" on="0"/>
        <pt x="1552" y="1479" on="1"/>
        <pt x="1656" y="1479" on="0"/>
        <pt x="1811" y="1409" on="0"/>
        <pt x="1896" y="1275" on="0"/>
        <pt x="1896" y="1182" on="1"/>
      </contour>
    </TTGlyph>
    <TTGlyph name="ampersand.smcp" xMin="66" yMin="-29" xMax="1874" yMax="1397">
      <contour>
        <pt x="1874" y="810" on="0"/>
        <pt x="1573" y="719" on="1"/>
        <pt x="1614" y="680" on="0"/>
        <pt x="1661" y="552" on="0"/>
        <pt x="1661" y="475" on="1"/>
        <pt x="1661" y="316" on="0"/>
        <pt x="1458" y="90" on="0"/>
        <pt x="1081" y="-29" on="0"/>
        <pt x="825" y="-29" on="1"/>
        <pt x="595" y="-29" on="0"/>
        <pt x="252" y="67" on="0"/>
        <pt x="66" y="251" on="0"/>
        <pt x="66" y="379" on="1"/>
        <pt x="66" y="502" on="0"/>
        <pt x="227" y="677" on="0"/>
        <pt x="439" y="772" on="0"/>
        <pt x="526" y="788" on="1"/>
        <pt x="395" y="829" on="0"/>
        <pt x="238" y="946" on="0"/>
        <pt x="238" y="1038" on="1"/>
        <pt x="238" y="1123" on="0"/>
        <pt x="376" y="1228" on="0"/>
        <pt x="582" y="1274" on="0"/>
        <pt x="692" y="1274" on="1"/>
        <pt x="802" y="1274" on="0"/>
        <pt x="881" y="1245" on="1"/>
        <pt x="942" y="1223" on="0"/>
        <pt x="1034" y="1136" on="0"/>
        <pt x="1034" y="1065" on="1"/>
        <pt x="1034" y="993" on="0"/>
        <pt x="929" y="907" on="0"/>
        <pt x="846" y="907" on="1"/>
        <pt x="770" y="907" on="0"/>
        <pt x="672" y="981" on="0"/>
        <pt x="672" y="1049" on="1"/>
        <pt x="672" y="1107" on="0"/>
        <pt x="749" y="1203" on="0"/>
        <pt x="817" y="1221" on="1"/>
        <pt x="781" y="1237" on="0"/>
        <pt x="733" y="1237" on="1"/>
        <pt x="679" y="1237" on="0"/>
        <pt x="576" y="1178" on="0"/>
        <pt x="510" y="1058" on="0"/>
        <pt x="510" y="973" on="1"/>
        <pt x="510" y="923" on="0"/>
        <pt x="525" y="841" on="0"/>
        <pt x="553" y="801" on="1"/>
        <pt x="598" y="819" on="0"/>
        <pt x="659" y="819" on="1"/>
        <pt x="695" y="819" on="0"/>
        <pt x="731" y="787" on="0"/>
        <pt x="731" y="762" on="1"/>
        <pt x="731" y="739" on="0"/>
        <pt x="699" y="715" on="0"/>
        <pt x="674" y="715" on="1"/>
        <pt x="625" y="715" on="0"/>
        <pt x="555" y="772" on="1"/>
        <pt x="535" y="726" on="0"/>
        <pt x="514" y="633" on="0"/>
        <pt x="514" y="569" on="1"/>
        <pt x="514" y="357" on="0"/>
        <pt x="775" y="164" on="0"/>
        <pt x="1034" y="164" on="1"/>
        <pt x="1272" y="164" on="0"/>
        <pt x="1602" y="331" on="0"/>
        <pt x="1602" y="537" on="1"/>
        <pt x="1602" y="599" on="0"/>
        <pt x="1570" y="675" on="0"/>
        <pt x="1541" y="710" on="1"/>
        <pt x="1509" y="702" on="0"/>
        <pt x="1485" y="698" on="1"/>
        <pt x="1407" y="683" on="1"/>
        <pt x="1317" y="667" on="0"/>
        <pt x="1272" y="657" on="1"/>
        <pt x="1115" y="627" on="0"/>
        <pt x="937" y="577" on="0"/>
        <pt x="834" y="503" on="0"/>
        <pt x="834" y="446" on="1"/>
        <pt x="834" y="398" on="0"/>
        <pt x="904" y="323" on="0"/>
        <pt x="1016" y="281" on="0"/>
        <pt x="1077" y="281" on="1"/>
        <pt x="1099" y="281" on="0"/>
        <pt x="1133" y="285" on="1"/>
        <pt x="1075" y="306" on="0"/>
        <pt x="1024" y="388" on="0"/>
        <pt x="1024" y="436" on="1"/>
        <pt x="1024" y="511" on="0"/>
        <pt x="1135" y="592" on="0"/>
        <pt x="1223" y="592" on="1"/>
        <pt x="1312" y="592" on="0"/>
        <pt x="1413" y="507" on="0"/>
        <pt x="1413" y="434" on="1"/>
        <pt x="1413" y="338" on="0"/>
        <pt x="1243" y="242" on="0"/>
        <pt x="1106" y="242" on="1"/>
        <pt x="938" y="242" on="0"/>
        <pt x="754" y="386" on="0"/>
        <pt x="754" y="526" on="1"/>
        <pt x="754" y="651" on="0"/>
        <pt x="893" y="811" on="0"/>
        <pt x="1094" y="895" on="0"/>
        <pt x="1221" y="922" on="1"/>
        <pt x="1265" y="931" on="0"/>
        <pt x="1355" y="951" on="1"/>
        <pt x="1430" y="967" on="1"/>
        <pt x="1455" y="973" on="0"/>
        <pt x="1472" y="975" on="1"/>
        <pt x="1571" y="995" on="0"/>
        <pt x="1702" y="1035" on="0"/>
        <pt x="1798" y="1115" on="0"/>
        <pt x="1798" y="1180" on="1"/>
        <pt x="1798" y="1233" on="0"/>
        <pt x="1732" y="1313" on="0"/>
        <pt x="1627" y="1356" on="0"/>
        <pt x="1571" y="1356" on="1"/>
        <pt x="1548" y="1356" on="0"/>
        <pt x="1516" y="1352" on="1"/>
        <pt x="1575" y="1330" on="0"/>
        <pt x="1642" y="1247" on="0"/>
        <pt x="1642" y="1194" on="1"/>
        <pt x="1642" y="1125" on="0"/>
        <pt x="1535" y="1047" on="0"/>
        <pt x="1448" y="1047" on="1"/>
        <pt x="1356" y="1047" on="0"/>
        <pt x="1253" y="1132" on="0"/>
        <pt x="1253" y="1206" on="1"/>
        <pt x="1253" y="1291" on="0"/>
        <pt x="1391" y="1397" on="0"/>
        <pt x="1528" y="1397" on="1"/>
        <pt x="1689" y="1397" on="0"/>
        <pt x="1874" y="1239" on="0"/>
        <pt x="1874" y="1085" on="1"/>
      </contour>
    </TTGlyph>
    <TTGlyph name="aogonek" xMin="-35" yMin="-385" xMax="1321" yMax="1245">
      <contour>
        <pt x="1111" y="-36" on="0"/>
        <pt x="1001" y="-137" on="0"/>
        <pt x="1001" y="-184" on="1"/>
        <pt x="1001" y="-225" on="0"/>
        <pt x="1041" y="-262" on="0"/>
        <pt x="1083" y="-262" on="1"/>
        <pt x="1117" y="-262" on="0"/>
        <pt x="1196" y="-235" on="0"/>
        <pt x="1218" y="-215" on="1"/>
        <pt x="1245" y="-246" on="1"/>
        <pt x="1185" y="-320" on="0"/>
        <pt x="1039" y="-385" on="0"/>
        <pt x="932" y="-385" on="1"/>
        <pt x="832" y="-385" on="0"/>
        <pt x="729" y="-310" on="0"/>
        <pt x="729" y="-240" on="1"/>
        <pt x="729" y="-153" on="0"/>
        <pt x="949" y="-28" on="0"/>
        <pt x="1149" y="5" on="1"/>
        <pt x="1107" y="6" on="0"/>
        <pt x="1020" y="6" on="1"/>
        <pt x="772" y="6" on="0"/>
        <pt x="655" y="0" on="1"/>
        <pt x="655" y="41" on="1"/>
        <pt x="718" y="44" on="0"/>
        <pt x="780" y="81" on="0"/>
        <pt x="780" y="121" on="1"/>
        <pt x="780" y="158" on="0"/>
        <pt x="754" y="213" on="1"/>
        <pt x="653" y="446" on="1"/>
        <pt x="269" y="446" on="1"/>
        <pt x="201" y="286" on="0"/>
        <pt x="201" y="192" on="1"/>
        <pt x="201" y="109" on="0"/>
        <pt x="300" y="44" on="0"/>
        <pt x="391" y="41" on="1"/>
        <pt x="391" y="0" on="1"/>
        <pt x="238" y="6" on="0"/>
        <pt x="123" y="6" on="1"/>
        <pt x="26" y="6" on="0"/>
        <pt x="-35" y="0" on="1"/>
        <pt x="-35" y="41" on="1"/>
        <pt x="13" y="49" on="0"/>
        <pt x="99" y="156" on="0"/>
        <pt x="154" y="281" on="1"/>
        <pt x="573" y="1245" on="1"/>
        <pt x="610" y="1240" on="0"/>
        <pt x="641" y="1240" on="1"/>
        <pt x="671" y="1240" on="0"/>
        <pt x="709" y="1245" on="1"/>
        <pt x="1200" y="172" on="1"/>
        <pt x="1261" y="44" on="0"/>
        <pt x="1321" y="41" on="1"/>
        <pt x="1321" y="0" on="1"/>
        <pt x="1194" y="5" on="0"/>
        <pt x="1226" y="4" on="1"/>
      </contour>
      <contour>
        <pt x="461" y="890" on="1"/>
        <pt x="287" y="487" on="1"/>
        <pt x="636" y="487" on="1"/>
      </contour>
    </TTGlyph>
    <TTGlyph name="approxequal" xMin="106" yMin="276" xMax="1303" yMax="1184">
      <contour>
        <pt x="535" y="1184" on="0"/>
        <pt x="667" y="1133" on="0"/>
        <pt x="758" y="1082" on="1"/>
        <pt x="846" y="1034" on="0"/>
        <pt x="970" y="985" on="0"/>
        <pt x="1040" y="985" on="1"/>
        <pt x="1204" y="985" on="0"/>
        <pt x="1266" y="1165" on="1"/>
        <pt x="1303" y="1159" on="1"/>
        <pt x="1294" y="1021" on="0"/>
        <pt x="1205" y="809" on="0"/>
        <pt x="1069" y="692" on="0"/>
        <pt x="991" y="692" on="1"/>
        <pt x="918" y="692" on="0"/>
        <pt x="790" y="743" on="0"/>
        <pt x="702" y="794" on="1"/>
        <pt x="617" y="842" on="0"/>
        <pt x="497" y="891" on="0"/>
        <pt x="430" y="891" on="1"/>
        <pt x="223" y="891" on="0"/>
        <pt x="143" y="690" on="1"/>
        <pt x="106" y="696" on="1"/>
        <pt x="117" y="840" on="0"/>
        <pt x="218" y="1062" on="0"/>
        <pt x="371" y="1184" on="0"/>
        <pt x="459" y="1184" on="1"/>
      </contour>
      <contour>
        <pt x="491" y="768" on="0"/>
        <pt x="619" y="717" on="0"/>
        <pt x="707" y="666" on="1"/>
        <pt x="792" y="618" on="0"/>
        <pt x="912" y="569" on="0"/>
        <pt x="979" y="569" on="1"/>
        <pt x="1186" y="569" on="0"/>
        <pt x="1266" y="770" on="1"/>
        <pt x="1303" y="764" on="1"/>
        <pt x="1292" y="620" on="0"/>
        <pt x="1191" y="398" on="0"/>
        <pt x="1038" y="276" on="0"/>
        <pt x="950" y="276" on="1"/>
        <pt x="874" y="276" on="0"/>
        <pt x="742" y="327" on="0"/>
        <pt x="651" y="378" on="1"/>
        <pt x="563" y="426" on="0"/>
        <pt x="439" y="475" on="0"/>
        <pt x="369" y="475" on="1"/>
        <pt x="205" y="475" on="0"/>
        <pt x="143" y="295" on="1"/>
        <pt x="106" y="301" on="1"/>
        <pt x="115" y="439" on="0"/>
        <pt x="204" y="652" on="0"/>
        <pt x="340" y="768" on="0"/>
        <pt x="418" y="768" on="1"/>
      </contour>
    </TTGlyph>
    <TTGlyph name="aring" xMin="-35" yMin="0" xMax="1321" yMax="1792">
      <component glyphName=".ttfautohint" x="0" y="0" flags="0x0"/>
      <component glyphName="a" x="0" y="0" flags="0x0"/>
      <component glyphName="ring.smcp" x="387" y="0" flags="0x0"/>
    </TTGlyph>
    <TTGlyph name="arrowboth" xMin="51" yMin="158" xMax="1331" yMax="924">
      <contour>
        <pt x="977" y="770" on="0"/>
        <pt x="1184" y="584" on="0"/>
        <pt x="1331" y="541" on="1"/>
        <pt x="1184" y="497" on="0"/>
        <pt x="977" y="312" on="0"/>
        <pt x="907" y="158" on="1"/>
        <pt x="872" y="158" on="1"/>
        <pt x="957" y="337" on="0"/>
        <pt x="961" y="524" on="1"/>
        <pt x="422" y="524" on="1"/>
        <pt x="426" y="339" on="0"/>
        <pt x="510" y="158" on="1"/>
        <pt x="475" y="158" on="1"/>
        <pt x="405" y="312" on="0"/>
        <pt x="198" y="497" on="0"/>
        <pt x="51" y="541" on="1"/>
        <pt x="198" y="584" on="0"/>
        <pt x="405" y="770" on="0"/>
        <pt x="475" y="924" on="1"/>
        <pt x="510" y="924" on="1"/>
        <pt x="425" y="742" on="0"/>
        <pt x="422" y="557" on="1"/>
        <pt x="961" y="557" on="1"/>
        <pt x="958" y="743" on="0"/>
        <pt x="872" y="924" on="1"/>
        <pt x="907" y="924" on="1"/>
      </contour>
    </TTGlyph>
    <TTGlyph name="arrowdown" xMin="123" yMin="-20" xMax="889" yMax="1200">
      <contour>
        <pt x="552" y="952" on="0"/>
        <pt x="734" y="1128" on="0"/>
        <pt x="889" y="1200" on="1"/>
        <pt x="889" y="1165" on="1"/>
        <pt x="735" y="1095" on="0"/>
        <pt x="549" y="888" on="0"/>
        <pt x="506" y="741" on="1"/>
        <pt x="463" y="888" on="0"/>
        <pt x="277" y="1095" on="0"/>
        <pt x="123" y="1165" on="1"/>
        <pt x="123" y="1200" on="1"/>
        <pt x="278" y="1128" on="0"/>
        <pt x="459" y="952" on="0"/>
        <pt x="506" y="829" on="1"/>
      </contour>
      <contour>
        <pt x="552" y="768" on="0"/>
        <pt x="734" y="944" on="0"/>
        <pt x="889" y="1016" on="1"/>
        <pt x="889" y="981" on="1"/>
        <pt x="748" y="917" on="0"/>
        <pt x="569" y="733" on="0"/>
        <pt x="522" y="606" on="1"/>
        <pt x="522" y="350" on="1"/>
        <pt x="707" y="353" on="0"/>
        <pt x="889" y="438" on="1"/>
        <pt x="889" y="403" on="1"/>
        <pt x="735" y="333" on="0"/>
        <pt x="549" y="127" on="0"/>
        <pt x="506" y="-20" on="1"/>
        <pt x="463" y="127" on="0"/>
        <pt x="277" y="333" on="0"/>
        <pt x="123" y="403" on="1"/>
        <pt x="123" y="438" on="1"/>
        <pt x="304" y="354" on="0"/>
        <pt x="489" y="350" on="1"/>
        <pt x="489" y="608" on="1"/>
        <pt x="442" y="734" on="0"/>
        <pt x="264" y="917" on="0"/>
        <pt x="123" y="981" on="1"/>
        <pt x="123" y="1016" on="1"/>
        <pt x="278" y="944" on="0"/>
        <pt x="459" y="768" on="0"/>
        <pt x="506" y="645" on="1"/>
      </contour>
    </TTGlyph>
    <TTGlyph name="arrowdownleft" xMin="133" yMin="-20" xMax="1268" yMax="1114">
      <contour>
        <pt x="851" y="633" on="0"/>
        <pt x="970" y="633" on="1"/>
        <pt x="1103" y="633" on="0"/>
        <pt x="1268" y="571" on="1"/>
        <pt x="1243" y="547" on="1"/>
        <pt x="1103" y="600" on="0"/>
        <pt x="976" y="600" on="1"/>
        <pt x="822" y="600" on="0"/>
        <pt x="672" y="518" on="1"/>
        <pt x="754" y="667" on="0"/>
        <pt x="754" y="821" on="1"/>
        <pt x="754" y="948" on="0"/>
        <pt x="700" y="1090" on="1"/>
        <pt x="725" y="1114" on="1"/>
        <pt x="787" y="949" on="0"/>
        <pt x="787" y="817" on="1"/>
        <pt x="787" y="695" on="0"/>
        <pt x="735" y="582" on="1"/>
      </contour>
      <contour>
        <pt x="720" y="502" on="0"/>
        <pt x="841" y="502" on="1"/>
        <pt x="972" y="502" on="0"/>
        <pt x="1137" y="442" on="1"/>
        <pt x="1112" y="418" on="1"/>
        <pt x="972" y="470" on="0"/>
        <pt x="848" y="470" on="1"/>
        <pt x="716" y="470" on="0"/>
        <pt x="590" y="413" on="1"/>
        <pt x="407" y="231" on="1"/>
        <pt x="541" y="103" on="0"/>
        <pt x="729" y="33" on="1"/>
        <pt x="705" y="8" on="1"/>
        <pt x="563" y="62" on="0"/>
        <pt x="436" y="62" on="1"/>
        <pt x="282" y="62" on="0"/>
        <pt x="133" y="-20" on="1"/>
        <pt x="215" y="130" on="0"/>
        <pt x="215" y="284" on="1"/>
        <pt x="215" y="411" on="0"/>
        <pt x="162" y="551" on="1"/>
        <pt x="186" y="575" on="1"/>
        <pt x="257" y="389" on="0"/>
        <pt x="384" y="253" on="1"/>
        <pt x="567" y="438" on="1"/>
        <pt x="624" y="563" on="0"/>
        <pt x="624" y="692" on="1"/>
        <pt x="624" y="816" on="0"/>
        <pt x="571" y="958" on="1"/>
        <pt x="596" y="983" on="1"/>
        <pt x="656" y="818" on="0"/>
        <pt x="656" y="688" on="1"/>
        <pt x="656" y="565" on="0"/>
        <pt x="604" y="451" on="1"/>
      </contour>
    </TTGlyph>
    <TTGlyph name="arrowdownright" xMin="133" yMin="-20" xMax="1268" yMax="1114">
      <component glyphName=".ttfautohint" x="133" y="0" flags="0x0"/>
      <component glyphName="arrowupleft" x="1401" y="1094" scale="-1.0" flags="0x0"/>
    </TTGlyph>
    <TTGlyph name="arrowleft" xMin="51" yMin="158" xMax="1272" yMax="924">
      <contour>
        <pt x="840" y="495" on="0"/>
        <pt x="1015" y="313" on="0"/>
        <pt x="1087" y="158" on="1"/>
        <pt x="1053" y="158" on="1"/>
        <pt x="988" y="299" on="0"/>
        <pt x="806" y="476" on="0"/>
        <pt x="680" y="524" on="1"/>
        <pt x="422" y="524" on="1"/>
        <pt x="426" y="339" on="0"/>
        <pt x="510" y="158" on="1"/>
        <pt x="475" y="158" on="1"/>
        <pt x="405" y="312" on="0"/>
        <pt x="198" y="497" on="0"/>
        <pt x="51" y="541" on="1"/>
        <pt x="198" y="584" on="0"/>
        <pt x="405" y="770" on="0"/>
        <pt x="475" y="924" on="1"/>
        <pt x="510" y="924" on="1"/>
        <pt x="425" y="742" on="0"/>
        <pt x="422" y="557" on="1"/>
        <pt x="677" y="557" on="1"/>
        <pt x="804" y="604" on="0"/>
        <pt x="988" y="783" on="0"/>
        <pt x="1053" y="924" on="1"/>
        <pt x="1087" y="924" on="1"/>
        <pt x="1015" y="768" on="0"/>
        <pt x="840" y="587" on="0"/>
        <pt x="717" y="541" on="1"/>
      </contour>
      <contour>
        <pt x="1024" y="494" on="0"/>
        <pt x="1200" y="313" on="0"/>
        <pt x="1272" y="158" on="1"/>
        <pt x="1237" y="158" on="1"/>
        <pt x="1167" y="312" on="0"/>
        <pt x="960" y="497" on="0"/>
        <pt x="813" y="541" on="1"/>
        <pt x="960" y="584" on="0"/>
        <pt x="1167" y="770" on="0"/>
        <pt x="1237" y="924" on="1"/>
        <pt x="1272" y="924" on="1"/>
        <pt x="1200" y="769" on="0"/>
        <pt x="1024" y="587" on="0"/>
        <pt x="901" y="541" on="1"/>
      </contour>
    </TTGlyph>
    <TTGlyph name="arrowright" xMin="123" yMin="158" xMax="1344" yMax="924">
      <component glyphName=".ttfautohint" x="123" y="158" flags="0x0"/>
      <component glyphName="arrowleft" x="1395" y="0" scalex="-1.0" scaley="1.0" flags="0x0"/>
    </TTGlyph>
    <TTGlyph name="arrowup" xMin="123" yMin="-20" xMax="889" yMax="1200">
      <contour>
        <pt x="710" y="826" on="0"/>
        <pt x="522" y="829" on="1"/>
        <pt x="522" y="574" on="1"/>
        <pt x="569" y="447" on="0"/>
        <pt x="748" y="263" on="0"/>
        <pt x="889" y="199" on="1"/>
        <pt x="889" y="164" on="1"/>
        <pt x="734" y="236" on="0"/>
        <pt x="552" y="412" on="0"/>
        <pt x="506" y="535" on="1"/>
        <pt x="459" y="412" on="0"/>
        <pt x="278" y="236" on="0"/>
        <pt x="123" y="164" on="1"/>
        <pt x="123" y="199" on="1"/>
        <pt x="264" y="263" on="0"/>
        <pt x="442" y="446" on="0"/>
        <pt x="489" y="572" on="1"/>
        <pt x="489" y="829" on="1"/>
        <pt x="304" y="826" on="0"/>
        <pt x="123" y="741" on="1"/>
        <pt x="123" y="776" on="1"/>
        <pt x="277" y="846" on="0"/>
        <pt x="463" y="1053" on="0"/>
        <pt x="506" y="1200" on="1"/>
        <pt x="549" y="1053" on="0"/>
        <pt x="735" y="846" on="0"/>
        <pt x="889" y="776" on="1"/>
        <pt x="889" y="741" on="1"/>
      </contour>
      <contour>
        <pt x="549" y="292" on="0"/>
        <pt x="735" y="85" on="0"/>
        <pt x="889" y="14" on="1"/>
        <pt x="889" y="-20" on="1"/>
        <pt x="733" y="52" on="0"/>
        <pt x="552" y="227" on="0"/>
        <pt x="506" y="350" on="1"/>
        <pt x="460" y="227" on="0"/>
        <pt x="278" y="52" on="0"/>
        <pt x="123" y="-20" on="1"/>
        <pt x="123" y="14" on="1"/>
        <pt x="277" y="85" on="0"/>
        <pt x="463" y="292" on="0"/>
        <pt x="506" y="438" on="1"/>
      </contour>
    </TTGlyph>
    <TTGlyph name="arrowupleft" xMin="133" yMin="-20" xMax="1268" yMax="1114">
      <contour>
        <pt x="972" y="591" on="0"/>
        <pt x="842" y="591" on="1"/>
        <pt x="718" y="591" on="0"/>
        <pt x="604" y="643" on="1"/>
        <pt x="656" y="529" on="0"/>
        <pt x="656" y="405" on="1"/>
        <pt x="656" y="276" on="0"/>
        <pt x="596" y="111" on="1"/>
        <pt x="571" y="135" on="1"/>
        <pt x="624" y="277" on="0"/>
        <pt x="624" y="401" on="1"/>
        <pt x="624" y="532" on="0"/>
        <pt x="567" y="656" on="1"/>
        <pt x="384" y="841" on="1"/>
        <pt x="257" y="706" on="0"/>
        <pt x="186" y="518" on="1"/>
        <pt x="162" y="543" on="1"/>
        <pt x="215" y="683" on="0"/>
        <pt x="215" y="810" on="1"/>
        <pt x="215" y="964" on="0"/>
        <pt x="133" y="1114" on="1"/>
        <pt x="283" y="1032" on="0"/>
        <pt x="437" y="1032" on="1"/>
        <pt x="561" y="1032" on="0"/>
        <pt x="705" y="1085" on="1"/>
        <pt x="729" y="1061" on="1"/>
        <pt x="541" y="991" on="0"/>
        <pt x="407" y="863" on="1"/>
        <pt x="591" y="681" on="1"/>
        <pt x="718" y="623" on="0"/>
        <pt x="847" y="623" on="1"/>
        <pt x="970" y="623" on="0"/>
        <pt x="1112" y="676" on="1"/>
        <pt x="1137" y="651" on="1"/>
      </contour>
      <contour>
        <pt x="1103" y="460" on="0"/>
        <pt x="971" y="460" on="1"/>
        <pt x="849" y="460" on="0"/>
        <pt x="735" y="512" on="1"/>
        <pt x="787" y="398" on="0"/>
        <pt x="787" y="277" on="1"/>
        <pt x="787" y="145" on="0"/>
        <pt x="725" y="-20" on="1"/>
        <pt x="700" y="4" on="1"/>
        <pt x="754" y="146" on="0"/>
        <pt x="754" y="272" on="1"/>
        <pt x="754" y="426" on="0"/>
        <pt x="672" y="575" on="1"/>
        <pt x="821" y="493" on="0"/>
        <pt x="975" y="493" on="1"/>
        <pt x="1101" y="493" on="0"/>
        <pt x="1243" y="547" on="1"/>
        <pt x="1268" y="522" on="1"/>
      </contour>
    </TTGlyph>
    <TTGlyph name="arrowupright" xMin="133" yMin="-20" xMax="1268" yMax="1114">
      <component glyphName=".ttfautohint" x="133" y="0" flags="0x0"/>
      <component glyphName="arrowupleft" x="1401" y="0" scalex="-1.0" scaley="1.0" flags="0x0"/>
    </TTGlyph>
    <TTGlyph name="asciicircum" xMin="94" yMin="618" xMax="979" yMax="1081">
      <contour>
        <pt x="626" y="957" on="0"/>
        <pt x="853" y="723" on="0"/>
        <pt x="979" y="647" on="1"/>
        <pt x="963" y="618" on="1"/>
        <pt x="828" y="640" on="0"/>
        <pt x="573" y="707" on="0"/>
        <pt x="496" y="741" on="1"/>
        <pt x="431" y="707" on="0"/>
        <pt x="221" y="640" on="0"/>
        <pt x="111" y="618" on="1"/>
        <pt x="94" y="647" on="1"/>
        <pt x="218" y="721" on="0"/>
        <pt x="444" y="955" on="0"/>
        <pt x="518" y="1081" on="1"/>
        <pt x="555" y="1081" on="1"/>
      </contour>
    </TTGlyph>
    <TTGlyph name="asciicircum.case" xMin="-51" yMin="1034" xMax="956" yMax="1479">
      <contour>
        <pt x="550" y="1362" on="0"/>
        <pt x="811" y="1137" on="0"/>
        <pt x="956" y="1065" on="1"/>
        <pt x="946" y="1034" on="1"/>
        <pt x="793" y="1065" on="0"/>
        <pt x="498" y="1168" on="0"/>
        <pt x="412" y="1221" on="1"/>
        <pt x="337" y="1168" on="0"/>
        <pt x="87" y="1065" on="0"/>
        <pt x="-41" y="1034" on="1"/>
        <pt x="-51" y="1065" on="1"/>
        <pt x="92" y="1136" on="0"/>
        <pt x="351" y="1359" on="0"/>
        <pt x="434" y="1479" on="1"/>
        <pt x="471" y="1479" on="1"/>
      </contour>
    </TTGlyph>
    <TTGlyph name="asciitilde" xMin="102" yMin="399" xMax="1298" yMax="829">
      <contour>
        <pt x="489" y="829" on="0"/>
        <pt x="593" y="801" on="0"/>
        <pt x="680" y="762" on="0"/>
        <pt x="744" y="728" on="1"/>
        <pt x="835" y="680" on="0"/>
        <pt x="963" y="631" on="0"/>
        <pt x="1036" y="631" on="1"/>
        <pt x="1200" y="631" on="0"/>
        <pt x="1262" y="791" on="1"/>
        <pt x="1298" y="784" on="1"/>
        <pt x="1288" y="670" on="0"/>
        <pt x="1194" y="495" on="0"/>
        <pt x="1050" y="399" on="0"/>
        <pt x="967" y="399" on="1"/>
        <pt x="888" y="399" on="0"/>
        <pt x="751" y="450" on="0"/>
        <pt x="657" y="501" on="1"/>
        <pt x="566" y="549" on="0"/>
        <pt x="438" y="598" on="0"/>
        <pt x="365" y="598" on="1"/>
        <pt x="201" y="598" on="0"/>
        <pt x="139" y="438" on="1"/>
        <pt x="102" y="444" on="1"/>
        <pt x="112" y="558" on="0"/>
        <pt x="207" y="733" on="0"/>
        <pt x="351" y="829" on="0"/>
        <pt x="434" y="829" on="1"/>
      </contour>
    </TTGlyph>
    <TTGlyph name="asciitilde.case" xMin="-43" yMin="514" xMax="1153" yMax="944">
      <component glyphName=".ttfautohint" x="0" y="514" flags="0x0"/>
      <component glyphName="asciitilde" x="-145" y="115" flags="0x0"/>
    </TTGlyph>
    <TTGlyph name="asciitilde.smcp" xMin="100" yMin="411" xMax="1296" yMax="841">
      <component glyphName=".ttfautohint" x="100" y="411" flags="0x0"/>
      <component glyphName="asciitilde" x="-2" y="12" flags="0x0"/>
    </TTGlyph>
    <TTGlyph name="asterisk" xMin="91" yMin="629" xMax="880" yMax="1493">
      <contour>
        <pt x="880" y="968" on="0"/>
        <pt x="880" y="912" on="1"/>
        <pt x="880" y="879" on="0"/>
        <pt x="860" y="846" on="1"/>
        <pt x="824" y="783" on="0"/>
        <pt x="767" y="783" on="1"/>
        <pt x="737" y="783" on="0"/>
        <pt x="707" y="801" on="1"/>
        <pt x="676" y="819" on="0"/>
        <pt x="621" y="882" on="0"/>
        <pt x="569" y="950" on="1"/>
        <pt x="529" y="1005" on="0"/>
        <pt x="494" y="1048" on="1"/>
        <pt x="539" y="939" on="1"/>
        <pt x="572" y="862" on="0"/>
        <pt x="602" y="776" on="0"/>
        <pt x="602" y="739" on="1"/>
        <pt x="602" y="682" on="0"/>
        <pt x="535" y="629" on="0"/>
        <pt x="487" y="629" on="1"/>
        <pt x="437" y="629" on="0"/>
        <pt x="371" y="682" on="0"/>
        <pt x="371" y="739" on="1"/>
        <pt x="371" y="776" on="0"/>
        <pt x="400" y="860" on="0"/>
        <pt x="433" y="937" on="1"/>
        <pt x="443" y="962" on="0"/>
        <pt x="466" y="1016" on="0"/>
        <pt x="478" y="1045" on="1"/>
        <pt x="485" y="1054" on="0"/>
        <pt x="406" y="953" on="1"/>
        <pt x="357" y="886" on="0"/>
        <pt x="297" y="817" on="0"/>
        <pt x="266" y="799" on="1"/>
        <pt x="235" y="781" on="0"/>
        <pt x="206" y="781" on="1"/>
        <pt x="176" y="781" on="0"/>
        <pt x="128" y="817" on="0"/>
        <pt x="113" y="844" on="1"/>
        <pt x="92" y="878" on="0"/>
        <pt x="92" y="912" on="1"/>
        <pt x="92" y="966" on="0"/>
        <pt x="150" y="999" on="1"/>
        <pt x="181" y="1017" on="0"/>
        <pt x="265" y="1034" on="0"/>
        <pt x="348" y="1043" on="1"/>
        <pt x="494" y="1063" on="0"/>
        <pt x="470" y="1059" on="1"/>
        <pt x="412" y="1067" on="0"/>
        <pt x="355" y="1074" on="1"/>
        <pt x="268" y="1085" on="0"/>
        <pt x="180" y="1102" on="0"/>
        <pt x="150" y="1120" on="1"/>
        <pt x="91" y="1153" on="0"/>
        <pt x="91" y="1210" on="1"/>
        <pt x="91" y="1243" on="0"/>
        <pt x="111" y="1276" on="1"/>
        <pt x="145" y="1339" on="0"/>
        <pt x="204" y="1339" on="1"/>
        <pt x="234" y="1339" on="0"/>
        <pt x="264" y="1321" on="1"/>
        <pt x="296" y="1303" on="0"/>
        <pt x="355" y="1236" on="0"/>
        <pt x="403" y="1170" on="1"/>
        <pt x="464" y="1089" on="0"/>
        <pt x="476" y="1075" on="1"/>
        <pt x="431" y="1184" on="1"/>
        <pt x="398" y="1262" on="0"/>
        <pt x="369" y="1346" on="0"/>
        <pt x="369" y="1382" on="1"/>
        <pt x="369" y="1439" on="0"/>
        <pt x="437" y="1493" on="0"/>
        <pt x="485" y="1493" on="1"/>
        <pt x="534" y="1493" on="0"/>
        <pt x="600" y="1439" on="0"/>
        <pt x="600" y="1382" on="1"/>
        <pt x="600" y="1347" on="0"/>
        <pt x="573" y="1268" on="0"/>
        <pt x="541" y="1192" on="1"/>
        <pt x="512" y="1126" on="0"/>
        <pt x="494" y="1078" on="1"/>
        <pt x="513" y="1102" on="0"/>
        <pt x="566" y="1172" on="1"/>
        <pt x="616" y="1238" on="0"/>
        <pt x="675" y="1305" on="0"/>
        <pt x="705" y="1323" on="1"/>
        <pt x="737" y="1341" on="0"/>
        <pt x="764" y="1341" on="1"/>
        <pt x="823" y="1341" on="0"/>
        <pt x="858" y="1278" on="1"/>
        <pt x="879" y="1244" on="0"/>
        <pt x="879" y="1210" on="1"/>
        <pt x="879" y="1155" on="0"/>
        <pt x="821" y="1122" on="1"/>
        <pt x="790" y="1104" on="0"/>
        <pt x="707" y="1087" on="0"/>
        <pt x="625" y="1078" on="1"/>
        <pt x="480" y="1058" on="0"/>
        <pt x="506" y="1062" on="1"/>
        <pt x="571" y="1052" on="0"/>
        <pt x="619" y="1047" on="1"/>
        <pt x="704" y="1036" on="0"/>
        <pt x="791" y="1019" on="0"/>
        <pt x="821" y="1001" on="1"/>
      </contour>
      <contour>
        <pt x="486" y="1061" on="1"/>
        <pt x="484" y="1061" on="1"/>
        <pt x="485" y="1060" on="1"/>
      </contour>
    </TTGlyph>
    <TTGlyph name="at" xMin="86" yMin="-330" xMax="1755" yMax="1368">
      <contour>
        <pt x="969" y="53" on="0"/>
        <pt x="969" y="200" on="1"/>
        <pt x="969" y="229" on="0"/>
        <pt x="975" y="260" on="1"/>
        <pt x="878" y="53" on="0"/>
        <pt x="694" y="53" on="1"/>
        <pt x="583" y="53" on="0"/>
        <pt x="440" y="189" on="0"/>
        <pt x="440" y="332" on="1"/>
        <pt x="440" y="472" on="0"/>
        <pt x="575" y="776" on="0"/>
        <pt x="802" y="979" on="0"/>
        <pt x="932" y="979" on="1"/>
        <pt x="1000" y="979" on="0"/>
        <pt x="1083" y="906" on="0"/>
        <pt x="1098" y="849" on="1"/>
        <pt x="1118" y="950" on="1"/>
        <pt x="1311" y="950" on="0"/>
        <pt x="1427" y="979" on="1"/>
        <pt x="1272" y="248" on="1"/>
        <pt x="1263" y="206" on="0"/>
        <pt x="1262" y="181" on="1"/>
        <pt x="1261" y="177" on="0"/>
        <pt x="1261" y="168" on="1"/>
        <pt x="1261" y="125" on="0"/>
        <pt x="1288" y="125" on="1"/>
        <pt x="1301" y="125" on="0"/>
        <pt x="1321" y="135" on="1"/>
        <pt x="1416" y="180" on="0"/>
        <pt x="1595" y="364" on="0"/>
        <pt x="1714" y="638" on="0"/>
        <pt x="1714" y="807" on="1"/>
        <pt x="1714" y="989" on="0"/>
        <pt x="1550" y="1223" on="0"/>
        <pt x="1273" y="1331" on="0"/>
        <pt x="1098" y="1331" on="1"/>
        <pt x="846" y="1331" on="0"/>
        <pt x="398" y="1046" on="0"/>
        <pt x="127" y="569" on="0"/>
        <pt x="127" y="297" on="1"/>
        <pt x="127" y="93" on="0"/>
        <pt x="288" y="-171" on="0"/>
        <pt x="573" y="-293" on="0"/>
        <pt x="762" y="-293" on="1"/>
        <pt x="999" y="-293" on="0"/>
        <pt x="1184" y="-182" on="1"/>
        <pt x="1198" y="-209" on="1"/>
        <pt x="1119" y="-265" on="0"/>
        <pt x="892" y="-330" on="0"/>
        <pt x="760" y="-330" on="1"/>
        <pt x="558" y="-330" on="0"/>
        <pt x="256" y="-197" on="0"/>
        <pt x="86" y="82" on="0"/>
        <pt x="86" y="293" on="1"/>
        <pt x="86" y="567" on="0"/>
        <pt x="357" y="1064" on="0"/>
        <pt x="822" y="1368" on="0"/>
        <pt x="1096" y="1368" on="1"/>
        <pt x="1287" y="1368" on="0"/>
        <pt x="1584" y="1249" on="0"/>
        <pt x="1755" y="997" on="0"/>
        <pt x="1755" y="805" on="1"/>
        <pt x="1755" y="587" on="0"/>
        <pt x="1566" y="243" on="0"/>
        <pt x="1279" y="53" on="0"/>
        <pt x="1141" y="53" on="1"/>
      </contour>
      <contour>
        <pt x="884" y="176" on="0"/>
        <pt x="969" y="294" on="0"/>
        <pt x="1010" y="416" on="1"/>
        <pt x="1081" y="768" on="1"/>
        <pt x="1082" y="814" on="0"/>
        <pt x="1045" y="891" on="0"/>
        <pt x="1010" y="891" on="1"/>
        <pt x="959" y="891" on="0"/>
        <pt x="841" y="725" on="0"/>
        <pt x="762" y="463" on="0"/>
        <pt x="762" y="328" on="1"/>
        <pt x="762" y="242" on="0"/>
        <pt x="796" y="176" on="0"/>
        <pt x="831" y="176" on="1"/>
      </contour>
    </TTGlyph>
    <TTGlyph name="at.case" xMin="86" yMin="-219" xMax="1755" yMax="1479">
      <component glyphName=".ttfautohint" x="86" y="0" flags="0x0"/>
      <component glyphName="at" x="0" y="111" flags="0x0"/>
    </TTGlyph>
    <TTGlyph name="at.smcp" xMin="78" yMin="-330" xMax="1747" yMax="1368">
      <component glyphName=".ttfautohint" x="78" y="0" flags="0x0"/>
      <component glyphName="at" x="-8" y="0" flags="0x0"/>
    </TTGlyph>
    <TTGlyph name="atilde" xMin="-35" yMin="0" xMax="1321" yMax="1757">
      <component glyphName=".ttfautohint" x="0" y="0" flags="0x0"/>
      <component glyphName="a" x="0" y="0" flags="0x0"/>
      <component glyphName="tilde.smcp" x="159" y="0" flags="0x0"/>
    </TTGlyph>
    <TTGlyph name="b" xMin="59" yMin="0" xMax="1341" yMax="1245">
      <contour>
        <pt x="1017" y="645" on="0"/>
        <pt x="1246" y="555" on="0"/>
        <pt x="1341" y="423" on="0"/>
        <pt x="1341" y="336" on="1"/>
        <pt x="1341" y="172" on="0"/>
        <pt x="1040" y="0" on="0"/>
        <pt x="748" y="0" on="1"/>
        <pt x="641" y="2" on="1"/>
        <pt x="495" y="6" on="0"/>
        <pt x="354" y="6" on="1"/>
        <pt x="158" y="6" on="0"/>
        <pt x="59" y="0" on="1"/>
        <pt x="59" y="41" on="1"/>
        <pt x="125" y="44" on="0"/>
        <pt x="184" y="70" on="0"/>
        <pt x="205" y="140" on="0"/>
        <pt x="205" y="217" on="1"/>
        <pt x="205" y="1028" on="1"/>
        <pt x="205" y="1106" on="0"/>
        <pt x="183" y="1176" on="0"/>
        <pt x="125" y="1201" on="0"/>
        <pt x="59" y="1204" on="1"/>
        <pt x="59" y="1245" on="1"/>
        <pt x="158" y="1239" on="0"/>
        <pt x="350" y="1239" on="1"/>
        <pt x="392" y="1239" on="0"/>
        <pt x="599" y="1242" on="1"/>
        <pt x="700" y="1243" on="1"/>
        <pt x="979" y="1243" on="0"/>
        <pt x="1235" y="1104" on="0"/>
        <pt x="1235" y="963" on="1"/>
        <pt x="1235" y="853" on="0"/>
        <pt x="1041" y="710" on="0"/>
        <pt x="821" y="668" on="1"/>
        <pt x="821" y="664" on="1"/>
      </contour>
      <contour>
        <pt x="651" y="1204" on="0"/>
        <pt x="614" y="1175" on="0"/>
        <pt x="600" y="1102" on="0"/>
        <pt x="600" y="1028" on="1"/>
        <pt x="600" y="668" on="1"/>
        <pt x="635" y="668" on="1"/>
        <pt x="747" y="668" on="0"/>
        <pt x="834" y="811" on="0"/>
        <pt x="834" y="940" on="1"/>
        <pt x="834" y="1073" on="0"/>
        <pt x="767" y="1204" on="0"/>
        <pt x="690" y="1204" on="1"/>
      </contour>
      <contour>
        <pt x="816" y="47" on="0"/>
        <pt x="932" y="197" on="0"/>
        <pt x="932" y="344" on="1"/>
        <pt x="932" y="487" on="0"/>
        <pt x="807" y="633" on="0"/>
        <pt x="670" y="633" on="1"/>
        <pt x="600" y="633" on="1"/>
        <pt x="600" y="217" on="1"/>
        <pt x="600" y="142" on="0"/>
        <pt x="614" y="73" on="0"/>
        <pt x="652" y="47" on="0"/>
        <pt x="692" y="47" on="1"/>
      </contour>
    </TTGlyph>
    <TTGlyph name="backslash" xMin="62" yMin="-29" xMax="687" yMax="1479">
      <component glyphName=".ttfautohint" x="62" y="0" flags="0x0"/>
      <component glyphName="slash" x="750" y="0" scalex="-1.0" scaley="1.0" flags="0x0"/>
    </TTGlyph>
    <TTGlyph name="bar" xMin="158" yMin="-399" xMax="403" yMax="1757">
      <contour>
        <pt x="158" y="-399" on="1"/>
        <pt x="158" y="1757" on="1"/>
        <pt x="403" y="1757" on="1"/>
        <pt x="403" y="-399" on="1"/>
      </contour>
    </TTGlyph>
    <TTGlyph name="blacksquare" xMin="162" yMin="104" xMax="975" yMax="956">
      <contour>
        <pt x="162" y="104" on="1"/>
        <pt x="162" y="956" on="1"/>
        <pt x="975" y="956" on="1"/>
        <pt x="975" y="104" on="1"/>
      </contour>
    </TTGlyph>
    <TTGlyph name="blacksquare.case" xMin="154" yMin="303" xMax="1008" yMax="1155">
      <contour>
        <pt x="154" y="303" on="1"/>
        <pt x="154" y="1155" on="1"/>
        <pt x="1008" y="1155" on="1"/>
        <pt x="1008" y="303" on="1"/>
      </contour>
    </TTGlyph>
    <TTGlyph name="blacksquare.smcp" xMin="180" yMin="197" xMax="1034" yMax="1049">
      <contour>
        <pt x="180" y="197" on="1"/>
        <pt x="180" y="1049" on="1"/>
        <pt x="1034" y="1049" on="1"/>
        <pt x="1034" y="197" on="1"/>
      </contour>
    </TTGlyph>
    <TTGlyph name="braceleft" xMin="23" yMin="-385" xMax="700" yMax="1602">
      <contour>
        <pt x="637" y="1561" on="0"/>
        <pt x="580" y="1503" on="0"/>
        <pt x="557" y="1325" on="0"/>
        <pt x="557" y="1128" on="1"/>
        <pt x="557" y="954" on="0"/>
        <pt x="428" y="742" on="0"/>
        <pt x="221" y="638" on="0"/>
        <pt x="80" y="612" on="1"/>
        <pt x="221" y="586" on="0"/>
        <pt x="428" y="482" on="0"/>
        <pt x="557" y="269" on="0"/>
        <pt x="557" y="96" on="1"/>
        <pt x="557" y="-108" on="0"/>
        <pt x="580" y="-289" on="0"/>
        <pt x="637" y="-345" on="0"/>
        <pt x="700" y="-346" on="1"/>
        <pt x="700" y="-385" on="1"/>
        <pt x="507" y="-385" on="0"/>
        <pt x="288" y="-300" on="0"/>
        <pt x="188" y="-93" on="0"/>
        <pt x="188" y="96" on="1"/>
        <pt x="188" y="294" on="0"/>
        <pt x="162" y="500" on="0"/>
        <pt x="97" y="589" on="0"/>
        <pt x="33" y="594" on="1"/>
        <pt x="23" y="594" on="1"/>
        <pt x="23" y="631" on="1"/>
        <pt x="33" y="631" on="1"/>
        <pt x="97" y="635" on="0"/>
        <pt x="162" y="723" on="0"/>
        <pt x="188" y="929" on="0"/>
        <pt x="188" y="1128" on="1"/>
        <pt x="188" y="1310" on="0"/>
        <pt x="288" y="1514" on="0"/>
        <pt x="509" y="1602" on="0"/>
        <pt x="700" y="1602" on="1"/>
        <pt x="700" y="1563" on="1"/>
      </contour>
    </TTGlyph>
    <TTGlyph name="braceleft.case" xMin="27" yMin="-152" xMax="649" yMax="1602">
      <contour>
        <pt x="613" y="1561" on="0"/>
        <pt x="580" y="1510" on="0"/>
        <pt x="567" y="1362" on="0"/>
        <pt x="567" y="1202" on="1"/>
        <pt x="567" y="1039" on="0"/>
        <pt x="449" y="844" on="0"/>
        <pt x="241" y="750" on="0"/>
        <pt x="84" y="727" on="1"/>
        <pt x="240" y="704" on="0"/>
        <pt x="449" y="609" on="0"/>
        <pt x="567" y="414" on="0"/>
        <pt x="567" y="252" on="1"/>
        <pt x="567" y="84" on="0"/>
        <pt x="580" y="-65" on="0"/>
        <pt x="613" y="-112" on="0"/>
        <pt x="649" y="-113" on="1"/>
        <pt x="649" y="-152" on="1"/>
        <pt x="478" y="-152" on="0"/>
        <pt x="282" y="-79" on="0"/>
        <pt x="193" y="96" on="0"/>
        <pt x="193" y="252" on="1"/>
        <pt x="193" y="432" on="0"/>
        <pt x="167" y="621" on="0"/>
        <pt x="101" y="703" on="0"/>
        <pt x="37" y="709" on="1"/>
        <pt x="27" y="709" on="1"/>
        <pt x="27" y="745" on="1"/>
        <pt x="37" y="745" on="1"/>
        <pt x="101" y="750" on="0"/>
        <pt x="167" y="831" on="0"/>
        <pt x="193" y="1021" on="0"/>
        <pt x="193" y="1202" on="1"/>
        <pt x="193" y="1350" on="0"/>
        <pt x="283" y="1524" on="0"/>
        <pt x="481" y="1602" on="0"/>
        <pt x="649" y="1602" on="1"/>
        <pt x="649" y="1563" on="1"/>
      </contour>
    </TTGlyph>
    <TTGlyph name="braceleft.smcp" xMin="39" yMin="-119" xMax="717" yMax="1364">
      <contour>
        <pt x="655" y="1323" on="0"/>
        <pt x="596" y="1280" on="0"/>
        <pt x="573" y="1158" on="0"/>
        <pt x="573" y="1026" on="1"/>
        <pt x="573" y="886" on="0"/>
        <pt x="445" y="723" on="0"/>
        <pt x="242" y="648" on="0"/>
        <pt x="96" y="627" on="1"/>
        <pt x="241" y="606" on="0"/>
        <pt x="445" y="531" on="0"/>
        <pt x="573" y="367" on="0"/>
        <pt x="573" y="227" on="1"/>
        <pt x="573" y="93" on="0"/>
        <pt x="596" y="-33" on="0"/>
        <pt x="655" y="-78" on="0"/>
        <pt x="717" y="-80" on="1"/>
        <pt x="717" y="-119" on="1"/>
        <pt x="528" y="-119" on="0"/>
        <pt x="305" y="-51" on="0"/>
        <pt x="205" y="99" on="0"/>
        <pt x="205" y="227" on="1"/>
        <pt x="205" y="382" on="0"/>
        <pt x="179" y="540" on="0"/>
        <pt x="114" y="604" on="0"/>
        <pt x="49" y="608" on="1"/>
        <pt x="39" y="608" on="1"/>
        <pt x="39" y="645" on="1"/>
        <pt x="49" y="645" on="1"/>
        <pt x="114" y="649" on="0"/>
        <pt x="179" y="713" on="0"/>
        <pt x="205" y="871" on="0"/>
        <pt x="205" y="1026" on="1"/>
        <pt x="205" y="1151" on="0"/>
        <pt x="305" y="1298" on="0"/>
        <pt x="527" y="1364" on="0"/>
        <pt x="717" y="1364" on="1"/>
        <pt x="717" y="1325" on="1"/>
      </contour>
    </TTGlyph>
    <TTGlyph name="braceright" xMin="23" yMin="-385" xMax="700" yMax="1602">
      <component glyphName=".ttfautohint" x="23" y="0" flags="0x0"/>
      <component glyphName="braceleft" x="723" y="0" scalex="-1.0" scaley="1.0" flags="0x0"/>
    </TTGlyph>
    <TTGlyph name="braceright.case" xMin="56" yMin="-152" xMax="678" yMax="1602">
      <component glyphName=".ttfautohint" x="56" y="0" flags="0x0"/>
      <component glyphName="braceleft.case" x="705" y="0" scalex="-1.0" scaley="1.0" flags="0x0"/>
    </TTGlyph>
    <TTGlyph name="braceright.smcp" xMin="45" yMin="-119" xMax="723" yMax="1364">
      <component glyphName=".ttfautohint" x="45" y="0" flags="0x0"/>
      <component glyphName="braceleft.smcp" x="762" y="0" scalex="-1.0" scaley="1.0" flags="0x0"/>
    </TTGlyph>
    <TTGlyph name="bracketleft" xMin="160" yMin="-371" xMax="612" yMax="1581">
      <contour>
        <pt x="528" y="1542" on="1"/>
        <pt x="528" y="-332" on="1"/>
        <pt x="612" y="-332" on="1"/>
        <pt x="612" y="-371" on="1"/>
        <pt x="160" y="-371" on="1"/>
        <pt x="160" y="1581" on="1"/>
        <pt x="612" y="1581" on="1"/>
        <pt x="612" y="1542" on="1"/>
      </contour>
    </TTGlyph>
    <TTGlyph name="bracketleft.case" xMin="164" yMin="-131" xMax="623" yMax="1581">
      <contour>
        <pt x="539" y="1542" on="1"/>
        <pt x="539" y="-92" on="1"/>
        <pt x="623" y="-92" on="1"/>
        <pt x="623" y="-131" on="1"/>
        <pt x="164" y="-131" on="1"/>
        <pt x="164" y="1581" on="1"/>
        <pt x="623" y="1581" on="1"/>
        <pt x="623" y="1542" on="1"/>
      </contour>
    </TTGlyph>
    <TTGlyph name="bracketleft.smcp" xMin="174" yMin="-111" xMax="627" yMax="1356">
      <contour>
        <pt x="543" y="1317" on="1"/>
        <pt x="543" y="-72" on="1"/>
        <pt x="627" y="-72" on="1"/>
        <pt x="627" y="-111" on="1"/>
        <pt x="174" y="-111" on="1"/>
        <pt x="174" y="1356" on="1"/>
        <pt x="627" y="1356" on="1"/>
        <pt x="627" y="1317" on="1"/>
      </contour>
    </TTGlyph>
    <TTGlyph name="bracketright" xMin="84" yMin="-371" xMax="536" yMax="1581">
      <component glyphName=".ttfautohint" x="84" y="0" flags="0x0"/>
      <component glyphName="bracketleft" x="696" y="0" scalex="-1.0" scaley="1.0" flags="0x0"/>
    </TTGlyph>
    <TTGlyph name="bracketright.case" xMin="86" yMin="-131" xMax="545" yMax="1581">
      <component glyphName=".ttfautohint" x="86" y="0" flags="0x0"/>
      <component glyphName="bracketleft.case" x="709" y="0" scalex="-1.0" scaley="1.0" flags="0x0"/>
    </TTGlyph>
    <TTGlyph name="bracketright.smcp" xMin="96" yMin="-111" xMax="549" yMax="1356">
      <component glyphName=".ttfautohint" x="96" y="0" flags="0x0"/>
      <component glyphName="bracketleft.smcp" x="723" y="0" scalex="-1.0" scaley="1.0" flags="0x0"/>
    </TTGlyph>
    <TTGlyph name="breve" xMin="31" yMin="1255" xMax="846" yMax="1614">
      <contour>
        <pt x="805" y="1453" on="0"/>
        <pt x="608" y="1255" on="0"/>
        <pt x="438" y="1255" on="1"/>
        <pt x="268" y="1255" on="0"/>
        <pt x="72" y="1453" on="0"/>
        <pt x="31" y="1595" on="1"/>
        <pt x="66" y="1614" on="1"/>
        <pt x="208" y="1499" on="0"/>
        <pt x="438" y="1499" on="1"/>
        <pt x="669" y="1499" on="0"/>
        <pt x="811" y="1614" on="1"/>
        <pt x="846" y="1595" on="1"/>
      </contour>
    </TTGlyph>
    <TTGlyph name="breve.case" xMin="-51" yMin="1563" xMax="928" yMax="1884">
      <contour>
        <pt x="898" y="1787" on="0"/>
        <pt x="771" y="1651" on="0"/>
        <pt x="569" y="1563" on="0"/>
        <pt x="438" y="1563" on="1"/>
        <pt x="307" y="1563" on="0"/>
        <pt x="105" y="1651" on="0"/>
        <pt x="-22" y="1787" on="0"/>
        <pt x="-51" y="1862" on="1"/>
        <pt x="-27" y="1884" on="1"/>
        <pt x="160" y="1765" on="0"/>
        <pt x="438" y="1765" on="1"/>
        <pt x="716" y="1765" on="0"/>
        <pt x="903" y="1884" on="1"/>
        <pt x="928" y="1862" on="1"/>
      </contour>
    </TTGlyph>
    <TTGlyph name="breve.smcp" xMin="-31" yMin="1376" xMax="948" yMax="1698">
      <contour>
        <pt x="919" y="1600" on="0"/>
        <pt x="791" y="1464" on="0"/>
        <pt x="590" y="1376" on="0"/>
        <pt x="459" y="1376" on="1"/>
        <pt x="328" y="1376" on="0"/>
        <pt x="126" y="1464" on="0"/>
        <pt x="-1" y="1600" on="0"/>
        <pt x="-31" y="1675" on="1"/>
        <pt x="-6" y="1698" on="1"/>
        <pt x="181" y="1579" on="0"/>
        <pt x="459" y="1579" on="1"/>
        <pt x="737" y="1579" on="0"/>
        <pt x="924" y="1698" on="1"/>
        <pt x="948" y="1675" on="1"/>
      </contour>
    </TTGlyph>
    <TTGlyph name="brevecy" xMin="41" yMin="1214" xMax="969" yMax="1634">
      <contour>
        <pt x="842" y="1634" on="0"/>
        <pt x="923" y="1589" on="0"/>
        <pt x="969" y="1508" on="0"/>
        <pt x="969" y="1456" on="1"/>
        <pt x="969" y="1401" on="0"/>
        <pt x="901" y="1311" on="0"/>
        <pt x="850" y="1284" on="1"/>
        <pt x="720" y="1214" on="0"/>
        <pt x="504" y="1214" on="1"/>
        <pt x="286" y="1214" on="0"/>
        <pt x="156" y="1284" on="1"/>
        <pt x="106" y="1311" on="0"/>
        <pt x="41" y="1401" on="0"/>
        <pt x="41" y="1456" on="1"/>
        <pt x="41" y="1535" on="0"/>
        <pt x="139" y="1634" on="0"/>
        <pt x="219" y="1634" on="1"/>
        <pt x="269" y="1634" on="0"/>
        <pt x="350" y="1589" on="0"/>
        <pt x="397" y="1507" on="0"/>
        <pt x="397" y="1456" on="1"/>
        <pt x="397" y="1395" on="0"/>
        <pt x="325" y="1307" on="0"/>
        <pt x="266" y="1286" on="1"/>
        <pt x="384" y="1255" on="0"/>
        <pt x="504" y="1255" on="1"/>
        <pt x="626" y="1255" on="0"/>
        <pt x="739" y="1288" on="1"/>
        <pt x="681" y="1309" on="0"/>
        <pt x="612" y="1396" on="0"/>
        <pt x="612" y="1456" on="1"/>
        <pt x="612" y="1508" on="0"/>
        <pt x="658" y="1589" on="0"/>
        <pt x="739" y="1634" on="0"/>
        <pt x="791" y="1634" on="1"/>
      </contour>
    </TTGlyph>
    <TTGlyph name="brevecy.case" xMin="41" yMin="1561" xMax="1092" yMax="1939">
      <contour>
        <pt x="949" y="1939" on="0"/>
        <pt x="1040" y="1899" on="0"/>
        <pt x="1092" y="1830" on="0"/>
        <pt x="1092" y="1788" on="1"/>
        <pt x="1092" y="1691" on="0"/>
        <pt x="952" y="1628" on="1"/>
        <pt x="886" y="1598" on="0"/>
        <pt x="686" y="1561" on="0"/>
        <pt x="565" y="1561" on="1"/>
        <pt x="443" y="1561" on="0"/>
        <pt x="242" y="1598" on="0"/>
        <pt x="176" y="1628" on="1"/>
        <pt x="115" y="1655" on="0"/>
        <pt x="41" y="1736" on="0"/>
        <pt x="41" y="1788" on="1"/>
        <pt x="41" y="1829" on="0"/>
        <pt x="90" y="1898" on="0"/>
        <pt x="180" y="1939" on="0"/>
        <pt x="238" y="1939" on="1"/>
        <pt x="294" y="1939" on="0"/>
        <pt x="386" y="1899" on="0"/>
        <pt x="438" y="1828" on="0"/>
        <pt x="438" y="1784" on="1"/>
        <pt x="438" y="1726" on="0"/>
        <pt x="353" y="1649" on="0"/>
        <pt x="287" y="1632" on="1"/>
        <pt x="419" y="1602" on="0"/>
        <pt x="565" y="1602" on="1"/>
        <pt x="714" y="1602" on="0"/>
        <pt x="842" y="1634" on="1"/>
        <pt x="774" y="1652" on="0"/>
        <pt x="694" y="1729" on="0"/>
        <pt x="694" y="1784" on="1"/>
        <pt x="694" y="1828" on="0"/>
        <pt x="745" y="1898" on="0"/>
        <pt x="836" y="1939" on="0"/>
        <pt x="893" y="1939" on="1"/>
      </contour>
    </TTGlyph>
    <TTGlyph name="brevecy.smcp" xMin="41" yMin="1376" xMax="1092" yMax="1755">
      <contour>
        <pt x="949" y="1755" on="0"/>
        <pt x="1040" y="1715" on="0"/>
        <pt x="1092" y="1646" on="0"/>
        <pt x="1092" y="1604" on="1"/>
        <pt x="1092" y="1507" on="0"/>
        <pt x="952" y="1444" on="1"/>
        <pt x="885" y="1414" on="0"/>
        <pt x="685" y="1376" on="0"/>
        <pt x="565" y="1376" on="1"/>
        <pt x="443" y="1376" on="0"/>
        <pt x="243" y="1414" on="0"/>
        <pt x="176" y="1444" on="1"/>
        <pt x="115" y="1471" on="0"/>
        <pt x="41" y="1552" on="0"/>
        <pt x="41" y="1604" on="1"/>
        <pt x="41" y="1645" on="0"/>
        <pt x="90" y="1714" on="0"/>
        <pt x="180" y="1755" on="0"/>
        <pt x="238" y="1755" on="1"/>
        <pt x="294" y="1755" on="0"/>
        <pt x="386" y="1715" on="0"/>
        <pt x="438" y="1644" on="0"/>
        <pt x="438" y="1599" on="1"/>
        <pt x="438" y="1542" on="0"/>
        <pt x="352" y="1464" on="0"/>
        <pt x="287" y="1448" on="1"/>
        <pt x="417" y="1417" on="0"/>
        <pt x="565" y="1417" on="1"/>
        <pt x="716" y="1417" on="0"/>
        <pt x="842" y="1450" on="1"/>
        <pt x="774" y="1468" on="0"/>
        <pt x="694" y="1544" on="0"/>
        <pt x="694" y="1599" on="1"/>
        <pt x="694" y="1643" on="0"/>
        <pt x="745" y="1714" on="0"/>
        <pt x="835" y="1755" on="0"/>
        <pt x="893" y="1755" on="1"/>
      </contour>
    </TTGlyph>
    <TTGlyph name="brokenbar" xMin="162" yMin="-399" xMax="408" yMax="1757">
      <contour>
        <pt x="162" y="786" on="1"/>
        <pt x="162" y="1757" on="1"/>
        <pt x="408" y="1757" on="1"/>
        <pt x="408" y="786" on="1"/>
      </contour>
      <contour>
        <pt x="162" y="-399" on="1"/>
        <pt x="162" y="668" on="1"/>
        <pt x="408" y="668" on="1"/>
        <pt x="408" y="-399" on="1"/>
      </contour>
    </TTGlyph>
    <TTGlyph name="bullet" xMin="147" yMin="172" xMax="907" yMax="932">
      <contour>
        <pt x="630" y="932" on="0"/>
        <pt x="805" y="830" on="0"/>
        <pt x="907" y="655" on="0"/>
        <pt x="907" y="551" on="1"/>
        <pt x="907" y="447" on="0"/>
        <pt x="805" y="273" on="0"/>
        <pt x="630" y="172" on="0"/>
        <pt x="526" y="172" on="1"/>
        <pt x="422" y="172" on="0"/>
        <pt x="248" y="273" on="0"/>
        <pt x="147" y="447" on="0"/>
        <pt x="147" y="551" on="1"/>
        <pt x="147" y="655" on="0"/>
        <pt x="248" y="830" on="0"/>
        <pt x="422" y="932" on="0"/>
        <pt x="526" y="932" on="1"/>
      </contour>
    </TTGlyph>
    <TTGlyph name="bullet.case" xMin="147" yMin="350" xMax="907" yMax="1110">
      <component glyphName=".ttfautohint" x="147" y="350" flags="0x0"/>
      <component glyphName="bullet" x="0" y="178" flags="0x0"/>
    </TTGlyph>
    <TTGlyph name="bullet.smcp" xMin="122" yMin="248" xMax="882" yMax="1008">
      <component glyphName=".ttfautohint" x="122" y="248" flags="0x0"/>
      <component glyphName="bullet" x="-25" y="76" flags="0x0"/>
    </TTGlyph>
</ttFont>
